<svg xmlns="http://www.w3.org/2000/svg" width="160" height="94.896" fill="currentColor" viewBox="0 0 160 94.896"><path d="M123.223 54.701c-3.007-1.627-6.294-2.36-9.736-2.357-13.719.01-27.438.006-41.157.014-.728 0-1.456.067-2.509.119.171 2.31.009 4.52.679 6.442.194.557 2.773.394 4.256.366 1.569-.03 2.196.463 2.165 2.136-.082 4.401.02 8.805.027 13.207.001.488-.138.975-.288 1.967-.749-1.109-1.226-1.766-1.653-2.454-4.063-6.544-8.15-13.071-12.147-19.655-.904-1.489-1.85-2.262-3.739-2.187-4.199.168-8.409.053-12.614.054h-5.673v6.967l5.056.355c.069.005.169-.024.202.011.36.385 1.014.776 1.017 1.171.072 8.804.079 17.61.06 26.414 0 .412-.236 1.011-.555 1.203-1.297.78-4.082-.439-4.563-1.868-3.678-10.927-7.38-21.845-11.042-32.777-.355-1.058-.85-1.532-2.048-1.506-3.514.077-7.033.081-10.546-.02-1.418-.041-2.016.446-2.462 1.795C12.371 64.917 8.679 75.7 5.082 86.515c-.428 1.286-1.028 2.163-2.428 1.969-2.209-.306-2.82.745-2.618 2.703a9.3 9.3 0 0 1-.005 1.855c-.133 1.324.362 1.825 1.752 1.797 3.928-.079 7.858-.027 11.788-.025 4.573.002 4.52.004 4.433-4.652-.026-1.407-.505-1.739-1.841-1.654-3.074.195-3.077.132-2.203-2.802.117-.395.263-.786.328-1.19.215-1.342 1.006-1.777 2.324-1.745 2.825.069 5.654-.017 8.478.064.593.017 1.502.329 1.697.761.685 1.511 1.122 3.134 1.666 4.751-.489.131-.69.244-.879.227-4.532-.407-4.023-.506-4.043 3.914 0 .069.011.139.001.206-.259 1.742.518 2.182 2.214 2.172 11.512-.064 23.024-.069 34.536.028 1.925.016 2.504-.524 2.434-2.429-.14-3.792-.043-3.863-3.81-3.881-1.645-.008-2.134-.615-2.07-2.205.113-2.816.032-5.64.032-8.461v-5.652c.687.998 1.049 1.458 1.341 1.96 3.67 6.295 7.36 12.578 10.965 18.91.698 1.226 1.498 1.78 2.926 1.744 3.307-.083 6.621-.13 9.924 0 1.828.072 2.355-.514 2.335-2.337-.103-9.218-.077-18.437-.086-27.656-.006-5.698 0-5.652 5.655-5.612 1.53.011 2.025.494 2.019 2.034-.033 8.186.001 16.373.086 24.558.02 1.889-.286 3.079-2.608 2.676-.441-.077-1.514.769-1.472 1.076.236 1.724-1.163 3.674.633 5.17.125.104.402.035.609.031 8.815-.158 17.648-.039 26.442-.562 7.331-.437 15.191-6.606 16.629-14.718.814-4.587.597-9.152-.308-13.717-1.032-5.209-4.244-8.695-8.734-11.124ZM18.8 75.634c-.239-.017-.682-1.074-.563-1.527.732-2.78 1.599-5.524 2.42-8.28l.623-.192 3.339 10.071c-2.206 0-4.02.06-5.82-.071Zm99.987 7.631c-1.958 3.358-5.829 5.148-9.661 4.62-1.471-.203-1.477-1.164-1.464-2.242q.04-3.092.057-6.182c.009-2.061.002-4.122.002-6.183h-.019c0-4.053.071-8.109-.036-12.159-.041-1.589.505-1.958 2.014-1.933 7.484.126 11.142 3.59 11.433 11.094.174 4.486.03 8.946-2.327 12.987Zm36.595 4.374c-1.621.016-1.969-.627-1.958-2.078.063-8.245.083-16.491.044-24.736-.007-1.407.468-1.843 1.819-1.682 1.02.121 2.09.2 3.085.013.549-.103 1.366-.754 1.41-1.219.168-1.754.067-3.533.067-5.438h-25.614c-1.009 5.983-.807 6.301 4.726 6.524 1.484.06 2.022.512 2.009 2.064q-.1 12.372.013 24.745c.015 1.613-.638 1.984-2.073 2.013-4.94.102-4.867.137-4.946 4.986-.028 1.683.526 2.082 2.134 2.061 7.093-.092 14.191-.163 21.281-.004 2.163.048 2.679-.537 2.615-2.604-.144-4.621-.038-4.69-4.614-4.644ZM96.107 36.118a20.6 20.6 0 0 1-14.066 5.526 20.6 20.6 0 0 1-15.516-7.018 20.6 20.6 0 0 1-5.179-13.672 10.27 10.27 0 0 0-1.45-5.283 10.33 10.33 0 0 0-8.887-5.055c-5.707 0-10.332 4.63-10.332 10.337S45.302 31.29 51.009 31.29c3.781 0 7.085-2.03 8.887-5.055a22.65 22.65 0 0 0 5.179 9.881 20.62 20.62 0 0 1-14.066 5.526c-11.409 0-20.69-9.281-20.69-20.69S39.6.259 51.009.259A20.6 20.6 0 0 1 65.075 5.79q.768.708 1.45 1.486a20.6 20.6 0 0 1 5.179 13.678 10.34 10.34 0 0 0 19.224 5.282 22.65 22.65 0 0 0 5.179 9.881Z"/><path d="M113.067 41.902a20.86 20.86 0 0 1-14.236-5.594 21 21 0 0 1-1.468-1.507 20.92 20.92 0 0 1-5.244-13.847c0-1.82-.488-3.601-1.414-5.151-1.809-3.038-5.13-4.927-8.664-4.927s-6.855 1.889-8.666 4.927l-.326.551-.149-.622a22.45 22.45 0 0 0-5.117-9.769l-.171-.19.186-.173C71.682 1.988 76.74 0 82.04 0s10.358 1.988 14.242 5.6c.505.468 1 .974 1.468 1.498a20.94 20.94 0 0 1 5.244 13.856c0 1.818.488 3.597 1.412 5.145l.037.067a10.13 10.13 0 0 0 8.623 4.866c5.559 0 10.08-4.521 10.08-10.078s-4.521-10.078-10.08-10.078c-3.53 0-6.848 1.889-8.659 4.927l-.326.551-.149-.622a22.46 22.46 0 0 0-5.123-9.773l-.171-.19.186-.173A20.88 20.88 0 0 1 113.066 0c11.554 0 20.954 9.4 20.954 20.954s-9.4 20.948-20.954 20.948ZM82.041 10.358c3.715 0 7.206 1.986 9.108 5.181a10.55 10.55 0 0 1 1.487 5.415 20.4 20.4 0 0 0 6.548 14.974 20.33 20.33 0 0 0 13.882 5.456c11.269 0 20.436-9.165 20.436-20.43S124.336.518 113.067.518c-5.08 0-9.935 1.876-13.703 5.287a23 23 0 0 1 4.924 9.221c1.96-2.893 5.27-4.668 8.778-4.668 5.844 0 10.598 4.754 10.598 10.596S118.91 31.55 113.066 31.55c-3.711 0-7.2-1.986-9.104-5.181l-.037-.067a10.56 10.56 0 0 1-1.449-5.348c0-4.976-1.816-9.773-5.114-13.513a21 21 0 0 0-1.434-1.462A20.33 20.33 0 0 0 82.04.517c-5.084 0-9.94 1.876-13.703 5.291a23 23 0 0 1 4.918 9.216 10.67 10.67 0 0 1 8.785-4.668Z"/></svg>