<svg xmlns="http://www.w3.org/2000/svg" width="250" height="32.043" fill="currentColor" data-name="Capa 3" viewBox="0 0 250 32.043"><path fill-rule="evenodd" d="M5.491 10.825c.181.703.889 1.066 1.608.827 5.893-1.81 11.801-3.049 17.897-3.95.699-.093 1.081-.814.824-1.538a388 388 0 0 0-1.368-3.8c-.235-.643-.87-1.065-1.52-.995-5.957.733-11.713 1.816-17.481 3.484-.751.235-1.212 1.075-1.023 1.82.422 1.658.634 2.488 1.063 4.151Zm23.891.833c-.229-.681-.85-1.136-1.463-1.056C18.593 11.789 9.511 14.09.9 17.893c-.628.297-1.005 1.085-.873 1.78.338 1.778.508 2.667.853 4.448.147.762.86 1.112 1.563.77 8.747-3.999 17.991-6.545 27.474-8.063.603-.099.91-.788.679-1.498-.478-1.473-.72-2.207-1.213-3.673Zm-.03 9.927c-.231-.727-.907-1.201-1.549-1.07-5.823 1.261-11.515 2.781-17.154 4.715-.715.262-1.118 1.015-.93 1.708.448 1.65.674 2.477 1.128 4.132.213.778 1.088 1.176 1.893.869 5.637-2.015 11.33-3.774 17.147-5.185.558-.135.833-.789.625-1.462-.458-1.486-.69-2.228-1.161-3.708Zm22.237-1.628c0-2-1.274-2.83-3.785-2.83h-2.998v5.659h2.961c2.436 0 3.823-.981 3.823-2.829ZM47.204 7.206c-.787 0-1.611.075-2.399.189v5.017h2.549c2.249 0 3.298-.943 3.298-2.565 0-1.547-1.087-2.641-3.448-2.641m10.531 13.015c0 4.414-4.422 7.357-9.444 7.357h-9.219V3.207c3.073-.453 5.397-.755 8.133-.755 5.059 0 9.107 2.377 9.107 6.527 0 2.377-1.237 3.961-3.448 4.829 3.411.981 4.872 3.056 4.872 6.413Zm13.203 2.528v-3.244h-1.087c-2.548 0-4.872.566-4.872 2.339 0 1.358.899 1.849 2.736 1.849 1.462 0 2.661-.453 3.223-.943Zm5.509-7.055v9.922c-2.024 1.547-5.284 2.377-9.707 2.377-3.935 0-7.196-1.622-7.196-5.206 0-5.395 5.209-6.715 11.393-6.904-.112-2.339-1.049-2.943-3.111-2.943-1.087 0-3.972.49-4.347.49-.9 0-1.612-.566-2.211-2.226l-.45-1.358c2.324-.868 4.61-1.471 7.083-1.471 5.397 0 8.545 2.037 8.545 7.319Zm20.635-1.547v13.43H91.46V16.146c0-1.999-1.312-3.018-3.598-3.018-.862 0-1.686.113-2.399.302v14.147h-5.659l.037-16.788c2.361-1.585 6.184-2.452 9.295-2.452 4.31 0 7.945 2.15 7.945 5.81Zm2.442 4.226c0-6.602 4.572-10.073 10.493-10.073 1.649 0 3.148.226 4.948.641-.225 1.886-1.013 3.546-1.875 4.489-.637-.189-1.686-.34-2.286-.34-3.785 0-5.322 1.962-5.322 4.942 0 3.018 1.424 4.867 4.985 4.867.975 0 2.099-.189 3.485-.679l1.013 4.527c-2.062.83-4.198 1.207-5.884 1.207-5.771 0-9.557-3.471-9.557-9.582Zm30.432-.264c0-3.094-1.499-4.905-4.123-4.905-2.549 0-4.122 1.811-4.122 4.905 0 3.244 1.537 4.942 4.122 4.942 2.624 0 4.123-1.698 4.123-4.942m-13.904 0c0-6.036 4.048-9.809 9.781-9.809 5.959 0 9.781 3.923 9.781 9.809 0 6.073-3.859 9.846-9.781 9.846-5.959 0-9.781-3.886-9.781-9.846m22.746-14.751c1.312-.981 4.16-1.811 5.658-1.811v26.031h-5.658zm22.749 14.751c0-3.094-1.499-4.905-4.123-4.905-2.549 0-4.123 1.811-4.123 4.905 0 3.244 1.537 4.942 4.123 4.942 2.624 0 4.123-1.698 4.123-4.942m-13.904 0c0-6.036 4.048-9.809 9.781-9.809 5.959 0 9.781 3.923 9.781 9.809 0 6.073-3.86 9.846-9.781 9.846-5.959 0-9.781-3.886-9.781-9.846m51.082-3.962v13.43h-5.585V16.146c0-1.999-1.274-3.018-3.523-3.018a7.7 7.7 0 0 0-2.886.566q.45 1.245.45 2.716v11.167h-5.585V16.146c0-1.999-1.274-3.018-3.523-3.018-.862 0-1.686.113-2.398.302v14.147h-5.658l.038-16.788c2.248-1.585 5.771-2.452 8.732-2.452 2.361 0 4.384.792 5.846 2.075 1.911-1.245 4.572-2.075 6.82-2.075 4.085 0 7.272 2.188 7.272 5.81m17.131 3.697c0-3.471-1.8-4.716-4.686-4.716-1.162 0-2.098.226-2.922.604v9.469c1.012.151 1.986.226 2.885.226 3.299 0 4.723-2.565 4.723-5.583m5.583-.717c0 6.866-4.048 10.827-10.643 10.827-3.224 0-6.334-.604-8.208-1.471V3.358c1.312-.981 4.198-1.811 5.66-1.811v8.941c1.611-1.396 3.56-2.15 5.321-2.15 5.585 0 7.871 3.886 7.871 8.79Zm3.187-8.261c.786-.339 1.762-.528 2.849-.528s2.023.189 2.81.528v18.712h-5.658V8.866Zm-.075-5.961c0-1.584 1.312-2.905 2.886-2.905a2.904 2.904 0 0 1 2.922 2.905c0 1.547-1.312 2.905-2.922 2.905a2.897 2.897 0 0 1-2.886-2.905m19.939 19.844v-3.244h-1.087c-2.549 0-4.873.566-4.873 2.339 0 1.358.901 1.849 2.736 1.849 1.462 0 2.661-.453 3.224-.943Zm5.51-7.055v9.922c-2.025 1.547-5.285 2.377-9.708 2.377-3.935 0-7.195-1.622-7.195-5.206 0-5.395 5.21-6.715 11.393-6.904-.113-2.339-1.049-2.943-3.111-2.943-1.087 0-3.973.49-4.347.49-.9 0-1.612-.566-2.212-2.226l-.449-1.358c2.323-.868 4.609-1.471 7.083-1.471 5.397 0 8.546 2.037 8.546 7.319"/></svg>