<svg xmlns="http://www.w3.org/2000/svg" width="250" height="94.337" fill="currentColor" data-name="Capa 4" viewBox="0 0 250 94.337"><path fill="none" d="M0 0h250v94.34H0z"/><path d="M27.211 0h11.878v61.122c0 6.994 1.783 12.424 5.341 16.275q5.346 5.786 14.718 5.784c9.372-.002 11.612-1.88 15.313-5.651q5.54-5.65 5.538-16.408C79.997 50.364 78.002 48.919 74 44.981c-4.007-3.947-9.264-5.925-15.782-5.925-5.541 0-10.337 1.601-14.385 4.792V31.89c4.837-2.661 10.078-3.988 15.707-3.988 9.318 0 17.049 3.036 23.165 9.103q9.174 9.1 9.173 24.115c0 10.544-3.197 18.719-9.568 24.512-6.389 5.807-14.412 8.705-24.093 8.705s-16.722-3.013-22.43-9.03c-5.722-6.028-8.579-14.094-8.579-24.188V0zm132.026 93.932h-23.052q-14.8-.001-21.194-4.429c-3.823-2.595-6.246-5.708-7.27-9.331-1.016-3.618-1.531-8.381-1.531-14.286V29.527h11.73v36.226c0 1.606.041 2.969.132 4.091s.399 2.549.933 4.297q.802 2.612 2.269 4.292 1.457 1.674 4.268 2.951c1.863.852 4.125 1.272 6.795 1.272h15.195V29.527h11.726v64.405Zm50.673-64.413h12.926l-16.132 28.046c2.303.873 5.105 2.303 7.772 4.706 8.719 7.865 8.686 19.601 8.629 21.997v9.653h-11.733v-9.792c0-5.994-1.755-10.619-5.263-13.888-3.514-3.262-8.508-4.895-14.995-4.895q-3.06 0-6.269.402V93.92h-11.719V0h11.719v55.156a38.9 38.9 0 0 1 11.2 0l13.863-25.636h.002ZM12.903 50.427c0 3.584-2.893 6.49-6.446 6.49S0 54.011 0 50.427s2.893-6.49 6.457-6.49 6.446 2.906 6.446 6.49m237.097 0c0 3.584-2.885 6.49-6.453 6.49s-6.445-2.906-6.445-6.49 2.89-6.49 6.445-6.49S250 46.843 250 50.427"/></svg>