<svg xmlns="http://www.w3.org/2000/svg" width="160" height="108.943" viewBox="0 0 160 108.943" fill="currentColor"><path d="M129.37 93.061c-11.686.089-23.373.055-35.059.069-7.395.007-14.797.014-22.192.014-1.243 0-2.403.268-3.481.879-3.055 1.73-4.58 5.541-3.673 9.084.838 3.261 3.653 5.871 7.498 5.836 9.427-.089 18.855-.034 28.275-.034v-.014c9.626 0 19.253.014 28.873-.027.954 0 1.971-.172 2.85-.542 2.801-1.181 4.257-3.447 4.607-6.399.542-4.628-2.774-8.906-7.697-8.864Zm-57.168 12.146c0 .323-.076.46-.419.439a11 11 0 0 0-1.305 0c-.343.021-.426-.124-.426-.439.014-1.373.007-2.746.007-4.12 0-1.325.014-2.643-.007-3.962 0-.364.089-.529.488-.501a10 10 0 0 0 1.188 0c.343-.014.481.082.481.453q-.02 4.059-.007 8.13m7.553.419c-.268.041-.542.014-.81.014q-.776 0-.858-.79c-1.167 1.057-2.492 1.263-3.66.591-1.25-.728-1.428-2.692-.213-3.481.618-.405 1.421-.556 2.163-.742.433-.11.899-.103 1.353-.089.412.007.405-.185.295-.474-.213-.549-.81-.906-1.517-.762-.439.089-.865.33-1.25.577-.233.151-.35.185-.522-.034-.11-.137-.247-.261-.371-.391-.57-.597-.577-.611.165-1.044 1.188-.693 2.465-.803 3.77-.446 1.064.288 1.586 1.119 1.662 2.129.124 1.545.103 3.104.117 4.655 0 .096-.199.261-.323.288Zm9.935.014a10 10 0 0 0-1.25 0c-.378.027-.501-.103-.494-.481a93 93 0 0 0-.014-3.694c-.027-.872-.522-1.277-1.339-1.154-.426.062-.755.282-.865.707a4.8 4.8 0 0 0-.172 1.119c-.021 1.03-.014 2.06-.007 3.09.007.295-.062.433-.385.412-.474-.021-.941.014-1.414-.021-.11-.007-.302-.185-.302-.295-.027-2.129-.027-4.264-.041-6.399 0-.302.117-.426.419-.412.254.014.508.007.762.007q.845 0 .92.92c.783-1.03 1.751-1.222 2.863-.989.79.172 1.277.659 1.504 1.401.117.398.199.817.213 1.222.027 1.373.007 2.753.021 4.127.007.316-.076.46-.419.439Zm8.645-.536c.007.433-.13.584-.549.536-.213-.027-.433-.007-.652-.007q-.824 0-.893-.941c-.707.996-1.614 1.215-2.65 1.057-.893-.13-1.497-.618-1.737-1.49a6 6 0 0 1-.213-1.387c-.027-1.298 0-2.602-.021-3.9-.007-.357.096-.487.453-.467.542.034 1.27-.158 1.566.117.281.261.124 1.009.137 1.545.021.81-.007 1.62.021 2.438.021.803.398 1.243 1.037 1.284.68.034 1.195-.35 1.27-1.133.096-.968.062-1.943.076-2.918.007-.33-.027-.659.021-.975.021-.13.213-.233.33-.35.014-.007.041 0 .055 0 .556.021 1.277-.165 1.62.117.275.227.124 1.002.124 1.538.007 1.648-.014 3.289.007 4.937Zm7.972-2.355c-.707-.007-1.414 0-2.115 0v.021c-.673 0-1.339.014-2.012-.007-.412-.014-.412.144-.268.453.494 1.03 1.847 1.25 2.685.385.268-.275.433-.288.693-.041.185.172.405.302.604.46q.563.419.048.858c-1.62 1.394-4.243 1.167-5.548-.474-1.277-1.614-.954-4.092.693-5.314 1.772-1.325 4.353-.893 5.177.954.323.714.323 1.572.453 2.362.048.316-.172.343-.412.343Zm6.084 2.595c-.632.261-1.339.371-2.012.549-.893-.117-1.71-.268-2.438-.783-.268-.199-.309-.343-.055-.59.288-.275.536-.59.783-.899.179-.213.302-.233.501-.014.446.474 1.03.618 1.641.481.213-.048.385-.302.577-.467-.158-.172-.281-.426-.474-.508-.378-.151-.796-.22-1.202-.316-1.305-.302-1.909-.948-1.909-2.06 0-1.14.714-1.998 1.936-2.266 1.071-.24 2.115-.158 3.083.419.357.213.529.433.103.755a1.3 1.3 0 0 0-.309.302c-.343.46-.666.7-1.243.227-.22-.178-.68-.117-1.023-.076-.151.021-.357.288-.364.446s.178.385.336.467c.288.137.618.192.927.275.295.082.597.151.886.247.831.281 1.346.831 1.408 1.73.055.927-.268 1.703-1.154 2.08Zm7.01-.941c-.007.048 0 .11 0 .158 0 1.16.007 1.16-1.147 1.202a6 6 0 0 1-.975-.027c-1.202-.13-1.854-.831-1.902-2.026-.021-.488-.007-.982-.007-1.469h-.007c0-.501-.021-1.009.007-1.517.021-.385-.137-.494-.508-.494-.865.007-.865-.014-.872-.886 0-.151.014-.295 0-.439-.034-.295.082-.398.391-.412.975-.021.975-.034.989-1.016q.014-1.057 1.051-1.057 1.057 0 1.057 1.044t1.03 1.03q.893 0 .893.886c0 .11-.014.22 0 .323.069.433-.124.549-.542.549-1.366 0-1.366.014-1.38 1.387 0 .343-.007.687 0 1.03.027 1.078.35 1.394 1.401 1.229.508-.076.584.089.522.508Zm5.905-4.175c-.062.13-.611 0-.934.014-1.112.027-1.662.549-1.71 1.668-.048 1.085-.055 2.17-.048 3.255.007.364-.103.488-.46.46a7 7 0 0 0-1.14 0c-.446.041-.536-.158-.536-.563a352 352 0 0 0 0-6.077c-.007-.364.082-.542.474-.494.165.021.33 0 .488 0q1.051 0 1.263 1.037c.494-.858 1.202-1.25 2.163-1.188.35.021.549.11.501.501-.014.11 0 .22 0 .33-.007.357.082.769-.062 1.057Zm7.031 5.363c-.288.041-.577.021-.865.021q-.755 0-.845-.824c-.886.968-1.923 1.154-3.069.858-.975-.247-1.565-.989-1.614-1.936-.055-.968.398-1.84 1.346-2.129.906-.275 1.875-.33 2.808-.488l.515-.082c-.055-.206-.062-.433-.165-.604-.398-.652-1.428-.79-2.245-.302-.24.151-.529.522-.68.467-.288-.11-.501-.439-.742-.687-.433-.453-.439-.467.11-.817 1.229-.79 2.575-.92 3.955-.549 1.057.281 1.586 1.119 1.655 2.135.117 1.545.096 3.104.117 4.655 0 .096-.172.268-.281.281ZM57.37 47.05c0 .556-.089 1.112-.089 1.675-.007 5.445 0 10.883 0 16.328h.021c0 5.733-.007 11.467 0 17.2 0 .254-.034.549.082.742.137.227.426.508.652.515 1.387.041 2.788.021 4.175.014.46 0 .693-.288.755-.707.041-.227.027-.467.027-.7-.007-10.615-.014-21.237-.014-31.853 0-1.277-.185-1.181 1.195-1.188q.728-.007.728.714l.021 12.098c.021 6.804.048 13.602.076 20.406 0 .954.275 1.229 1.215 1.236q1.554.002 3.097-.007c.721-.007 1.057-.309 1.133-1.023.027-.254.021-.508.021-.762-.007-10.471-.007-20.942-.014-31.413 0-1.325-.13-1.243 1.332-1.277.357-.007.542.172.563.522.014.199.014.398.014.597.014 8.555.034 17.111.048 25.666 0 2.129 0 4.264.014 6.399.014 1.009.309 1.291 1.311 1.291h3.09c1.009 0 1.332-.309 1.332-1.325-.007-11.11-.007-22.212-.027-33.322 0-1.27-.227-2.506-.893-3.639-.13-.233.076-.652.124-.989.247.151.632.247.714.46.185.488.233 1.037.336 1.565.021.117.055.233.076.35.13-.048.281-.069.378-.151.481-.391.783-.899.817-1.531.076-1.291-.92-2.698-2.341-3.028-2.314-.529-4.648-.508-6.722.776-.851.529-1.648.693-2.575.645a.3.3 0 0 0-.11 0c-.906.048-1.799.076-2.499-.659-.062-.062-.158-.089-.24-.13-2.026-1.044-4.175-1.085-6.344-.673-1.03.192-1.778.879-2.259 1.806-.536 1.037-.302 2.06.563 2.843.13.117.22.35.22.529Zm1.208-2.767c-.33.542-.659 1.099-.996 1.648.096-1.119.336-1.511.996-1.648m36.089 13.053c-.515-3.57-1.428-7.017-3.241-10.162-.968-1.682-2.101-3.213-3.914-4.099-.13-.069-.22-.35-.22-.536a203 203 0 0 1-.007-4.992c.007-.46-.103-.584-.597-.611-.693-.034-1.435-.13-2.032-.439-.838-.433-1.579-1.064-2.328-1.655-.343-.275-.618-.632-1.037-1.071v.707l.103 46.169c0 .378.021.762.103 1.133.179.865.707 1.36 1.572 1.38q1.678.041 3.358-.062c1.133-.076 2.122-.577 3.007-1.263 1.243-.968 2.115-2.218 2.808-3.612 1.641-3.289 2.293-6.832 2.63-10.45.323-3.481.295-6.969-.206-10.437Zm-6.454 17.227c-.199.714-.577 1.373-.872 2.06-.076-.027-.151-.048-.22-.076V52.309c.275.364.501.604.652.879.748 1.366 1.112 2.863 1.387 4.374 1.03 5.74.652 11.412-.948 17.001Zm35.429-28.63a6.8 6.8 0 0 0-.514 2.519c-.044 5.534-.023 11.068-.023 16.602h.027v11.394c0 1.845 0 3.689.015 5.534.009 1.127.264 1.377 1.376 1.387.941.008 1.882.004 2.822.003 1.264-.001 1.526-.263 1.526-1.525l-.009-31.794c0-.199-.008-.399.008-.597.028-.356.205-.57.589-.562.181.004.362-.002.543-.001.802.002.81.008.81.829q.003 5.398.005 10.797.006 10.689.017 21.377c.001 1.16.285 1.456 1.434 1.467a90 90 0 0 0 2.985-.027c1.133-.027 1.321-.223 1.32-1.353-.003-10.924-.004-21.847-.022-32.771a15 15 0 0 0-.204-2.426c-.366-2.242-1.507-3.403-3.757-3.582-1.707-.136-3.438-.113-5.149-.006-1.784.112-3.112 1.089-3.801 2.735Zm18.402 33.738c1.27 1.778 2.822 3.275 5.06 3.646 1.339.227 2.733.158 4.106.158 1.579.007 2.28-.714 2.28-2.307.007-5.603 0-11.206 0-16.815h-.014c0-2.877.007-5.747 0-8.624-.007-2.801.021-5.61-.069-8.411-.076-2.19-1.559-3.783-3.742-3.941-2.135-.151-4.298-.11-6.447-.082-.961.014-1.538.57-1.607 1.517-.076.989-.076 1.991.007 2.973.076.948.439 1.215 1.38 1.222 1.181.007 2.355 0 3.529 0 .639.007.927.281.961.92.055 1.085.007 2.129-1.14 2.719-.158.076-.275.233-.405.357-5.273 5.17-7.697 11.398-6.866 18.779.323 2.856 1.284 5.527 2.966 7.889Zm5.671-19.637v16.822c-1.82-2.039-2.643-4.484-2.973-7.113-.46-3.667 1.119-6.729 2.973-9.709m-41.98 11.288c.302 3.069 1.339 5.912 3.207 8.404 1.263 1.675 2.788 3.083 4.93 3.371 1.566.206 3.179.11 4.765.055.666-.021 1.174-.474 1.366-1.154.103-.378.151-.776.151-1.167.014-5.575.007-11.144.007-16.712h-.007c0-3.467.007-6.942-.007-10.416 0-2.204.027-4.408-.069-6.612-.096-2.225-1.511-3.776-3.728-3.948-2.156-.165-4.333-.117-6.502-.089-.906.014-1.504.591-1.572 1.497-.076.989-.076 1.991.007 2.973.069.954.467 1.243 1.428 1.257 1.154.007 2.314-.007 3.474 0 .666.007.954.281.975.948.007.378-.062.762-.034 1.14.041.467-.185.748-.522 1.044-5.898 5.136-8.651 11.576-7.869 19.411Zm8.638-11.528v16.815c-1.806-2.032-2.63-4.477-2.959-7.113-.453-3.653 1.119-6.715 2.959-9.702M83.368 28.708c1.031.361 2.022-.195 2.263-1.258.137-.605-.008-1.274-.031-1.914-.008-.236-.03-.472-.046-.708.215.073.449.115.643.225.74.419 1.52.666 2.377.633.755-.029 1.336-.439 1.509-1.171.101-.427.12-.9.054-1.333-.072-.474-.295-.924-.431-1.391-.036-.125.006-.273.011-.41.119.02.249.017.356.064.43.188.851.399 1.281.586.854.372 1.726.645 2.68.5.667-.102 1.06-.42 1.174-1.087.059-.344.061-.733-.04-1.062-.162-.53-.429-1.028-.653-1.54q-.191-.433-.384-.864c.318.079.64.144.952.242.292.092.568.233.859.33 1.086.362 2.183.684 3.343.396.98-.244 1.472-.972 1.142-1.91-.257-.73-.643-1.467-1.147-2.049-1.147-1.325-2.584-2.314-4.167-3.064-.872-.414-1.785-.741-2.679-1.107l-.074.157c.13.256.275.507.387.771.387.907.093 1.82-.794 2.246a3.1 3.1 0 0 1-1.303.276c-.694 0-1.389-.113-2.108-.181.195.575.433 1.124.565 1.697.332 1.447-.597 2.433-2.065 2.195-.558-.09-1.098-.288-1.6-.424.154.606.37 1.222.457 1.855.15 1.103-.517 1.818-1.622 1.808a3.3 3.3 0 0 1-.801-.112c-.392-.104-.774-.247-1.161-.374-.085.405-.153.815-.257 1.215-.251.968-.825 1.383-1.817 1.332-.869-.045-1.537-.502-2.122-1.086-1.071-1.069-1.911-2.308-2.585-3.66-.269-.54-.525-1.087-.822-1.704-.201.822-.35 1.622-1.179 1.91-.849.294-1.43-.38-2.114-.76-.062.266-.103.495-.17.716-.376 1.258-1.585 1.572-2.523.654a4.3 4.3 0 0 1-.565-.655c-.182-.268-.29-.228-.468.005-.218.286-.453.57-.727.8-.824.693-1.899.406-2.288-.601-.113-.292-.175-.604-.262-.914-2.11 1.624-2.884.613-3.277-1.118-.068.127-.122.213-.162.304-.735 1.682-1.629 3.267-2.856 4.646-.559.628-1.181 1.179-2.017 1.407-1.153.314-1.961-.108-2.283-1.203-.121-.411-.187-.838-.278-1.258-.424.137-.841.3-1.272.406-1.663.409-2.633-.548-2.247-2.221.107-.465.275-.915.432-1.429-.31.115-.57.226-.84.308-.87.267-1.752.46-2.483-.294-.723-.746-.479-1.598-.176-2.437.118-.326.242-.65.387-1.042-.342.063-.586.136-.833.149-.646.035-1.301.118-1.939.049-1.34-.144-1.991-1.394-1.413-2.607.106-.222.227-.437.382-.733-.287.069-.498.102-.697.17-2.343.804-4.463 1.994-6.157 3.818a6.2 6.2 0 0 0-1.218 2.01c-.431 1.159.234 2.08 1.47 2.128a7.5 7.5 0 0 0 2.035-.186c.802-.195 1.565-.546 2.349-.817.125-.043.273-.022.41-.031-.031.132-.039.274-.096.394-.306.651-.704 1.27-.921 1.948-.459 1.433.289 2.339 1.792 2.27.126-.006.258-.011.374-.054.93-.339 1.854-.69 2.785-1.027.159-.058.337-.066.506-.097-.018.167-.022.338-.056.502-.145.7-.416 1.397-.422 2.098-.01 1.127.879 1.861 1.99 1.663.731-.13 1.424-.47 2.136-.711.165-.056.336-.092.504-.137.002.175.02.353.002.526-.058.552-.208 1.107-.181 1.653.063 1.267 1.114 2.028 2.342 1.722.485-.121.979-.299 1.401-.561a55 55 0 0 0 3.11-2.074c1.074-.77 2.218-1.329 3.525-1.588 2.842-.563 5.702.934 6.795 3.616.222.545.388 1.112.617 1.776.164-.495.298-.898.43-1.302.684-2.094 2.141-3.436 4.215-4.009 2.029-.561 3.94-.045 5.68 1.087.848.552 1.629 1.211 2.495 1.729.83.496 1.701.962 2.61 1.28ZM26.369 48.876c-.556-1.696-1.257-3.323-2.513-4.635-1.744-1.826-4.079-1.82-5.829 0a7 7 0 0 0-.79.961c-1.057 1.538-1.689 3.268-2.177 5.054-1.064 3.955-1.476 7.992-1.524 12.071-.055 4.765.151 9.51 1.318 14.158.494 1.95 1.147 3.845 2.458 5.438 2.087 2.513 5.266 2.486 7.306-.062 1.188-1.49 1.82-3.234 2.3-5.047 1.126-4.278 1.339-8.665 1.435-13.732-.055-1.064-.11-2.801-.227-4.532-.233-3.289-.721-6.537-1.758-9.675ZM22.442 68.06c-.11 2.685-.261 5.376-.858 8.013-.048.213-.076.439-.185.618-.096.165-.295.364-.446.371-.151 0-.398-.213-.433-.371-.24-1.002-.487-2.005-.632-3.014-.467-3.447-.584-6.914-.57-10.382.007-3.708.11-7.409.673-11.075a14.5 14.5 0 0 1 .419-1.957c.069-.233.288-.542.494-.59.371-.089.529.261.577.577.254 1.675.59 3.344.735 5.026.371 4.257.405 8.521.227 12.785ZM52.66 49.507c-.556-1.826-1.236-3.598-2.513-5.06-1.826-2.101-4.333-2.129-6.2-.055-1.339 1.49-2.039 3.316-2.602 5.191-1.057 3.502-1.49 7.1-1.655 10.746-.22 4.903-.041 9.791.906 14.625.419 2.156 1.016 4.257 2.204 6.138.755 1.188 1.717 2.156 3.138 2.527 1.923.494 3.708-.268 5.012-2.094 1.009-1.421 1.6-3.028 2.039-4.697 1.071-4.03 1.325-8.157 1.442-12.902-.041-1.119-.055-2.836-.158-4.545-.199-3.344-.639-6.66-1.614-9.874Zm-4.154 19.026c-.124 2.561-.275 5.122-.858 7.635-.034.137-.041.309-.124.412-.137.185-.323.453-.494.46-.158.007-.433-.275-.467-.46-.268-1.311-.591-2.616-.707-3.941-.247-2.863-.378-5.733-.488-7.395.041-5.095.117-8.981.673-12.833.11-.748.261-1.497.453-2.225.062-.213.323-.371.494-.549.192.179.508.336.542.549.288 1.579.597 3.158.742 4.751.412 4.525.446 9.063.233 13.595Zm4.826-38.121c-.824.454-1.714.661-2.664.564-1.176-.12-1.98-.914-2.032-2.084-.025-.556.017-1.119.079-1.673.071-.63.086-.606-.504-.445-.777.212-1.568.463-2.363.504-1.286.067-1.987-.765-1.801-2.039.105-.721.323-1.425.504-2.192-.242.099-.448.205-.666.27-.983.292-1.953.695-2.958.833-2.044.281-2.897-.852-2.199-2.777.161-.444.342-.881.535-1.376-.185.031-.289.049-.393.065-1.051.164-2.099.445-3.153.467-2.158.045-3.066-1.278-2.386-3.307.07-.209.13-.422.2-.65-.649.206-1.223.442-1.82.561a9 9 0 0 1-1.827.168c-2.208-.02-3.422-1.637-2.825-3.756.174-.618.444-1.21.708-1.915-.309.159-.538.264-.754.39-3.441 2.003-6.8 4.133-9.887 6.654a133 133 0 0 0-5.942 5.146 8.1 8.1 0 0 0-1.762 2.368c-.702 1.45.135 2.675 1.739 2.598.884-.042 1.841-.179 2.618-.568 3.292-1.652 6.529-3.415 9.787-5.135.208-.11.429-.193.645-.288l.087.136c-.207.218-.407.442-.621.653-.833.818-1.598 1.681-1.911 2.844-.346 1.286.315 2.25 1.639 2.365a5 5 0 0 0 1.188-.041c1.517-.241 2.904-.844 4.256-1.552 1.007-.527 2.032-1.021 3.056-1.515.182-.088.398-.106.599-.156-.185.468-.476.811-.7 1.194-.471.804-1.032 1.586-1.33 2.454-.528 1.542.352 2.596 1.989 2.553q.244-.007.484-.055c1.765-.339 3.372-1.052 4.863-2.045q.646-.427 1.295-.85l.126.088c-.084.304-.199.603-.248.913-.163 1.028-.42 2.059-.423 3.089-.004 1.267 1.08 2.032 2.319 1.75.502-.114 1.04-.291 1.436-.6 1.078-.841 2.091-1.766 3.125-2.664.163-.141.289-.324.45-.469.073-.066.243-.143.274-.113.08.075.135.203.148.316.014.121-.029.249-.051.373-.153.866-.188 1.722.174 2.555.445 1.025 1.208 1.566 2.303 1.408.715-.103 1.462-.327 2.082-.69 2.231-1.305 3.603-3.394 4.85-5.576.012-.021-.012-.063-.027-.126-.774.465-1.527.947-2.309 1.378Zm54.164-13.498a3.9 3.9 0 0 1-2.487.322c-.892-.171-1.769-.425-2.647-.642.117.448.267.944.374 1.45.177.833-.099 1.488-.819 1.957-.667.435-1.411.58-2.178.486-1.034-.126-2.059-.325-3.097-.494.239.698.53 1.363.692 2.058.257 1.103-.218 1.787-1.319 2.02-.994.211-1.94-.026-2.869-.349-.604-.21-1.199-.448-1.865-.698.177.614.352 1.14.48 1.677.429 1.796-.59 2.868-2.412 2.543a8 8 0 0 1-.997-.252c-.411-.127-.815-.278-1.232-.422.054.729.156 1.426.146 2.121-.018 1.343-.912 2.238-2.259 2.273-.48.012-1.014.005-1.434-.188-1.044-.48-2.036-1.073-3.049-1.62-.113-.061-.227-.119-.466-.243 1.141 2.015 2.35 3.784 4.041 5.169.791.648 1.686 1.116 2.707 1.307 1.235.231 2.163-.276 2.658-1.434.327-.765.275-1.55.189-2.347-.031-.288.014-.584.024-.876.233.176.5.32.693.532 1.055 1.154 2.178 2.228 3.579 2.952.865.447 1.782.695 2.662.04.844-.628.855-1.56.714-2.468-.133-.851-.388-1.683-.583-2.525-.031-.133-.027-.275-.04-.412.145.039.31.046.433.122.662.406 1.296.862 1.973 1.24 1.349.753 2.767 1.355 4.332 1.448 1.585.094 2.4-.992 2.002-2.518-.304-1.162-1.029-2.055-1.736-2.97-.15-.195-.258-.423-.385-.636l.121-.108c.514.21 1.042.392 1.54.635 1.315.641 2.598 1.349 3.93 1.95 1.056.477 2.177.795 3.362.721 1.598-.1 2.254-1.071 1.758-2.596-.359-1.104-1.128-1.918-1.932-2.708-.191-.187-.359-.397-.538-.596l.123-.143c.513.281 1.021.571 1.54.843 2.992 1.566 5.961 3.18 8.998 4.654.822.399 1.853.488 2.789.497 1.251.011 1.925-.943 1.572-2.142a4.8 4.8 0 0 0-.935-1.74c-.763-.888-1.609-1.712-2.48-2.497a80.4 80.4 0 0 0-14.596-10.479c-.126-.07-.265-.117-.496-.218.214.517.403.906.537 1.313.135.41.25.832.315 1.258a2.57 2.57 0 0 1-1.431 2.735ZM5.405 88.265c2.415 3.312 5.707 4.891 9.779 4.909.719.003.929-.185 1.034-.897.034-.231.048-.468.049-.702.004-1.031 0-2.062 0-3.093 0-.929-.331-1.274-1.253-1.321-1.165-.059-2.297-.244-3.341-.815-1.533-.838-2.496-2.167-3.213-3.704-1.294-2.774-1.833-5.748-2.136-8.754a150 150 0 0 1-.598-8.761c-.215-5.14-.068-10.269.917-15.34.495-2.549 1.216-5.029 2.605-7.257 1.456-2.335 3.423-3.853 6.32-3.816.462.006.645-.239.643-.679-.007-1.194 0-2.387-.008-3.581-.004-.667-.132-.788-.797-.798-4.492-.062-8.01 1.769-10.553 5.458-1.966 2.852-2.984 6.082-3.679 9.431C.246 53.01.034 57.538 0 62.697c.047 1.246.102 3.108.189 4.968.195 4.16.638 8.289 1.648 12.339.735 2.946 1.757 5.778 3.568 8.261m26.484-5.05q2.008-.019 4.016-.015c.469 0 .695-.267.771-.681.042-.228.026-.468.025-.703l-.037-43.346c-.002-1.826-.009-3.653-.002-5.479.002-.446-.084-.515-.518-.295-.672.34-1.379.647-2.106.833-1.028.264-2.08.358-3.108-.508v.827q.006 23.979.018 47.958c0 .25.024.507.081.75.104.441.388.665.86.661ZM31.08 14.71c1.453.04 2.714-.512 3.955-1.163 3.269-1.713 6.681-3.099 10.136-4.384.321-.119.689-.112 1.035-.164-.124.29-.23.59-.376.869-.626 1.197-.073 2.292 1.28 2.431.644.066 1.299.014 1.949.024.211.003.421.035.631.053-.072.212-.121.436-.22.634-.2.402-.484.771-.631 1.189-.38 1.084.183 1.92 1.327 2.011.431.034.868.022 1.301.008.386-.013.485.146.367.498-.126.376-.266.751-.347 1.138-.142.678.053 1.038.648 1.396.664.4 1.296.125 1.93-.069.659-.202.776-.11.699.585-.076.691-.067 1.382.619 1.772.691.393 1.24-.047 1.764-.445 1.736-1.317 2.754-3.124 3.487-5.123.053-.144.059-.304.079-.412-.738.317-1.437.698-2.183.917-.892.262-1.667-.035-2.255-.787-.699-.892-.721-1.908-.524-2.943.175-.921.435-1.825.635-2.741.691-3.158-1.335-6.323-4.489-7.06-1.305-.305-2.599-.118-3.877.088-3.347.539-6.566 1.544-9.707 2.81-2.826 1.139-5.548 2.475-7.95 4.372-.468.369-.88.874-1.161 1.401-.858 1.609.054 3.044 1.877 3.095Zm44.195 1.426c.483.968.93 1.959 1.494 2.879.62 1.011 1.479 1.827 2.505 2.437.859.511 1.708.082 1.819-.91.038-.338.004-.686-.008-1.029-.014-.389.131-.53.528-.409.413.125.833.25 1.26.306.962.125 1.658-.601 1.494-1.546-.061-.353-.184-.696-.289-1.04-.158-.521-.101-.596.432-.612.486-.015.979-.01 1.457-.089.865-.142 1.345-.805 1.121-1.647-.139-.526-.473-1-.713-1.5-.091-.189-.165-.387-.246-.581.203-.029.406-.069.61-.085.859-.067 1.744-.02 2.57-.22.895-.216 1.215-1.099.851-1.944-.128-.297-.322-.564-.462-.857-.048-.1-.02-.236-.026-.356.101-.001.207-.024.301.001.365.1.734.194 1.088.328 3.602 1.359 7.151 2.839 10.562 4.635 1.098.578 2.267.837 3.507.723 1.393-.127 2.131-1.247 1.725-2.592-.281-.93-.903-1.599-1.678-2.13C99.366 5.92 92.926 3.611 85.954 2.8c-2.461-.286-4.434.743-5.743 2.847-.952 1.53-1.069 3.218-.623 4.967.262 1.028.561 2.077.603 3.126.091 2.282-1.773 3.419-3.815 2.412-.401-.198-.778-.445-1.292-.742.082.32.101.542.193.727Zm23.573 35.16c-1.141.003-1.474.34-1.474 1.499V67.28h.004v1.628q.006 6.537.016 13.075c.002.949.372 1.318 1.312 1.322.995.004 1.99 0 2.985-.001 1.238 0 1.534-.288 1.534-1.537-.002-4.919-.011-9.838-.016-14.757l-.01-14.16c-.001-1.242-.324-1.559-1.582-1.559q-1.384 0-2.768.006ZM61.091 13.015c.783-.04.952.127 1 .93.04.663.06 1.34.214 1.98.2.832.931 1.061 1.64.568.233-.162.42-.393.618-.603.285-.302.502-.232.661.115.083.179.122.378.202.559.218.495.772.816 1.233.606.298-.136.502-.478.747-.729q.269-.277.536-.554c.164.176.335.346.49.53.08.096.126.219.197.324.31.456.714.582 1.226.397.448-.162.592-.538.716-.949.175-.582.413-.632.814-.199.135.145.262.304.418.423.79.604 1.568.348 1.803-.618.11-.452.145-.926.174-1.393.04-.63.044-.637.67-.455.216.063.449.066.674.096-.092-.201-.151-.427-.283-.598-1.802-2.334-2.455-4.988-2.239-7.893.027-.366.093-.717.489-.818.799-.203 1.598-.466 2.445-.227.098.028.3-.029.332-.1.362-.804-.279-1.833-1.152-1.878-.307-.016-.615-.026-.92-.059-.998-.107-1.86.127-2.66.789-1.158.958-1.3.897-2.088-.41-.307-.508-.269-.59.345-.623.92-.049 1.842-.068 2.762-.125.195-.012.488-.088.547-.22.065-.142-.052-.409-.157-.579-.368-.596-.925-.92-1.623-.925-.83-.005-1.662.02-2.492.067-.865.05-1.735.242-2.59.184C65.207.585 64.594.241 63.882 0c.106.616.196 1.232.322 1.84.132.637.047 1.218-.335 1.752-.252.353-.515.701-.728 1.077-.07.123-.069.391.016.479.367.378.317.742.041 1.118-.214.291-.46.558-.677.847-.447.597-.733 1.256-.8 2.037.204-.041.344-.088.485-.093.187-.007.375.017.563.028-.044.196-.035.431-.143.581-.305.424-.655.817-.994 1.216-.459.541-.739 1.156-.763 1.869-.003.09.149.268.222.264m-1.197 22.356c.352-.286.603-.281.94.011.909.787 1.66.742 2.481-.128.246-.26.444-.302.726-.034.675.642 1.185.567 1.625-.262.626-1.182.938-2.455.982-3.792 0-.108.003-.217 0-.325-.077-2.174-1.487-4.073-3.522-4.744-1.817-.599-4.019.11-5.297 1.707-1.529 1.91-1.417 5.592.226 7.441.489.55 1.226.625 1.839.126m11.875-.093c.324-.33.546-.305.84.029.687.782 1.591.827 2.372.123.341-.307.613-.41 1.025-.066.654.547 1.462.438 1.914-.279 1.151-1.823 1.628-3.783.887-5.885-.935-2.654-3.919-4.015-6.43-2.975-1.94.803-3.121 2.645-3.139 5.321.043.983.35 2.33 1.073 3.551.402.68.914.735 1.456.182Zm-2.811 52.995c.849.053 1.574-.138 2.147-.786.239-.269.462-.281.721-.018.64.65 1.425.845 2.325.801.992-.049 1.989-.005 2.983-.014.9-.008 1.532-.451 1.755-1.318.128-.497.124-1.029.175-1.509-.647.167-1.205.408-1.775.439-1.208.065-2.422.019-3.634.021-.673 0-1.289-.176-1.805-.619-.201-.172-.346-.186-.55.002-.535.493-1.185.641-1.903.624a72 72 0 0 0-3.146.002c-.659.014-1.259-.142-1.783-.529-.235-.174-.377-.107-.619.002-.496.223-1.027.458-1.558.498-1.025.077-2.06.025-3.091.023-.932-.002-1.888.114-2.69-.619 0 .548-.049 1.003.01 1.443.149 1.112.655 1.538 1.775 1.545 1.157.008 2.316-.028 3.472.011.746.025 1.403-.11 1.921-.674.273-.297.514-.242.783.004.579.53 1.262.716 2.046.672a21 21 0 0 1 2.44-.002Zm68.202-2.98c-.502.178-1.032.352-1.557.377-1.19.056-2.388.076-3.575-.005-.566-.038-1.14-.286-1.661-.541-.288-.141-.431-.121-.704.012-.49.24-1.023.485-1.555.527-1.06.085-2.13.02-3.196.044-.9.02-1.77-.034-2.529-.741 0 .539-.04.987.008 1.425.122 1.11.75 1.659 1.879 1.672 1.048.012 2.097-.024 3.144.012.817.028 1.545-.134 2.131-.73.265-.269.466-.241.781-.025.434.298.93.66 1.419.693 1.367.092 2.745.058 4.117.016.834-.025 1.406-.53 1.538-1.276.072-.406.065-.826.094-1.24.02-.276-.04-.327-.335-.222Zm-28.29-.51c1.325 1.549 2.896 2.795 4.973 3.043 1.517.181 3.067.131 4.601.101 1.739-.034 2.892-1.59 2.532-3.389-.773.737-1.693 1.044-2.72 1.046-1.176.002-2.352.013-3.527-.017a7 7 0 0 1-1.446-.194c-2.531-.617-4.374-2.215-5.769-4.313-.873-1.314-1.55-2.759-2.305-4.151.653 2.888 1.71 5.593 3.661 7.875Zm-3.734-8.012.073.137v-.004c-.014-.061.005-.129-.072-.133Zm-89.251 18.68c-.659.063-1.333.043-1.996-.008-2.785-.214-5.271-1.185-7.402-3.01-2.227-1.907-3.662-4.352-4.746-7.031-.238-.588-.458-1.184-.686-1.777-.064.091-.072.164-.055.231.668 2.577 1.513 5.086 2.873 7.394 2.512 4.262 6.201 6.553 11.184 6.662 1.28.028 1.927-.552 2.053-1.804.036-.354.005-.714.005-1.063-.422.146-.818.366-1.231.406Zm83.927-53.159c-1.325.021-2.335.794-2.74 2.138-.129.429-.173.883-.236 1.221.043.382.062.653.106.92.25 1.529 1.262 2.519 2.677 2.627 1.426.109 2.575-.702 3.065-2.165.304-.908.279-1.812-.042-2.71-.471-1.315-1.502-2.053-2.829-2.032Zm51.808 43.541a67 67 0 0 1-3.847-.04c-1.365-.059-2.604-.546-3.744-1.287-1.983-1.288-3.355-3.1-4.409-5.176-.379-.746-.698-1.523-1.065-2.333-.008.106-.025.162-.014.211.574 2.58 1.502 5.01 3.104 7.141 1.288 1.713 2.841 3.109 4.98 3.623 1.847.443 3.747.33 5.608.123 1.506-.167 2.461-1.848 2.042-3.322-.735.755-1.654 1.046-2.655 1.06m-64.492-.248c-1.38.208-2.808.137-4.214.123-.864-.009-1.596-.417-2.196-1.044-.04-.041-.099-.064-.213-.134.027.472.023.87.078 1.26.182 1.31.98 2.167 2.296 2.276 1.111.091 2.238.045 3.355-.003 1.359-.058 2.556-.595 3.628-1.414 1.38-1.055 2.348-2.44 3.122-3.971.733-1.449 1.263-2.973 1.634-4.409-.599 1.072-1.185 2.298-1.932 3.417-1.336 2.002-3.103 3.529-5.557 3.899ZM56.457 36.983c.117.808.28 1.609.867 2.236.564.603 1.411.875 1.947.514.555-.374.85-.163 1.222.248.741.819 1.592.969 2.415.397.339-.236.586-.623.829-.973.328-.47.409-.494.805-.086.529.544 1.2.625 1.794.156.276-.218.54-.503.695-.815.484-.974.461-2.003.267-2.946-.516.462-.971 1.046-1.569 1.357-.726.378-1.378-.114-1.959-.605-.411.699-.806 1.41-1.749 1.342-.913-.065-1.287-.814-1.722-1.499-.591.719-1.201 1.396-2.2 1.152-.907-.222-1.241-1.083-1.683-1.804-.014.464-.018.9.044 1.326Zm12.358-1.39-.189.047c0 .644-.051 1.294.013 1.932.077.755.383 1.429 1.024 1.9.576.423 1.263.394 1.722-.073.529-.539.547-.537.951.133q.085.139.171.277c.511.854 2.071 1.313 2.937.262.103-.125.232-.229.335-.355.203-.247.406-.279.705-.122.906.475 1.863.215 2.429-.668.639-.995.681-2.124.708-3.342-1.591 2.397-2.215 2.507-3.926.742-.06.093-.114.183-.174.27-.144.207-.274.428-.44.616-.83.94-1.903.78-2.623-.375-.1-.161-.108-.482-.473-.191-1.077.859-2.088.661-2.825-.501q-.173-.275-.343-.552ZM45.66 85.931c-1.959-.466-3.268-1.791-4.255-3.453-.539-.908-.957-1.889-1.425-2.826-.004.023-.027.074-.017.117.498 2.117 1.143 4.176 2.393 5.992.591.858 1.307 1.589 2.23 2.097 2.344 1.29 5.086.622 6.874-1.681 1.103-1.421 1.739-3.066 2.253-4.767q.069-.233.128-.469.051-.2.098-.401c-.675 1.403-1.41 2.744-2.538 3.827-1.627 1.564-3.557 2.084-5.742 1.564Zm-26.308-.037c-1.575-.432-2.772-1.427-3.623-2.773-.738-1.168-1.327-2.43-1.903-3.503.487 2.111 1.126 4.362 2.546 6.289.444.603.978 1.183 1.584 1.615 2.36 1.682 5.303 1.217 7.214-1.087 1.441-1.738 2.132-3.818 2.707-5.927-.532.914-1.009 1.884-1.623 2.757-1.725 2.452-4.189 3.373-6.902 2.63Zm13.63-.104c-1.004.002-2.038.144-2.896-.767 0 .594-.024 1.045.005 1.493.063.985.734 1.656 1.712 1.668 1.446.018 2.893.006 4.34-.019.798-.014 1.367-.499 1.506-1.294.086-.493.084-1.001.112-1.38-.812.103-1.545.236-2.284.28-.829.049-1.663.017-2.495.019m63.646.387c.033 1.059.8 1.841 1.863 1.858q1.87.03 3.738-.002c.941-.015 1.743-.71 1.841-1.596.048-.436.008-.883.008-1.345-1.97.881-5.836.813-7.453-.165 0 .468-.01.859.002 1.249ZM12.241 42.345c-1.737 1.46-3.115 4.771-3.462 6.771.443-.787.911-1.77 1.514-2.662 1.287-1.904 3.011-3.084 5.424-3.022.726.019 1.25-.449 1.335-1.164.059-.494.011-1 .011-1.465-.53.094-1.02.248-1.512.255-1.274.018-2.347.478-3.31 1.287m131.407 11.307c.779-.705 1.472-1.504 2.192-2.253-1.646-.201-3.46.442-4.96-.853l-.186.106c.137.678.189 1.388.431 2.026.311.82 1.992 1.453 2.522.973Zm-34.098-.182c.285.026.678.027.856-.139.726-.673 1.389-1.416 2.1-2.16-1.668-.221-3.493.428-5.005-.936 0 .461-.032.838.006 1.208.133 1.284.757 1.908 2.043 2.027m48.109-10.3c-1.311-.014-2.403 1.051-2.41 2.348a2.367 2.367 0 0 0 2.376 2.369c1.339.007 2.376-1.016 2.376-2.341.007-1.339-1.009-2.362-2.341-2.376Zm-.076 4.422a2.07 2.07 0 0 1-2.026-2.101c.014-1.126.968-2.046 2.108-2.032a2.075 2.075 0 0 1 2.046 2.135c-.027 1.133-.975 2.019-2.129 1.998ZM103.196 99.92c-.652.027-1.284.488-1.36 1.03-.014.096.144.309.233.323.357.034.721.014 1.078.014.364 0 .721-.014 1.078.007.343.014.398-.137.316-.426-.151-.577-.721-.975-1.346-.948Zm-25.385 2.616a8.4 8.4 0 0 0-1.552.165c-.467.103-.838.378-.783.941.041.412.515.7 1.078.693.92-.014 1.607-.632 1.559-1.435-.007-.137-.199-.371-.302-.364m52.115-.13c-.494.137-1.023.206-1.49.419a.717.717 0 0 0-.144 1.243c.659.494 1.964.124 2.273-.645.288-.721.144-.941-.639-1.016Zm28.708-57.67c-.096-.233-.494-.391-.796-.481-.261-.082-.577-.048-.858-.014-.11.014-.282.165-.288.261a40 40 0 0 0-.007 2.053c.007.089.13.165.199.247.076-.076.185-.137.213-.233.041-.11.027-.247.014-.371-.034-.343.13-.446.446-.426.439.021.721.179.742.673.007.117.124.233.192.357.062-.137.199-.288.172-.405-.062-.282-.199-.542-.261-.687.103-.378.33-.742.233-.975Zm-1.092.762c-.378.041-.474-.158-.426-.481-.034-.302-.007-.542.405-.501.336.034.742-.014.748.467.014.481-.391.474-.728.515Z"/></svg>