<svg xmlns="http://www.w3.org/2000/svg" width="215.052" height="47.559" data-name="Capa 5" fill="currentColor" viewBox="0 0 215.052 47.559"><path d="m137.372 28.581-.002.003v-9.058h-4.127v7.84c0 1.634-1.052 2.77-2.577 2.77s-2.411-.998-2.411-2.632v-7.979h-4.127v8.477c0 3.629 1.968 5.791 5.486 5.791 2.023 0 3.406-.693 4.1-2.05q.29.874 1.248 1.495c.582.332 1.357.498 2.273.498.804 0 1.413-.084 1.856-.22V30.08l-.693.002c-.748 0-1.025-.391-1.025-1.5Zm-17.676-3.372v-.005c-1.552-.555-2.716-.748-3.241-.971-.443-.193-.582-.389-.582-.748 0-.527.498-.886 1.386-.886 1.191 0 2.188.332 2.936 1.025l1.968-2.716c-1.248-1.191-2.825-1.8-4.793-1.8-1.525 0-2.798.389-3.852 1.191-1.052.775-1.579 1.884-1.579 3.297 0 1.857 1.079 3.132 3.213 3.879.416.139 1.052.332 1.884.527s1.386.389 1.691.555.47.389.47.666c0 .748-.693 1.136-2.107 1.136-1.579 0-3.047-.609-3.822-1.525l-2.382 2.55c1.357 1.661 3.379 2.493 6.095 2.493 4.1 0 6.15-1.857 6.15-4.709 0-1.857-1.136-3.186-3.436-3.961Zm-25.323-6.1c-2.161 0-3.991.72-5.513 2.161q-2.243 2.12-2.243 5.236c0 3.116.748 3.822 2.243 5.263 1.525 1.414 3.352 2.134 5.513 2.134s3.961-.72 5.486-2.134c1.525-1.441 2.273-3.186 2.273-5.263s-.748-3.822-2.273-5.236q-2.286-2.161-5.486-2.161m2.577 10.002c-.693.693-1.552 1.052-2.577 1.052s-1.884-.359-2.577-1.052-1.052-1.579-1.052-2.604.359-1.884 1.052-2.577q1.04-1.081 2.577-1.082c1.537-.001 1.884.359 2.577 1.082.693.693 1.052 1.55 1.052 2.577s-.361 1.884-1.052 2.604m-18.174.8v.003c-1.745 0-3.186-.582-4.377-1.718-1.164-1.164-1.745-2.604-1.745-4.35s.582-3.186 1.773-4.35 2.632-1.745 4.35-1.745c1.968 0 3.602.72 4.904 2.188l2.909-2.466c-1.968-2.243-4.738-3.602-7.813-3.602-2.909 0-5.347.941-7.37 2.854-2.023 1.911-3.02 4.266-3.02 7.12s.998 5.209 3.02 7.12c2.023 1.884 4.461 2.825 7.37 2.825 3.075 0 5.872-1.329 7.84-3.629l-2.909-2.466c-1.302 1.468-2.936 2.216-4.931 2.216Zm28.512-1.602h-.003V14.178h-4.127v14.767c0 3.27 1.579 4.904 4.766 4.904l1.968.005v-3.746c-2.161 0-2.604-.555-2.604-1.8Zm64.102-9.974c1.302 0 2.354-1.025 2.354-2.327s-1.052-2.354-2.354-2.354-2.355 1.025-2.355 2.354 1.052 2.327 2.355 2.327m-22.746.943v-.002c-2.105 0-3.741.859-4.157 2.077v-7.174h-4.127v19.31h4.127v-1.83c.416 1.218 2.05 2.077 4.157 2.077 1.968 0 3.629-.693 4.931-2.077q1.994-2.122 1.995-5.152c.001-3.03-.666-3.741-1.995-5.125-1.302-1.414-2.963-2.104-4.931-2.104M150.416 29c-.693.666-1.525.998-2.52.998s-1.884-.332-2.604-.998c-.694-.693-1.052-1.522-1.052-2.493s.358-1.8 1.052-2.466c.72-.693 1.579-1.025 2.604-1.025s1.829.332 2.52 1.025c.693.664 1.025 1.495 1.025 2.466s-.332 1.8-1.025 2.493m44.849-10.662c1.302 0 2.354-1.025 2.354-2.327s-1.052-2.354-2.354-2.354-2.355 1.025-2.355 2.354 1.052 2.327 2.355 2.327m17.515 2.936q-2.286-2.161-5.486-2.161c-3.2 0-3.991.72-5.514 2.161q-2.243 2.12-2.243 5.236c0 3.116.748 3.822 2.243 5.263 1.525 1.414 3.352 2.134 5.514 2.134s3.961-.72 5.486-2.134c1.525-1.441 2.272-3.186 2.272-5.263s-.747-3.822-2.272-5.236m-2.909 7.84c-.693.693-1.553 1.052-2.577 1.052s-1.884-.359-2.578-1.052c-.693-.693-1.052-1.58-1.052-2.604s.359-1.884 1.052-2.577q1.04-1.081 2.578-1.082c1.538-.001 1.884.359 2.577 1.082.693.693 1.052 1.55 1.052 2.577s-.362 1.884-1.052 2.604m-12.123.805v-.003c-.164-.114-.258-.295-.312-.48-.082-.272-.094-.564-.094-.847v-9.058h-4.127V29.81c0 2.632 1.218 3.934 3.656 3.934h1.911V30.09a6 6 0 0 0-.24-.012c-.267-.017-.564 0-.794-.158ZM164.49 25.21v-.005c-1.552-.555-2.716-.748-3.24-.971-.444-.193-.582-.389-.582-.748 0-.527.497-.886 1.386-.886 1.191 0 2.189.332 2.936 1.025l1.968-2.716c-1.247-1.191-2.824-1.8-4.793-1.8-1.524 0-2.797.389-3.852 1.191-1.052.775-1.579 1.884-1.579 3.297 0 1.857 1.079 3.132 3.213 3.879.416.139 1.052.332 1.884.527.832.193 1.387.389 1.691.555s.47.389.47.666c0 .748-.693 1.136-2.106 1.136-1.58 0-3.048-.609-3.823-1.525l-2.381 2.55c1.356 1.661 3.379 2.493 6.095 2.493 4.099 0 6.149-1.857 6.149-4.709 0-1.857-1.136-3.186-3.436-3.961Zm26.155 3.369v.008h-.002V14.181h-4.127v7.174c-.416-1.218-2.05-2.077-4.157-2.077-1.968 0-3.629.693-4.959 2.104-1.302 1.386-1.968 3.102-1.968 5.125s.666 3.768 1.968 5.182c1.33 1.386 2.993 2.077 4.959 2.077 2.189 0 3.714-.664 4.627-2.023q.29.874 1.248 1.495c.582.332 1.356.498 2.272.498.805 0 1.857.005 1.857.005v-3.664l-.693.003c-.748 0-1.025-.391-1.025-1.5Zm-4.961.423q-1.04.999-2.577.998c-1.537-.001-1.83-.332-2.52-.998-.694-.693-1.025-1.522-1.025-2.493s.331-1.8 1.025-2.466c.693-.693 1.522-1.025 2.52-1.025s1.884.332 2.577 1.025c.72.664 1.082 1.495 1.082 2.466s-.362 1.8-1.082 2.493m-11.811.914v-.003c-.164-.114-.258-.295-.312-.48-.082-.272-.094-.564-.094-.847v-9.058h-4.127v10.279c0 2.631 1.218 3.934 3.656 3.934h1.912v-3.654a7 7 0 0 0-.241-.012c-.267-.017-.564 0-.794-.158ZM10.642 34.422V13.161L0 23.797zm1.34 1.299 10.886 10.907V36.271L11.982 25.364zm10.904-24.835V.938l-9.962 9.948zm-.003 1.327H11.979v10.886h10.904zm.003 22.165V24.43h-9.962zM24.219 22.2 46.415 0H24.219zm-.028 25.36h22.196L24.191 25.365z"/></svg>