<svg xmlns="http://www.w3.org/2000/svg" width="250" height="41.895" data-name="Capa 5" fill="currentColor" viewBox="0 0 250 41.895"><path d="M129.7 0c2.968 0 5.411 1.222 5.411 3.84 0 1.571-1.222 2.793-2.618 2.793-.698 0-1.222-.175-1.746-.175-1.222 0-1.746.698-1.746 1.92v3.491h2.444c2.444 0 3.666.698 3.666 2.618s-1.222 2.618-3.666 2.618h-2.444v20.424c0 2.618-1.571 4.015-4.015 4.015s-4.015-1.396-4.015-4.015V17.28h-2.269c-2.269 0-3.317-.873-3.317-2.618s.873-2.618 3.317-2.618h1.92V7.855c0-5.062 4.19-7.855 9.077-7.855Zm74.887 11.172c5.586 0 10.299 2.618 10.299 9.95V37.88c0 2.095-.873 4.015-4.015 4.015s-4.015-1.92-4.015-4.015V23.217c0-2.968-1.222-5.237-4.539-5.237-3.142 0-5.935 2.444-5.935 6.284V37.88c0 2.095-.873 4.015-4.015 4.015s-4.015-1.92-4.015-4.015V23.217c0-2.968-1.222-5.237-4.539-5.237-3.142 0-5.935 2.444-5.935 6.284V37.88c0 2.095-.873 4.015-4.015 4.015s-4.015-1.92-4.015-4.015V15.361c0-2.444 1.397-4.015 3.84-4.015s3.84 1.571 3.84 4.015v1.047h.175c2.095-3.317 5.761-5.062 9.95-5.062 2.793 0 6.284 1.222 7.855 5.062 1.746-3.142 4.713-5.237 9.077-5.237Zm-103.341 0c5.586 0 10.299 2.618 10.299 9.95V37.88c0 2.095-.873 4.015-4.015 4.015s-4.015-1.92-4.015-4.015V23.217c0-2.968-1.222-5.237-4.539-5.237-3.142 0-5.935 2.444-5.935 6.284V37.88c0 2.095-.873 4.015-4.015 4.015s-4.015-1.92-4.015-4.015V23.217c0-2.968-1.222-5.237-4.539-5.237-3.142 0-5.935 2.444-5.935 6.284V37.88c0 2.095-.873 4.015-4.015 4.015s-4.015-1.92-4.015-4.015V15.361c0-2.444 1.396-4.015 3.84-4.015s3.84 1.571 3.84 4.015v1.047h.175c2.095-3.317 5.761-5.062 9.95-5.062 2.793 0 6.284 1.222 7.855 5.062 1.746-3.142 4.713-5.237 9.077-5.237Zm-85.885 0c6.808 0 11.87 3.84 11.87 7.681 0 2.269-1.746 3.491-3.84 3.491-3.84 0-2.444-4.888-8.379-4.888-3.142 0-6.982 2.095-6.982 9.601 0 5.062 2.444 8.379 6.982 8.379 5.761 0 4.539-5.237 8.728-5.237 2.095 0 3.491 1.571 3.491 3.142 0 3.491-4.015 8.554-12.394 8.554-10.125 0-14.838-6.284-14.838-14.663.001-9.427 5.412-16.06 15.362-16.06m31.596-.524c3.666.175 7.157 1.746 9.95 4.539 2.968 2.968 4.539 6.982 4.539 10.997s-1.571 8.03-4.539 10.997-6.982 4.539-10.997 4.539-8.03-1.571-10.997-4.539-4.539-6.982-4.539-10.997 1.571-8.03 4.539-10.997c1.396-1.396 3.666-1.396 5.062 0s1.396 3.666 0 5.062c-1.746 1.571-2.444 3.84-2.444 5.935s.873 4.364 2.444 5.935c1.746 1.571 3.84 2.444 5.935 2.444a8.31 8.31 0 0 0 5.935-2.444c1.746-1.571 2.444-3.84 2.444-5.935s-.873-4.364-2.444-5.935-3.491-2.269-5.411-2.444-3.491-1.746-3.317-3.84c.175-1.92 1.746-3.317 3.84-3.317m187.655.698c1.222 0 2.444.698 3.142 1.92l11.87 23.391c.873 1.746.175 3.666-1.571 4.539-.524.175-1.047.349-1.571.349-1.222 0-2.444-.698-3.142-1.92l-8.728-17.282-6.284 12.394h7.506c1.92 0 3.491 1.571 3.491 3.317 0 1.92-1.571 3.317-3.491 3.317h-13.092c-1.222 0-2.269-.524-2.968-1.571s-.698-2.269-.175-3.317l11.696-23.391a3.97 3.97 0 0 1 3.317-1.746m-81.87 1.746 11.696 23.566c.524 1.047.524 2.269-.175 3.317s-1.746 1.571-2.968 1.571h-23.566c-1.222 0-2.269-.524-2.968-1.571s-.698-2.269-.175-3.317l6.633-13.092c.873-1.746 2.968-2.444 4.539-1.571 1.746.873 2.444 2.968 1.571 4.539l-4.015 8.03h12.394l-9.077-18.329c-.873-1.746-.175-3.666 1.571-4.539 1.571-.873 3.666-.175 4.539 1.396Z" data-name="Combined-Shape"/></svg>