<svg xmlns="http://www.w3.org/2000/svg" width="250" height="93.028" fill="currentColor" viewBox="0 0 250 93.028"><path d="M114.551 88.74q-1.155.595-2.583.596-1.617 0-2.886-.731a5.1 5.1 0 0 1-1.971-2.027q-.7-1.295-.701-2.932 0-1.637.698-2.933a5.1 5.1 0 0 1 1.969-2.028q1.269-.733 2.885-.733 1.428 0 2.59.594a4.94 4.94 0 0 1 1.883 1.665l1.645-1.276a7.25 7.25 0 0 0-2.613-2.273q-1.587-.824-3.506-.824-2.193 0-3.953 1.03a7.3 7.3 0 0 0-2.747 2.811q-.989 1.782-.987 3.969 0 2.187.99 3.968a7.3 7.3 0 0 0 2.75 2.808q1.76 1.027 3.954 1.026 1.919 0 3.506-.826a7.26 7.26 0 0 0 2.611-2.275l-1.66-1.26a5 5 0 0 1-1.875 1.652Zm16.286-11.882q-1.761-1.028-3.954-1.027-2.193 0-3.96 1.031a7.3 7.3 0 0 0-2.762 2.817q-.995 1.789-.994 3.963 0 2.172.997 3.96a7.3 7.3 0 0 0 2.765 2.816q1.767 1.027 3.961 1.026t3.953-1.029a7.34 7.34 0 0 0 2.755-2.818q.994-1.79.994-3.961 0-2.173-.997-3.962a7.35 7.35 0 0 0-2.757-2.815Zm.927 9.71a5.1 5.1 0 0 1-1.976 2.028q-1.27.732-2.9.733-1.63 0-2.9-.731a5.1 5.1 0 0 1-1.978-2.026q-.708-1.295-.708-2.932 0-1.636.706-2.934a5.13 5.13 0 0 1 1.976-2.028q1.27-.733 2.9-.733t2.9.731a5.14 5.14 0 0 1 1.978 2.027q.708 1.297.709 2.933 0 1.638-.707 2.933Zm5.246-18.069.009 22.608h2.121l-.009-22.609h-2.121Zm16.222 8.351q-1.761-1.028-3.954-1.027-2.194 0-3.96 1.031a7.3 7.3 0 0 0-2.762 2.817q-.994 1.789-.994 3.963 0 2.172.997 3.96a7.3 7.3 0 0 0 2.765 2.816q1.767 1.027 3.961 1.026t3.953-1.029a7.34 7.34 0 0 0 2.755-2.818q.994-1.79.994-3.961 0-2.173-.997-3.962a7.35 7.35 0 0 0-2.757-2.815Zm.927 9.71a5.1 5.1 0 0 1-1.976 2.028q-1.27.733-2.9.733t-2.9-.731a5.1 5.1 0 0 1-1.977-2.027q-.708-1.295-.708-2.932 0-1.636.706-2.934a5.13 5.13 0 0 1 1.976-2.028q1.27-.733 2.9-.733t2.9.731a5.14 5.14 0 0 1 1.978 2.027q.708 1.296.709 2.933 0 1.637-.707 2.933Zm25.782-7.955a5.35 5.35 0 0 0-2.041-2.048q-1.308-.745-2.952-.745-1.516 0-2.755.638a5.6 5.6 0 0 0-2.033 1.753 5.2 5.2 0 0 0-1.95-1.751q-1.21-.636-2.712-.636-1.24 0-2.279.456a4.8 4.8 0 0 0-1.746 1.284v-1.405h-2.064l.006 14.947h2.121l-.003-9.401a3.9 3.9 0 0 1 .468-1.903 3.5 3.5 0 0 1 1.311-1.362q.843-.5 1.941-.502 1.097 0 1.949.5a3.44 3.44 0 0 1 1.313 1.361q.462.86.463 1.903l.003 9.4h2.136l-.003-9.401q0-1.056.468-1.911a3.5 3.5 0 0 1 1.319-1.355q.851-.5 1.933-.501 1.112 0 1.955.492.845.491 1.307 1.354.463.862.463 1.918l.003 9.4h2.121l-.003-9.588q-.001-1.593-.738-2.897Zm15.476-1.772q-1.71-1.028-3.861-1.027a7.3 7.3 0 0 0-3.008.623 7.1 7.1 0 0 0-2.402 1.739l-.003-9.689h-2.121l.008 22.609h2.121v-2.013a7 7 0 0 0 2.402 1.73 7.4 7.4 0 0 0 3.009.613q2.15 0 3.859-1.029a7.23 7.23 0 0 0 2.675-2.818q.966-1.79.965-3.961c-.001-2.171-.323-2.769-.968-3.962a7.24 7.24 0 0 0-2.677-2.815Zm.834 9.71a5.07 5.07 0 0 1-1.941 2.028q-1.249.733-2.835.733-1.587 0-2.821-.731a5.1 5.1 0 0 1-1.926-2.027q-.695-1.295-.695-2.932c0-1.637.23-2.069.692-2.934a5.1 5.1 0 0 1 1.926-2.028q1.232-.733 2.821-.734 1.586 0 2.835.731a5.1 5.1 0 0 1 1.941 2.026q.693 1.297.693 2.933.002 1.637-.69 2.932Zm6.284-17.506q-.736 0-1.182.457-.448.456-.447 1.181c.001.725.15.876.447 1.18q.448.457 1.184.456.735 0 1.184-.457.446-.456.446-1.181c0-.725-.148-.876-.447-1.18q-.448-.457-1.184-.456Zm-1.051 7.097.006 14.947h2.121l-.005-14.947zm15.5 2.253a5.06 5.06 0 0 0-2.006-1.903q-1.286-.688-2.915-.688-1.544 0-2.763.631a5.14 5.14 0 0 0-1.955 1.739 5.1 5.1 0 0 0-.835 2.498h2.078a3.05 3.05 0 0 1 .591-1.441 3.25 3.25 0 0 1 1.225-.986 3.8 3.8 0 0 1 1.66-.356q.996 0 1.811.435.815.433 1.278 1.18.462.746.462 1.672v.74l-4.341.48q-2.454.275-3.774 1.434-1.318 1.16-1.318 3.1 0 1.303.621 2.324.622 1.022 1.76 1.592 1.14.571 2.655.571 1.4 0 2.525-.508a5.2 5.2 0 0 0 1.875-1.405l.002 1.578h2.091l-.003-9.965q0-1.506-.722-2.723Zm-1.369 7.373a3.4 3.4 0 0 1-.532 1.84q-.534.854-1.501 1.362-.966.507-2.193.508-.951 0-1.652-.34-.7-.34-1.061-.919a2.4 2.4 0 0 1-.361-1.289q-.001-1.13.815-1.825.814-.696 2.402-.871l4.083-.45zm17.075-7.031a5.6 5.6 0 0 0-2.136-2.157q-1.363-.781-3.067-.781-1.327 0-2.431.487a5.3 5.3 0 0 0-1.882 1.369v-1.521h-2.123l.006 14.947h2.121l-.003-9.053q0-1.144.503-2.085a3.76 3.76 0 0 1 1.422-1.486q.915-.543 2.099-.544 1.227 0 2.164.542.94.544 1.45 1.485.513.941.514 2.085l.003 9.052h2.136l-.003-9.256q-.002-1.708-.775-3.085Zm14.062-.353a5.05 5.05 0 0 0-2.006-1.903q-1.283-.688-2.915-.687-1.544 0-2.762.631a5.09 5.09 0 0 0-2.79 4.237h2.076a3.1 3.1 0 0 1 .591-1.441 3.26 3.26 0 0 1 1.227-.986 3.8 3.8 0 0 1 1.66-.356q.995 0 1.81.435.815.433 1.278 1.18.462.746.463 1.672v.74l-4.343.48q-2.454.275-3.773 1.434-1.318 1.16-1.319 3.1.002 1.303.621 2.324.62 1.022 1.762 1.592 1.14.571 2.655.571 1.4 0 2.525-.508a5.2 5.2 0 0 0 1.875-1.405v1.578h2.092l-.003-9.965q-.003-1.506-.723-2.723Zm-1.901 9.213q-.534.855-1.5 1.362-.967.507-2.193.508-.953 0-1.653-.34-.698-.34-1.061-.919a2.4 2.4 0 0 1-.361-1.289q0-1.13.815-1.825.816-.697 2.402-.871l4.083-.45.002 1.984a3.4 3.4 0 0 1-.533 1.84ZM188.51 65.541l-.01-23.144q-.001-2.703 1.203-4.937a9.05 9.05 0 0 1 3.345-3.524q2.141-1.292 4.876-1.292l5.958-.003-.005-9.381-4.937.002q-3.306.001-6.1 1.211-2.795 1.21-4.509 3.545l-.002-4.752-9.386.004.016 42.274 9.55-.004Zm35.945-42.288-.003-8.26q-.002-2.013 1.161-3.185t3.121-1.172l6.816-.003-.003-9.053-8.325.003q-3.714.001-6.488 1.498a10.4 10.4 0 0 0-4.284 4.262q-1.508 2.765-1.508 6.411l.005 9.503-8.611.004.003 9.053 8.611-.004.013 33.221 9.509-.004-.013-33.221 11.099-.004-.003-9.053zm24.726-10.973a6.1 6.1 0 0 0-2.246-2.273q-1.428-.839-3.223-.838-1.797 0-3.225.841a6.1 6.1 0 0 0-2.243 2.274q-.817 1.435-.815 3.195 0 1.763.818 3.195a5.9 5.9 0 0 0 2.244 2.252q1.428.819 3.225.818 1.794 0 3.223-.82a5.95 5.95 0 0 0 2.244-2.254q.815-1.434.815-3.196c0-1.762-.273-2.239-.818-3.195Zm-10.239 10.967.016 42.274 9.55-.004-.018-42.274-9.549.004ZM133.774 53.768a12 12 0 0 1-2.501 1.863q-2.611 1.456-5.958 1.456-3.551.001-6.346-1.636-2.797-1.637-4.368-4.525t-1.574-6.492q-.002-3.605 1.569-6.493 1.569-2.889 4.365-4.528 2.794-1.64 6.345-1.641 3.346 0 5.979 1.452 1.194.662 2.189 1.556a23.1 23.1 0 0 1 5.467-7.754 21 21 0 0 0-3.292-2.181q-4.674-2.496-10.346-2.495-6.203.003-11.18 2.913-4.978 2.911-7.792 7.97-2.814 5.06-2.811 11.204.002 6.145 2.82 11.202t7.798 7.964q4.98 2.906 11.182 2.904 5.671-.003 10.344-2.503a20.5 20.5 0 0 0 3.834-2.651 23.2 23.2 0 0 1-5.723-7.586Zm42.773-9.846c-.005-11.686-8.799-20.904-20.837-20.899s-20.826 9.229-20.821 20.916c.005 11.686 8.799 20.905 20.837 20.9s20.826-9.23 20.821-20.916Zm-30.887.012c-.002-5.803 4.193-10.336 10.054-10.339 5.86-.002 10.06 4.528 10.063 10.331.002 5.804-4.195 10.336-10.055 10.339-5.861.002-10.06-4.526-10.062-10.331M28.274 4.168C22.875 6.45 15.456 10.77 9.907 17.633-7.134 36.287.578 67.487 12.335 79.289c18.265 18.319 47.862 18.319 66.126 0 18.25-18.333 18.25-48.043 0-66.376C64.546-1.056 45.78-3.231 28.274 4.168m53.049 58.295a.521.521 0 0 1-.763.493l-5.952-3.138a.463.463 0 0 0-.595.138c-1.427 1.97-3.913 5.885-7.162 8.925-16.799 15.443-39.703 17.116-55.33 1.429C5.474 64.24 1.469 52.933 1.469 44.525c0-4.158.474-7.814 1.208-11-.585 3.512-.676 7.353-.091 11.561 1.104 7.943 3.909 15.681 10.052 21.861 14.955 14.997 35.961 14.337 52.803-1.459 1.997-1.873 6.232-7.899 7.252-9.385a.7.7 0 0 1 .84-.256l4.427 2.282a.506.506 0 0 0 .716-.479s1.475-9.831-1.248-23.913c-6.616 6.242-16.935 14.974-16.935 14.974a.52.52 0 0 0 .198.837l4.011 1.934a.406.406 0 0 1 .204.597c-1.231 1.949-8.122 11.918-19.881 14.869-10.427 2.616-20.784 1.224-30.155-7.287C3.145 49.011 1.4 27.986 15.989 14.258 24.924 5.85 34.417 3.047 43.438 2.589c16.134-.819 31.629 11.688 35.995 26.574 5.516 18.804 1.891 33.3 1.891 33.3Z"/></svg>