<svg xmlns="http://www.w3.org/2000/svg" width="250" height="57.529" fill="currentColor" viewBox="0 0 250 57.529"><path d="M50.024 0c-.286.041-.571.117-.857.117-6.131.007-12.262.005-18.392.005h-1.056l-.011.156c.191.029.383.085.574.084Q36.22.357 42.16.338c2.362-.008 4.724-.03 7.086-.046q.13-.002.26-.008c1.004-.036 1.007-.035.804.975q-1.007 5.018-2.022 10.035c-.822 4.053-1.651 8.104-2.474 12.156-.106.52-.192 1.043-.242 1.318 0-.679.012-1.596-.002-2.512-.102-6.5-2.481-12.023-7.211-16.52-2.387-2.269-5.115-4.006-8.244-5.1C29.616.462 29.144.214 28.66 0zM15.112 0c-.201.04-.401.113-.602.114Q10.062.122 5.613.108C5.374.107 5.136.037 4.898 0zM0 20.418c.026.062.073.123.073.185q.009 1.682.004 3.363c0 .061-.051.122-.077.183zM203.491 6.68c.097-.008.2-.023.302-.023 3.421-.001 6.842-.006 10.263.012.199.001.483.135.584.295 3.765 6.002 7.512 12.015 11.262 18.026q.352.562.705 1.121l.181-.023 4.119-19.397h8.727l-6.256 27.282h-.573c-2.918 0-5.835-.011-8.752.011-.477.004-.753-.145-1.003-.545-3.949-6.315-7.911-12.622-11.872-18.929-.188-.299-.39-.588-.586-.882l-.166.028c-.057.288-.11.578-.173.865-.404 1.851-.824 3.698-1.212 5.552-.737 3.524-1.454 7.052-2.185 10.578a91 91 0 0 1-.658 2.975c-.033.135-.232.33-.355.331-2.863.019-5.727.014-8.615.014l6.261-27.291ZM59.339 6.656h.577c5.992 0 11.984-.051 17.975.021 3.101.037 6.213.201 9.215 1.121 2.165.663 4.179 1.59 5.685 3.365 1.174 1.384 1.832 3.004 1.892 4.78.178 5.264-1.348 9.881-5.528 13.368-2.38 1.986-5.211 3.043-8.201 3.727a32.6 32.6 0 0 1-7.012.834c-6.807.054-13.613.07-20.42.1-.133 0-.266-.023-.445-.04l6.264-27.275Zm3.508 22.485c.231.015.367.032.503.032 1.389-.002 2.779.015 4.168-.015 3.121-.068 6.252.217 9.363-.223 1.326-.188 2.639-.444 3.788-1.182 1.418-.911 2.355-2.222 3.032-3.732.999-2.228 1.504-4.583 1.746-6.994.207-2.058-.998-4.164-2.818-4.725-1.297-.4-2.666-.743-4.012-.78-3.766-.104-7.536-.033-11.305-.039-.343 0-.471.134-.544.469-.485 2.222-.99 4.44-1.499 6.657-.644 2.804-1.3 5.605-1.949 8.407-.158.684-.305 1.371-.473 2.125m89.771-22.452c-.218.921-.43 1.804-.637 2.688-.13.553-.279 1.104-.371 1.664-.068.41-.223.557-.672.556q-10.395-.027-20.789-.005c-1.738.004-3.473.13-5.097.834-1.148.497-2.118 1.175-2.393 2.52-.251 1.23.227 2.243 1.431 2.682.641.234 1.345.404 2.022.411 4.324.043 8.649-.002 12.973.053 2.514.032 5.033.156 7.464.899 1.726.528 3.174 1.406 3.779 3.239.397 1.203.175 2.393-.113 3.571-.964 3.95-3.686 6.092-7.467 7.135-2.067.57-4.179.897-6.315.914-8.422.069-16.844.087-25.266.122-.068 0-.136-.016-.21-.025l1.056-4.904h.646c7.138 0 14.277.01 21.415-.008 1.543-.004 3.08-.108 4.568-.614 1.637-.557 2.478-2.304 2.481-3.675 0-.254-.189-.552-.374-.753a2.83 2.83 0 0 0-1.832-.893c-1.327-.13-2.66-.253-3.992-.271a355 355 0 0 0-8.752-.002c-2.506.028-4.994-.099-7.442-.666-1.31-.304-2.553-.777-3.625-1.615-1.054-.823-1.634-1.907-1.718-3.237-.243-3.854 2.153-7.433 6.021-8.991 2.225-.896 4.56-1.326 6.941-1.45 8.59-.448 17.188-.112 25.782-.21.135-.002.271.017.485.032Zm42.032 27.284h-.575c-2.83 0-5.661-.009-8.491.01-.406.003-.563-.137-.688-.503-.646-1.891-1.325-3.772-1.986-5.658-.095-.272-.218-.4-.555-.399q-8.413.028-16.826.009c-.523-.001-.834.162-1.151.59-1.398 1.891-2.842 3.748-4.288 5.604-.131.168-.393.33-.595.331-2.899.021-5.798.015-8.812.015.142-.195.226-.329.328-.447 5.289-6.111 10.581-12.219 15.868-18.332 2.366-2.735 4.719-5.482 7.096-8.209.155-.178.464-.314.702-.316 2.761-.022 5.522-.018 8.283-.003.157 0 .404.122.457.25 3.099 7.415 6.181 14.836 9.265 22.256q.865 2.077 1.728 4.156c.077.186.142.377.241.645Zm-17.389-21.775-8.466 10.425h12.306z"/><path d="M.442 22.065c-.243-3.069.637-5.79 1.974-8.38 2.936-5.69 7.482-9.555 13.7-11.18C24.185.397 31.342 2.338 37.26 8.17c4.536 4.469 6.665 10.054 6.229 16.385-.574 8.346-4.857 14.383-12.299 18.21-3.035 1.561-6.33 2.083-9.709 2.187a.5.5 0 0 1-.278-.057c5.619-.752 10.198-3.31 13.553-7.843 3.388-4.577 4.42-9.763 3.239-15.269-1.794-8.361-8.809-14.24-17.297-14.944C11.385 6.068 2.451 12.431.442 22.065"/><path d="M22.573 42.247c6.039-3.574 8.955-8.774 7.677-15.712-1.117-6.065-5.054-9.963-11.066-11.331-6.913-1.574-12.163 1.19-15.942 6.86.431-2.428 2.334-6.142 5.694-8.784 2.943-2.314 6.31-3.551 10.053-3.584 8.416-.074 15.579 6.017 16.626 14.354 1.214 9.666-5.858 16.87-13.042 18.197m89.045-35.539-6.214 27.244h-9.096c.223-.993.436-1.96.658-2.925 1.481-6.449 2.967-12.897 4.445-19.348.354-1.545.69-3.095 1.016-4.646.055-.261.124-.385.421-.384 2.849.011 5.697.007 8.546.009.05 0 .1.021.223.049Zm113.405 48.258c1.449-4.342 2.858-8.569 4.276-12.793.041-.122.171-.303.262-.305.996-.022 1.993-.014 3.029-.014v14.944c0 .722-.003.73-.715.711-1.285-.034-1.105.151-1.104-1.108 0-4.075.012-8.151.017-12.226 0-.16-.019-.32-.029-.48l-.18-.043c-.134.334-.284.662-.401 1.002-1.348 3.91-2.698 7.818-4.026 11.735-.145.427-.334.608-.802.594-1.618-.05-1.238.241-1.767-1.273-1.312-3.758-2.605-7.522-3.91-11.282-.087-.252-.214-.49-.323-.735l-.149.014c-.019.201-.053.401-.054.602-.006 4.179-.017 8.359 0 12.538.002.527-.154.685-.681.667-1.149-.038-1.15-.012-1.15-1.149 0-4.663.006-9.326-.012-13.989-.002-.464.145-.608.589-.591.642.025 1.287.038 1.927-.003.504-.033.746.152.902.626.845 2.568 1.719 5.127 2.579 7.69.471 1.404.932 2.811 1.405 4.214.067.198.183.38.318.654Zm-22.576 2.547c.222-.816.412-1.526.607-2.235 1.178-4.284 2.363-8.566 3.525-12.853.128-.472.357-.645.835-.632.902.024 1.805.018 2.707-.002.347-.008.487.141.573.453 1.344 4.881 2.696 9.759 4.045 14.638.166.601.155.613-.455.622-1.139.016-1.131.014-1.426-1.079a61 61 0 0 0-.762-2.629c-.045-.141-.267-.32-.408-.322a259 259 0 0 0-6.04.003c-.149.002-.38.22-.429.381a56 56 0 0 0-.85 3.034c-.115.464-.319.687-.82.629-.322-.037-.653-.007-1.103-.007Zm9.174-5.699c-.125-.456-.236-.866-.351-1.275-.634-2.252-1.272-4.503-1.899-6.757-.106-.382-.362-.465-.705-.444-.336.021-.602.048-.719.487-.618 2.328-1.28 4.644-1.927 6.964l-.285 1.025h5.885Zm-22.223 5.69c-.52 0-.987.032-1.444-.02-.137-.015-.309-.246-.359-.41a91 91 0 0 1-.913-3.233c-.077-.293-.208-.387-.5-.386q-2.969.014-5.938 0c-.291-.001-.421.086-.499.383-.279 1.066-.608 2.119-.891 3.185-.097.366-.274.516-.657.485-.359-.029-.721-.006-1.151-.006.045-.232.065-.397.109-.556 1.355-4.916 2.715-9.831 4.06-14.75.077-.282.173-.406.48-.401 1.007.015 2.014.011 3.021 0 .292-.003.419.103.498.392 1.373 5 2.759 9.996 4.141 14.994.018.064.019.133.044.325Zm-3.226-5.696c-.123-.425-.235-.8-.341-1.177-.628-2.239-1.265-4.475-1.873-6.72-.119-.438-.363-.561-.775-.566-.416-.005-.616.173-.722.569-.44 1.648-.902 3.289-1.359 4.932-.272.975-.551 1.947-.839 2.961zm8.945 5.703V44.102q0-.692-.72-.694c-1.215-.001-2.431-.014-3.646.006-.389.006-.568-.07-.544-.51.063-1.162-.258-1.112 1.107-1.112q4.818-.001 9.636.005c.689.001.689.01.692.693 0 .138-.013.278.002.414.043.382-.113.517-.503.511-1.25-.019-2.5.01-3.75-.019-.441-.01-.554.13-.552.555.012 4.196.004 8.392.002 12.588 0 1.089.053.954-.995.973-.221.004-.441 0-.728 0ZM2.073 10.945Q3.088 5.855 4.098.765c.066-.334.146-.559.587-.542C6.262.284 7.841.316 9.419.33c1.851.017 3.702.004 5.594.076-5.584 1.995-9.891 5.505-12.94 10.539m165.43 38.727c0-2.469.006-4.937-.006-7.406-.002-.364.126-.474.484-.481 1.348-.025 1.349-.036 1.35 1.31.002 4.075.011 8.15-.007 12.225-.002.47.14.577.589.572 1.892-.021 3.785.007 5.677-.009.468-.004.644.132.628.621-.039 1.209.105.995-.987 1.002-2.396.015-4.792-.009-7.188.006-.418.002-.529-.132-.526-.538.018-2.434.009-4.868.009-7.302zm78.733-42.939c1.864-.026 3.819 1.575 3.763 3.743-.064 2.456-1.95 3.762-3.856 3.784-2.191.025-3.892-1.724-3.861-3.893.029-2.042 1.779-3.65 3.954-3.634m2.79 3.775c.05-1.458-1.1-3.098-3.054-2.985-1.539.089-2.75 1.359-2.731 3.007a2.965 2.965 0 0 0 3.011 2.92c1.584-.02 2.804-1.314 2.775-2.942Z"/><path d="m247.283 10.398.694 1.935c-.954.193-.979.169-1.195-.677-.049-.19-.152-.414-.304-.519a1.02 1.02 0 0 0-.659-.169c-.089.012-.153.336-.196.525-.03.131-.013.275-.004.413.022.361-.105.52-.507.522-.4.002-.507-.137-.498-.511a75 75 0 0 0 .005-2.796c-.005-.342.099-.523.467-.513.636.017 1.279-.03 1.906.048.518.065.703.507.757.988.043.393-.091.676-.466.754m-1.868-.713c.253.275.401.577.564.586.334.017.769.003.829-.489.038-.309-.387-.659-.813-.611-.173.02-.319.272-.581.514Z"/></svg>