<svg xmlns="http://www.w3.org/2000/svg" width="250" height="97.791" data-name="Capa 7" fill="currentColor" viewBox="0 0 250 97.791"><path d="m55.237 56.056.409-1.227s0-.409-.409-.409h-14.73c-.818 0-.818.409-.818.409v.409c0 .818-.409 1.227-1.228 2.046-.409.818-1.227 1.227-2.455 2.046-2.046 1.227-4.092 2.046-6.956 2.046-2.046 0-3.682-.409-5.319-.818s-2.455-1.227-3.683-2.046q-1.227-1.228-2.455-3.682c-.409-1.228-.818-2.864-.818-4.501h38.462c.818 0 .818-.818.818-.818v-3.273c0-3.682-.409-6.956-.818-9.82-1.227-4.092-2.864-7.774-4.91-10.638-2.455-3.273-5.319-5.728-9.002-7.365-3.682-2.046-7.774-2.864-12.684-2.864-4.092 0-8.183.818-11.866 2.455s-6.547 3.682-9.002 6.137c-2.455 2.864-4.501 5.728-5.728 9.411S-.001 41.328-.001 45.42c0 4.501.818 8.183 2.046 11.866s3.273 6.956 5.728 9.411c2.455 2.864 5.728 4.91 9.002 6.137 3.683 1.227 7.774 2.046 11.866 2.046 6.137 0 11.866-1.637 16.367-4.501 2.455-1.637 4.501-3.273 6.137-5.728 1.637-2.455 3.273-5.319 4.092-8.592Zm-37.234-19.64c0-1.637.409-2.455 1.637-3.683.818-1.227 2.046-2.046 3.273-2.455 1.227-.818 3.273-1.228 5.319-1.228 1.637 0 3.274.409 4.501.818s2.046 1.227 2.864 2.046c1.227 1.637 2.455 3.683 3.273 6.547H17.593c0-.409.409-1.228.409-2.046Z"/><path d="m90.016 43.371 18.412-26.596s.409-.409-.409-.409H89.197c-.409 0-.818.409-.818.409l-8.592 12.684-8.593-12.684s-.409-.409-.818-.409H51.145c-.409 0-.409.409-.409.409l1.228 2.046L69.149 43.78 49.1 73.24s-.409.409.409.409h18.822c.818 0 1.227-.818 1.227-.818l10.229-15.139 10.229 15.139s.409.818 1.227.818h19.231c.409 0 0-.818 0-.818zM134.206 16.776H112.52c-.818 0-.818.409-.818.409l3.273 55.646s0 .818.818.818h15.139c.818 0 .818-.818.818-.818l3.273-55.646s0-.409-.818-.409ZM176.76 58.92l-2.455.409c-.818 0-1.227.409-2.046.409h-2.455c-1.227 0-2.046 0-2.864-.409-.818 0-1.227-.409-1.227-.409s-.409-.409-.409-1.228-.409-1.637-.409-2.864V29.46h10.638s.409 0 .409-.818V17.185s0-.409-.409-.409h-10.229V.818s0-.818-.409-.818h-16.367c-.818 0-.409.818-.409.818v15.548h-8.183c-.818 0-.818.409-.818.409v11.457s0 .818.409.818h8.593v30.687c0 2.864.409 5.319 1.637 7.365s2.455 3.273 4.092 4.501c1.637.818 3.683 1.637 6.137 2.046 2.046.409 4.501.409 6.956.409h4.501c1.637 0 2.864-.409 4.501-.409h.818s.409 0 .409-.818V59.329c0-.818-.409-.409-.409-.409Z"/><path d="M227.905 23.322c-2.455-2.455-5.728-4.501-9.411-6.137-3.682-1.637-7.774-2.046-12.275-2.046s-8.592.818-11.866 2.046c-3.683 1.227-6.547 3.273-9.411 6.137-2.455 2.455-4.501 5.728-6.137 9.411-1.228 3.683-2.046 7.774-2.046 12.275s.818 8.592 2.046 12.275 3.273 6.956 6.137 9.411c2.455 2.455 5.728 4.501 9.411 6.137 3.682 1.227 7.774 2.046 11.866 2.046 4.501 0 8.593-.818 12.275-2.046s6.956-3.273 9.411-6.137c2.455-2.455 4.501-5.728 6.137-9.411 1.227-3.683 2.046-7.774 2.046-12.275 0-4.092-.818-8.592-2.046-12.275s-3.274-6.956-6.137-9.411m-9.82 28.232a13.6 13.6 0 0 1-2.046 4.91c-1.227 1.227-2.455 2.455-3.683 3.273-1.637.818-3.273 1.228-5.728 1.228s-4.092-.409-5.728-1.228c-1.637-.818-2.455-2.046-3.682-3.273-.818-1.637-1.637-3.273-2.046-4.91-.409-2.046-.409-4.092-.409-6.137s.409-4.092.409-6.137a13.6 13.6 0 0 1 2.046-4.91 9.66 9.66 0 0 1 3.682-3.274c1.227-.818 3.273-1.227 5.728-1.227s4.092.409 5.728 1.227 2.864 2.046 3.683 3.274c.818 1.637 1.637 3.273 2.046 4.91.409 2.046.409 4.092.409 6.137s0 4.092-.409 6.137M123.568 76.514c-5.728 0-10.638 4.91-10.638 10.638s4.91 10.638 10.638 10.638 10.638-4.501 10.638-10.638c0-5.728-4.91-10.638-10.638-10.638M32.324 11.866c.818 0 1.228-.409 1.228-.409L47.463.818s.409-.409 0-.409H31.915c-.818 0-1.227.409-1.227.409l-8.183 10.638s-.409.409 0 .409h9.82ZM244.681 22.913c-.409 0-.409-.409-.818-.409.818 0 1.227-.409 1.637-.818s.409-.818.409-1.227c0-.818-.409-1.227-.818-1.637s-1.227-.409-2.046-.409h-3.682v7.365h2.046v-2.864h.409q.409 0 .818.409c.409 0 .818 1.227 1.637 2.455h2.046c-.818-1.227-1.228-2.046-1.228-2.046 0-.409-.409-.818-.409-.818Zm-2.046-1.227h-.818v-2.455h.818c.818 0 .818.409 1.227.409q.409.409.409.818c0 .409 0 .818-.409.818-.409.409-.818.409-1.227.409Z"/><path d="M249.182 18.412q-.613-1.227-2.455-2.455c-.818-.409-2.046-.818-3.273-.818-1.637 0-2.455 0-3.683.818q-1.227.613-2.455 2.455c-.409 1.227-.818 2.455-.818 3.683 0 1.637 0 2.455.818 3.682.409.818 1.227 2.046 2.455 2.455s2.455.818 3.683.818 2.046 0 3.273-.818q1.227-.614 2.455-2.455c.409-1.227.818-2.455.818-3.682s-.409-2.455-.818-3.683m-2.046 7.774c-1.227 1.227-2.455 1.637-4.092 1.637s-2.864-.409-4.092-1.637-1.637-2.455-1.637-4.092.409-2.864 1.637-4.092 2.455-1.637 4.092-1.637 2.864.409 4.092 1.637 1.637 2.455 1.637 4.092-.818 2.864-1.637 4.092"/></svg>