<svg xmlns="http://www.w3.org/2000/svg" width="250" height="124.08" viewBox="0 0 250 124.08" fill="currentColor"><path d="M36.808 93.925c-1.491-.293-1.722-.758-1.129-2.045.923-2.003 1.769-4.043 2.61-6.083 4.323-10.477 7.224-21.258 6.984-32.229.168-10.358-2.149-19.597-6.909-28.292-5.03-9.19-11.69-16.992-19.699-23.677-2.778-2.319-2.768-2.137-4.97.68-1.387 1.774-1.403 3.141-.34 5.199 4.126 7.985 4.752 16.304.911 24.564-1.933 4.157-4.414 8.07-6.783 12.012-2.654 4.417-5.025 8.901-6.169 14.005-1.794 8.002-1.77 15.865.185 23.886 2.581 10.589 6.947 20.162 14.839 27.789 8.195 7.92 17.769 12.519 29.623 11.108 4.623-.55 9.263-.537 13.067 3.036.44.413 1.886.124 2.636-.272.566-.299 1.105-1.306 1.072-1.969-.19-3.793-1.074-7.435-2.855-10.831-4.926-9.391-12.759-14.856-23.075-16.881Zm52.721-50.904c9.296-1.978 17.408.328 24.305 6.793 1.176 1.102 2.137 1.234 3.401.33 1.684-1.204 3.41-2.347 5.119-3.516l.735-.855c-.885-.553-1.857-1.005-2.641-1.676-9.038-7.73-19.561-10.433-31.141-8.595-13.353 2.12-22.4 9.684-26.405 22.679-2.62 8.502-2.457 17.188-.376 25.795 2.591 10.715 9.267 18.172 19.716 21.309 12.949 3.888 25.758 2.15 38.093-3.26 1.669-.732 2.276-1.828 2.262-3.629-.068-9.026-.033-18.053-.043-27.08-.003-2.671-.037-2.709-2.756-2.71-7.225-.001-14.451.096-21.674-.011-3.968-.059-3.98-.195-3.985 3.823 0 .455.061.918-.006 1.362-.263 1.739.519 2.272 2.197 2.242 4.688-.082 9.378-.012 14.066-.068 1.449-.017 2.103.39 2.08 1.99-.078 5.584-.043 11.169-.01 16.754.007 1.213-.214 2.108-1.54 2.555-5.206 1.755-10.448 3.097-16.035 2.863-11.79-.493-20.022-7.204-22.563-18.684-1.702-7.688-1.654-15.42.727-22.917C75.62 50.436 80.89 44.859 89.53 43.02Zm158.832 14.325c-1.428-6.37-4.303-12.028-9.367-16.258-12.498-10.438-32.096-7.306-41.511 6.498-4.906 7.193-5.881 15.392-6.26 24.768.266 2.57.543 6.127 1.02 9.657.77 5.695 2.726 10.913 6.463 15.408 5.38 6.472 12.397 9.627 20.665 9.787 15.335.298 24.964-6.911 29.035-22.846 2.288-8.954 1.972-18.022-.044-27.014Zm-11.243 32.691c-3.189 6.182-8.235 9.503-15.279 9.699-7.492.208-13.452-2.442-17.326-9.083-2.336-4.003-3.537-8.377-3.962-12.93-.825-8.845-.292-17.545 4.078-25.551 6.078-11.135 20.873-13.334 29.171-4.272 4.269 4.662 6.008 10.537 6.808 16.685.292 2.244.372 4.517.549 6.776-.099 6.511-1.019 12.822-4.038 18.676ZM178.5 93.421c-.07-16.236-.034-32.473-.028-48.71.001-3.312.003-6.625.065-9.936.023-1.236-.42-1.789-1.702-1.736-1.495.062-3.006.121-4.491-.017-1.802-.168-2.206.644-2.178 2.259.081 4.74.043 9.482.051 14.222.002 1.412 0 2.825 0 4.521-.864-.171-1.358-.301-1.861-.363-3.406-.421-6.818-1.209-10.219-1.168-10.189.124-18.484 6.463-21.547 16.199-2.664 8.471-2.837 17.013-.005 25.465 2.381 7.106 7.399 11.606 14.79 12.948 7.257 1.318 13.691-.479 18.627-6.323.179-.212.47-.33.862-.596.1.59.179.957.224 1.328q.543 4.529 5.074 4.686.293.011.586.017c2.435.041 2.624-.207 2.426-2.701-.267-3.363-.659-6.73-.674-10.097Zm-8.295-17.344c.002 3.897-.003 7.794.003 11.691.011 7.325-5.311 12.758-12.725 12.986-5.983.183-10.274-2.348-12.296-7.974-3.053-8.493-3.001-17.129.518-25.476 2.223-5.274 6.569-8.333 12.365-8.357 3.451-.014 6.915.912 10.356 1.51 1.333.232 1.834 1.153 1.808 2.566-.08 4.35-.029 8.703-.029 13.054"/></svg>