<svg xmlns="http://www.w3.org/2000/svg" width="250" height="58.849" fill="currentColor" viewBox="0 0 250 58.849"><path d="M49.695 53.178c.005-.483-.104-.622-.665-.608-3.458.08-6.919.076-10.378.128-.771.012-1.083-.278-1.07-1.055.029-1.765.047-3.532-.009-5.296-.024-.775.262-.935.973-.926 2.824.035 5.65-.016 8.474.034.817.014 1.038-.249.99-1.025a23 23 0 0 1 .003-3.07c.066-.872-.272-1.061-1.08-1.049-2.824.044-5.649.019-8.474.015-.41 0-.886.105-.871-.582.031-1.411.014-2.825.059-4.235.025-.78.385-1.184 1.272-1.158 3.172.095 6.353-.125 9.517.239.676.078.862-.164.842-.807-.039-1.235-.062-2.474.006-3.706.048-.865-.202-1.147-1.107-1.14q-8.05.06-16.101.002c-.939-.007-1.281.21-1.268 1.226.057 4.484.024 8.969.024 13.453q-.002 6.78.001 13.56c0 .474-.142 1.003.676 1 5.826-.019 11.653-.016 17.479 0 .579.001.716-.245.708-.764a171 171 0 0 1-.002-4.237Zm30.011-12.623c0-3.495-.027-6.989.019-10.483.011-.893-.28-1.171-1.151-1.13a39 39 0 0 1-3.916-.002c-.842-.044-1.072.226-1.065 1.064.039 4.801.019 9.601.019 14.402 0 .282.024.569-.018.845-.07.456-.339.533-.646.211-.24-.252-.416-.567-.61-.861-3.257-4.949-6.519-9.895-9.757-14.857-.369-.566-.783-.816-1.467-.799a88 88 0 0 1-4.87-.002c-.79-.024-1.041.248-1.031 1.034.038 2.753.015 5.506.015 8.26 0 6.247.025 12.495-.024 18.743-.008 1.01.309 1.275 1.255 1.209 1.089-.076 2.187-.019 3.281-.019q1.747 0 1.747-1.731V39.423c.296.382.407.511.502.65 3.833 5.625 7.511 11.351 10.892 17.261.376.656.766.876 1.483.851a51 51 0 0 1 4.234.004c.877.043 1.136-.223 1.13-1.115-.04-5.506-.02-11.013-.02-16.519Zm-56.103 2.747c-1.587.046-3.178.065-4.763-.006-.847-.038-.983.291-.97 1.037.043 2.364-.019 4.729.032 7.092.02.95-.361 1.459-1.247 1.661-3.029.691-7.044-.343-8.465-4.215-.982-2.675-1.079-5.427-.505-8.211.766-3.711 3.191-6.054 6.879-6.423 2.568-.257 5.154-.182 7.643.619.853.275 1.019.051.99-.767-.049-1.41-.016-2.823.015-4.234.013-.589-.156-.86-.8-.973-3.577-.63-7.162-.715-10.707.058-5.069 1.106-8.897 3.836-10.732 8.876-1.125 3.09-1.187 6.302-.64 9.495.865 5.051 3.638 8.669 8.543 10.387 4.977 1.743 9.975 1.36 14.938-.197.544-.171.678-.485.672-1.013-.023-2.046-.009-4.093-.01-6.14 0-2.047-.025-4.094.014-6.14.013-.684-.182-.928-.888-.908Zm106.156 9.294c-3.246.077-6.493.037-9.738.112-1.039.024-1.358-.348-1.318-1.353.066-1.656.051-3.317.002-4.975-.021-.73.189-.973.943-.962 2.858.041 5.718 0 8.576.03.665.007.953-.147.915-.873a28 28 0 0 1 .003-3.28c.055-.833-.27-.995-1.03-.983-2.752.042-5.507-.029-8.258.042-.973.025-1.213-.297-1.151-1.199.078-1.124.022-2.257.043-3.387.023-1.276.147-1.412 1.403-1.395 3.172.043 6.35-.141 9.514.226.542.063.757-.109.743-.683-.033-1.34-.05-2.684.006-4.023.031-.753-.231-.952-.961-.948-5.506.027-11.012.032-16.517-.004-.823-.005-.992.267-.987 1.033.034 4.518.016 9.035.016 13.553 0 4.553.019 9.106-.018 13.658-.006.795.218 1.01 1.009 1.005 5.647-.033 11.294-.031 16.941-.002.757.004.972-.235.94-.964a35 35 0 0 1 .003-3.598c.05-.859-.247-1.048-1.077-1.028Zm-22.457-23.653c-3.778.034-7.556.015-11.334.016-3.778 0-7.556.029-11.334-.021-.908-.012-1.145.281-1.105 1.142.066 1.41.023 2.824.016 4.236-.002.455.064.683.655.634 2.212-.181 4.427-.358 6.652-.326 1.649.024 1.666.022 1.666 1.651v20.549q0 1.345 1.391 1.345h3.601c1.761 0 1.746 0 1.763-1.71.069-6.845-.16-13.692.147-20.537.042-.943.365-1.305 1.325-1.313 2.297-.02 4.583.147 6.866.318.689.052.783-.149.776-.713-.018-1.412-.062-2.827.015-4.236.049-.895-.312-1.045-1.101-1.038Zm75.474 20.793c-2.526-6.653-5.053-13.306-7.562-19.965-.215-.571-.499-.845-1.15-.827-1.588.043-3.178.035-4.766.003-.561-.011-.812.213-.983.722-1.999 5.949-4.425 11.735-6.776 17.549-.932 2.306-1.923 4.588-2.888 6.884-.168-.074-.253-.084-.286-.13-1.946-2.727-3.882-5.462-5.838-8.182-.307-.426-.136-.601.251-.77 1.125-.49 1.999-1.311 2.828-2.186 3.292-3.478 2.651-9.512-1.318-12.182-2.081-1.4-4.43-1.931-6.913-1.979-3.46-.066-6.902.281-10.354.411-.714.027-.675.426-.675.904.003 9.11.01 18.22-.012 27.331-.002.742.292.878.939.863 1.588-.034 3.18-.068 4.766.01.928.046 1.101-.303 1.087-1.146-.049-2.86.001-5.72-.032-8.58-.008-.687.194-.877.889-.914 1.495-.081 2.339.813 3.117 1.852 2.03 2.71 4.057 5.422 6.053 8.157.333.455.677.624 1.226.619a413 413 0 0 1 8.474.005c.657.009.918-.244 1.129-.828.644-1.79 1.366-3.551 2.029-5.334.224-.602.545-.873 1.237-.863 2.825.041 5.65.037 8.474.002.649-.008.93.222 1.126.82.578 1.772 1.26 3.511 1.81 5.292.218.707.534.934 1.259.911a79 79 0 0 1 5.083 0c.849.029.934-.235.652-.952-.979-2.492-1.926-4.997-2.876-7.5Zm-35.914-7.471c-.943.151-1.891.157-2.84.199-.777.034-.983-.27-.924-.98.049-.596.01-1.199.01-2.03.058-1.282.137-2.794.188-4.307.016-.467.141-.844.597-1.018 2-.762 4.791-.06 5.786 1.394 1.749 2.556.225 6.255-2.817 6.741Zm27.235 3.596a684 684 0 0 0-4.962 0c-.418.001-.709-.06-.517-.592.903-2.498 1.809-4.994 3.019-7.599 1.1 2.654 2.043 5.139 2.9 7.659.166.488-.062.532-.44.531ZM225.991 0c-.876.296-1.703.572-2.505.841h2.29l.216-.841Zm-.864 3.461h-8.913a90 90 0 0 0-6.045 2.619h14.363q.28-1.305.594-2.619Zm23.701 1.857c-.053-.389-.215-.509-.626-.499a58.7 58.7 0 0 0-12.934 1.739c-4.043 1.014-7.864 2.599-11.618 4.373q.162-1.119.365-2.231h-18.79a31 31 0 0 0-3.797 2.62h21.832l-.027.062c-.111.024-.22.052-.317.104a55 55 0 0 0-4.117 2.454h-20.153a21.6 21.6 0 0 0-2.04 2.619h18.55a51 51 0 0 0-3.06 2.604l-.017.016H195.14a20 20 0 0 0-1.008 2.619h15.286a56 56 0 0 0-2.339 2.619H193.5q-.225 1.27-.314 2.62h11.835a53 53 0 0 0-1.811 2.619h-10.068l.004.152q.044 1.236.137 2.467h8.337q-.731 1.285-1.393 2.619h-6.691q.154 1.314.357 2.62h5.117a59 59 0 0 0-1.069 2.619h-3.594q.174.91.368 1.817.085.4.156.803h2.166a36 36 0 0 0-.707 2.62h-.928c.126.456.282.903.487 1.339.329 2.251 1.37 4.198 2.749 5.939 3.372 4.261 7.893 5.86 13.213 5.48 2.685.084 5.246-.572 7.754-1.41 7.118-2.379 13.322-6.359 19.069-11.097 3.664-3.022 6.653-6.599 8.618-10.962 1.49-3.307 2.265-6.794 2.531-10.402.504-6.358-.143-12.655-.994-18.942Z"/></svg>