<svg xmlns="http://www.w3.org/2000/svg" width="250" height="92.59" data-name="Capa 9" viewBox="0 0 250 92.59" fill="currentColor"><path fill="none" d="M0 0h250v92.593H0z"/><path d="M72.122 7.886q1.362.918 2.643 1.913l-7.328 10.108a32 32 0 0 0-2.643-1.913z"/><path d="M72.122 7.886q1.362.918 2.643 1.913l-7.328 10.108a32 32 0 0 0-2.643-1.913zM28.124 3.7l3.878 11.933a33.3 33.3 0 0 1 7.817-2.54L35.945 1.164a46 46 0 0 0-7.821 2.537Z"/><path d="m28.124 3.7 3.878 11.933a33.3 33.3 0 0 1 7.817-2.54L35.945 1.164a46 46 0 0 0-7.821 2.537ZM55.313 13.701a33 33 0 0 1 2.803.907l3.855-11.86a47 47 0 0 0-2.803-.911z"/><path d="M55.313 13.701a33 33 0 0 1 2.803.907l3.855-11.86a47 47 0 0 0-2.803-.911zM16.909 29.536a34 34 0 0 1 4.356-6.007l-10.123-7.357a46 46 0 0 0-4.368 5.999z"/><path d="M16.909 29.536a34 34 0 0 1 4.356-6.007l-10.123-7.357a46 46 0 0 0-4.368 5.999zM23.379 21.41a34 34 0 0 1 6.314-4.591L22.327 6.68a46.7 46.7 0 0 0-6.314 4.591z"/><path d="M23.379 21.41a34 34 0 0 1 6.314-4.591L22.327 6.68a46.7 46.7 0 0 0-6.314 4.591zM89.675 30.171 77.8 34.035a33 33 0 0 1 1.182 3.623l11.856-3.864a45 45 0 0 0-1.178-3.623"/><path d="M89.675 30.171 77.8 34.035a33 33 0 0 1 1.182 3.623l11.856-3.864a45 45 0 0 0-1.178-3.623M12.46 46.297c0-1.148.061-2.246.168-3.348H.122a46 46 0 0 0 0 6.696h12.506a35 35 0 0 1-.168-3.348"/><path d="M12.46 46.297c0-1.148.061-2.246.168-3.348H.122a46 46 0 0 0 0 6.696h12.506a35 35 0 0 1-.168-3.348M80.094 46.297c0 .708-.027 1.412-.073 2.108h12.487q.048-1.045.05-2.108c.002-1.063-.019-1.412-.05-2.112H80.021c.046.7.073 1.4.073 2.112"/><path d="M80.094 46.297c0 .708-.027 1.412-.073 2.108h12.487q.048-1.045.05-2.108c.002-1.063-.019-1.412-.05-2.112H80.021c.046.7.073 1.4.073 2.112M13.203 39.25a33.4 33.4 0 0 1 2.18-6.703l-11.91-3.872a46 46 0 0 0-2.176 6.707z"/><path d="M13.203 39.25a33.4 33.4 0 0 1 2.18-6.703l-11.91-3.872a46 46 0 0 0-2.176 6.707zM72.545 24.999q1.141 1.409 2.126 2.931l10.104-7.342a44 44 0 0 0-2.123-2.931l-10.108 7.342Z"/><path d="M72.545 24.999q1.141 1.409 2.126 2.931l10.104-7.342a44 44 0 0 0-2.123-2.931l-10.108 7.342ZM41.956.203v12.549a36 36 0 0 1 4.325-.287c1.447 0 2.892.096 4.326.287V.203A50 50 0 0 0 46.282 0a42 42 0 0 0-4.325.203Z"/><path d="M41.956.203v12.549a36 36 0 0 1 4.325-.287c1.447 0 2.892.096 4.326.287V.203A50 50 0 0 0 46.282 0a42 42 0 0 0-4.325.203ZM68.347 71.919a34 34 0 0 1-3.951 2.938l7.355 10.093a46 46 0 0 0 3.958-2.923z"/><path d="M68.347 71.919a34 34 0 0 1-3.951 2.938l7.355 10.093a46 46 0 0 0 3.958-2.923zM15.238 59.73a33.4 33.4 0 0 1-1.962-6.053L1.374 57.545a46 46 0 0 0 1.966 6.052z"/><path d="M15.238 59.73a33.4 33.4 0 0 1-1.962-6.053L1.374 57.545a46 46 0 0 0 1.966 6.052zM59.043 77.627a33.5 33.5 0 0 1-4.681 1.53l3.863 11.887a47 47 0 0 0 4.681-1.53z"/><path d="M59.043 77.627a33.5 33.5 0 0 1-4.681 1.53l3.863 11.887a47 47 0 0 0 4.681-1.53zM79.067 54.637a33 33 0 0 1-1.381 4.208l11.879 3.868a45 45 0 0 0 1.373-4.228l-11.871-3.849Z"/><path d="M79.067 54.637a33 33 0 0 1-1.381 4.208l11.879 3.868a45 45 0 0 0 1.373-4.228l-11.871-3.849ZM74.955 64.229a34 34 0 0 1-2.731 3.799l10.104 7.334a46 46 0 0 0 2.75-3.784z"/><path d="M74.955 64.229a34 34 0 0 1-2.731 3.799l10.104 7.334a46 46 0 0 0 2.75-3.784zM21.447 85.37l7.347-10.112a34.4 34.4 0 0 1-4.639-3.386l-7.347 10.119a47 47 0 0 0 4.639 3.378Z"/><path d="m21.447 85.37 7.347-10.112a34.4 34.4 0 0 1-4.639-3.386l-7.347 10.119a47 47 0 0 0 4.639 3.378ZM20.813 68.54a34 34 0 0 1-3.561-4.886L7.14 71.007a46.5 46.5 0 0 0 3.553 4.886z"/><path d="M20.813 68.54a34 34 0 0 1-3.561-4.886L7.14 71.007a46.5 46.5 0 0 0 3.553 4.886zM38.454 79.207a33.5 33.5 0 0 1-5.186-1.68l-3.863 11.891a46 46 0 0 0 5.186 1.683z"/><path d="M38.454 79.207a33.5 33.5 0 0 1-5.186-1.68l-3.863 11.891a46 46 0 0 0 5.186 1.683zM48.869 92.513V80.014c-.857.065-1.717.107-2.589.107s-1.736-.042-2.593-.107v12.499a45 45 0 0 0 5.182 0"/><path d="M48.869 92.513V80.014c-.857.065-1.717.107-2.589.107s-1.736-.042-2.593-.107v12.499a45 45 0 0 0 5.182 0M40.903 26.544q-.941.25-1.851.597l-3.503-10.762a34 34 0 0 1 1.851-.597zm5.377-12.04c-.765 0-1.53.038-2.26.088v11.351a20.3 20.3 0 0 1 4.521 0V14.584a34 34 0 0 0-2.26-.088m11.883 2.296a31.5 31.5 0 0 0-4.173-1.358l-3.507 10.804c1.435.301 2.832.756 4.169 1.358zm8.471 5.073a33 33 0 0 0-3.442-2.498l-6.674 9.182a20.3 20.3 0 0 1 3.442 2.498zm-38.176-1.913c-.574.383-1.147.803-1.679 1.232l6.655 9.159a21 21 0 0 1 1.687-1.224l-6.662-9.167Zm44.686 9.347a32 32 0 0 0-2.417-3.332l-9.179 6.676a20.6 20.6 0 0 1 2.421 3.328zm-57.425 8.26 10.77 3.497q.3-1.138.731-2.234L16.44 35.321a32 32 0 0 0-.719 2.238Zm50.935 10.64h11.344c.038-.635.061-1.274.061-1.913s-.023-1.286-.061-1.913H66.655c.057.635.092 1.274.092 1.913s-.034 1.289-.092 1.913M21.26 26.709a32 32 0 0 0-1.312 1.783l9.179 6.661q.602-.934 1.304-1.794L21.26 26.71Zm4.589 18.364H14.528c0 .413-.031.826-.031 1.243s0 .83.031 1.243h11.324q-.036-.618-.038-1.243c-.002-.625 0-.834.038-1.243m.593 26.073c.765.604 1.53 1.175 2.337 1.706l6.659-9.182a21 21 0 0 1-2.337-1.706zm8.59 4.908a32 32 0 0 0 2.88.933l3.503-10.785a20.4 20.4 0 0 1-2.88-.933zM19.779 63.857a33 33 0 0 0 1.622 2.23l9.179-6.661a20 20 0 0 1-1.618-2.234zm-4.1-8.968q.352 1.27.803 2.498l10.781-3.505a20 20 0 0 1-.815-2.491l-10.77 3.497Zm30.596 23.219c.532 0 1.056 0 1.583-.042V66.719c-.524.042-1.052.069-1.583.069s-1.059-.027-1.583-.069v11.347q.786.041 1.583.042M77.062 38.4a32 32 0 0 0-1.239-3.784L65.03 38.124a20.3 20.3 0 0 1 1.228 3.787zM54.497 77.041a32 32 0 0 0 3.136-1.022L54.13 65.234a20 20 0 0 1-3.14 1.014zm21.368-19.129a31 31 0 0 0 1.147-3.524l-10.797-3.512a20.3 20.3 0 0 1-1.147 3.531zm-4.972 8.532a32 32 0 0 0 2.096-2.892l-9.179-6.665a21 21 0 0 1-2.104 2.885zm-7.355 6.557a32 32 0 0 0 2.78-2.02l-6.666-9.182a20.7 20.7 0 0 1-2.777 2.028zM114.959 37.857h-6.452v37.256h6.452zM122.505 56.707c0-11.221 8.506-19.73 19.505-19.73 6.376 0 12.315 2.789 15.906 7.923l-5.132 3.887c-3.003-4.036-6.743-5.942-10.851-5.942-7.11 0-12.755 5.647-12.755 13.643 0 8.138 5.79 13.639 12.831 13.639 4.544 0 8.651-2.273 11.508-6.232l4.914 3.592c-3.594 5.429-9.607 8.509-16.499 8.509-11.217 0-19.428-8.141-19.428-19.29ZM200.004 57.954h-31.086c.513 7.847 5.718 12.323 13.195 12.323 5.061 0 9.18-2.055 12.319-6.309l4.616 3.52c-3.591 5.356-9.603 8.509-17.079 8.509-11.657 0-19.651-7.847-19.651-19.217 0-11.588 8.36-19.803 19.722-19.803 10.632 0 18.183 7.269 18.183 18.188.008.934-.065 1.867-.218 2.789Zm-30.722-5.574h24.343c-.952-6.454-5.205-9.829-11.585-9.829-6.524 0-11.29 3.596-12.758 9.829M205.279 70.055l4.105-4.84a18.5 18.5 0 0 0 12.463 4.974c4.972 0 7.993-2.272 7.993-5.356 0-2.2-1.614-3.96-6.378-5.062l-6.525-1.465c-7.48-1.687-10.632-4.916-10.632-9.974 0-6.749 5.573-11.37 14.296-11.37 6.012 0 11.585 2.127 15.103 5.942l-4.325 4.472a15.397 15.397 0 0 0-11.219-4.599c-4.91 0-7.549 2.051-7.549 5.062 0 2.2 1.392 3.592 6.525 4.767l6.524 1.465c7.55 1.687 10.483 5.134 10.483 10.269 0 6.967-5.355 11.661-14.533 11.661-6.38 0-12.62-2.273-16.349-5.942M250 37.857h-6.452v37.256H250zM108.507 23.682v-6.504h1.962v6.297c0 1.947.956 2.877 2.581 2.877s2.57-.93 2.57-2.877v-6.297h1.962v6.504c0 2.912-1.733 4.518-4.532 4.518s-4.532-1.607-4.532-4.518M127.501 23.265v4.752h-1.855v-4.35c0-1.362-.65-2.043-1.687-2.043a2.55 2.55 0 0 0-1.951.93v5.463h-1.855v-7.923h1.855v.666a3.78 3.78 0 0 1 2.413-.853c1.824 0 3.079 1.224 3.079 3.359ZM129.698 17.848a1.206 1.206 0 0 1 1.209-1.175 1.183 1.183 0 0 1 1.119 1.184 1.19 1.19 0 0 1-1.119 1.185 1.204 1.204 0 0 1-1.116-.733 1.2 1.2 0 0 1-.093-.46Zm.264 2.246h1.859v7.923h-1.847zM141.907 20.094l-3.266 7.923h-1.981l-3.278-7.923h2.057l2.212 5.647 2.214-5.647zM150.937 24.52h-6.265c.153 1.347 1.067 2.089 2.429 2.089a2.856 2.856 0 0 0 2.333-1.148l1.3.991a4.38 4.38 0 0 1-3.668 1.733c-2.566 0-4.253-1.668-4.253-4.082a4.07 4.07 0 0 1 4.238-4.208c2.295 0 3.933 1.53 3.933 3.918a5 5 0 0 1-.046.696m-6.173-1.393h4.329c-.198-1.117-.956-1.657-2.073-1.657a2.18 2.18 0 0 0-2.271 1.656M157.945 20.017l-.107 1.718a4.3 4.3 0 0 0-.726-.08 2.48 2.48 0 0 0-2.184 1.209v5.153h-1.855v-7.923h1.855v.849a2.78 2.78 0 0 1 2.198-1.037q.418 0 .819.111M159.165 27.042l.96-1.393a4.37 4.37 0 0 0 2.616.96c.864 0 1.361-.356 1.361-.853 0-.383-.279-.65-1.098-.834l-1.377-.325c-1.595-.383-2.245-1.067-2.245-2.165 0-1.504 1.209-2.525 3.171-2.525a4.87 4.87 0 0 1 3.282 1.148l-1.007 1.316a3.77 3.77 0 0 0-2.352-.884c-.833 0-1.27.325-1.27.803 0 .356.249.574 1.102.765l1.377.325c1.606.383 2.257 1.098 2.257 2.227 0 1.53-1.19 2.567-3.263 2.567a5.6 5.6 0 0 1-3.515-1.148M167.675 17.848a1.206 1.206 0 0 1 1.208-1.175 1.18 1.18 0 0 1 1.08.751 1.188 1.188 0 0 1-.887 1.601 1.185 1.185 0 0 1-1.401-1.178Zm.263 2.246h1.856v7.923h-1.856zM179.927 16.597v11.42h-1.858v-.604c-.642.521-1.446.8-2.271.788-2.169 0-3.947-1.733-3.947-4.147s1.778-4.147 3.947-4.147a3.5 3.5 0 0 1 2.271.792v-4.101h1.858Zm-1.858 8.964v-3.034a2.54 2.54 0 0 0-1.996-.914 2.296 2.296 0 0 0-2.333 2.43c0 1.488 1.021 2.449 2.333 2.449a2.56 2.56 0 0 0 1.996-.93ZM190.076 20.094v7.923h-1.855v-.604a3.52 3.52 0 0 1-2.275.788c-2.165 0-3.943-1.733-3.943-4.147s1.778-4.147 3.943-4.147a3.52 3.52 0 0 1 2.275.792v-.605zm-1.855 5.467v-3.034a2.56 2.56 0 0 0-1.997-.914 2.443 2.443 0 0 0-2.344 2.438 2.437 2.437 0 0 0 2.344 2.439 2.57 2.57 0 0 0 1.996-.93ZM200.223 16.597v11.42h-1.854v-.604a3.53 3.53 0 0 1-2.295.788c-2.165 0-3.943-1.733-3.943-4.147s1.778-4.147 3.943-4.147a3.53 3.53 0 0 1 2.295.792v-4.101h1.854Zm-1.854 8.964v-3.034a2.56 2.56 0 0 0-1.998-.914 2.437 2.437 0 0 0-2.342 2.438 2.44 2.44 0 0 0 2.342 2.439 2.58 2.58 0 0 0 1.997-.93Z"/></svg>