<svg xmlns="http://www.w3.org/2000/svg" width="250" height="79.319" fill="currentColor" viewBox="0 0 250 79.319"><path d="M83.838 52.989c1.686-.771 3.625-1.6 5.514-2.531 7.953-3.918 14.916-9.239 21.409-15.205 2.306-2.119 4.543-4.314 6.804-6.481 6.959-6.67 15.267-9.986 24.908-9.987.484 0 .977.008 1.451.093 1.315.237 2.132 1.23 2.103 2.49-.03 1.268-.876 2.216-2.219 2.383-1.181.146-2.386.131-3.557.325-7.562 1.253-13.542 5.146-18.169 11.138-2.123 2.749-3.371 5.885-3.2 9.453.18 3.767 2.425 5.816 6.208 5.579 3.428-.215 6.198-1.894 8.705-4.089 4.019-3.518 6.19-8.065 7.331-13.181.144-.645.27-1.297.466-1.927.489-1.566 1.891-2.406 3.365-2.055 1.534.365 2.368 1.632 2.199 3.281-.313 3.063-.826 6.125-.863 9.192-.063 5.371 1.836 7.864 6.91 9.698 4.82 1.742 9.735 1.466 14.646.534 7.715-1.464 14.89-4.382 21.663-8.301 7.682-4.445 15.351-8.909 23.695-12.052 7.006-2.639 14.177-4.331 21.741-3.857 3.944.247 7.662 1.264 11.095 3.215a13.5 13.5 0 0 1 2.631 1.981c1.12 1.069 1.661 2.403 1.098 3.963-.592 1.638-1.773 2.701-3.516 2.795-1.483.08-3.071.137-4.46-.291-10.452-3.22-20.513-1.263-30.311 2.468-8.203 3.124-16.189 6.811-24.295 10.191-5.259 2.193-10.565 4.311-16.224 5.235-6.527 1.066-13.032.921-19.405-1.04-4.774-1.469-8.716-4.038-10.959-8.97-.585.646-1.045 1.146-1.496 1.654-3.546 3.989-7.542 7.336-12.876 8.641-3.525.862-7.025.685-10.381-.785-5.024-2.201-7.306-6.691-6.399-12.465.064-.41.114-.822.22-1.588-.669.492-1.052.758-1.419 1.045-5.108 4.01-10.289 7.92-16.106 10.874a65 65 0 0 1-6.412 2.837c-1.125.426-1.565.934-1.553 2.174.033 3.288-.541 6.493-1.83 9.545-2.888 6.836-9.817 11.039-16.763 10.257-4-.45-6.969-2.315-8.374-6.124-1.46-3.957-.54-7.564 2.266-10.669 2.727-3.018 6.293-4.625 10.101-5.78 1.128-.342 2.271-.633 3.698-1.029L64.027 38.47c-1.67 1.529-3.151 2.891-4.638 4.246-7.776 7.084-15.841 13.801-24.904 19.217-4.948 2.957-10.101 5.474-15.852 6.477-5.535.965-10.6.085-14.601-4.192C1 60.975.092 56.898.006 52.614c-.094-4.719.889-9.288 2.252-13.778 1.67-5.502 3.867-10.796 6.661-15.821.664-1.194 1.616-2.336 2.694-3.166 1.729-1.33 3.671-1.222 5.155-.07 1.501 1.164 2.157 3.197 1.495 5.122-.745 2.167-1.655 4.276-2.431 6.433-2.151 5.977-4.287 11.967-5.102 18.308-.223 1.737-.259 3.522-.161 5.272.165 2.96 1.566 4.617 4.442 5.351 3.386.864 6.751.444 10.083-.399 4.772-1.207 9.041-3.491 13.145-6.129a132.8 132.8 0 0 0 22.509-18.183c.715-.72.892-1.269.491-2.276-1.479-3.718-2.035-7.589-1.137-11.535 1.349-5.929 7.804-8.802 13.221-5.957 2.867 1.506 4.153 4.544 3.354 8.018-.578 2.514-1.841 4.677-3.645 6.494-.691.696-.752 1.254-.283 2.07.967 1.681 1.865 3.403 2.782 5.113 2.724 5.081 5.444 10.165 8.306 15.51Zm-8.191 7.051c-3.289.431-5.96 1.171-8.236 2.84-1.143.838-2.129 1.959-2.98 3.104-.734.989-.955 2.244-.059 3.31.866 1.03 2.035.703 3.062.314 3.119-1.183 5.556-3.217 7.105-6.185.486-.931.672-2.019 1.107-3.384Zm-5.909-33.328c2.211-1.304 3.557-4.06 2.804-5.955-.273-.687-1.102-1.495-1.765-1.582-.56-.074-1.567.684-1.821 1.301-.892 2.168-.287 4.232.782 6.237ZM25.961 5.667c-.02 3.214-2.449 5.817-5.738 5.581-2.956-.212-5.915-.837-8.786-1.604-1.941-.518-3.761-1.694-3.721-4.077.038-2.287 1.828-3.271 3.68-4.016C14.469.317 17.693-.123 20.982.029c2.862.132 4.998 2.617 4.979 5.639Z"/></svg>