<svg xmlns="http://www.w3.org/2000/svg" width="160" height="159.981" fill="currentColor" viewBox="0 0 160 159.981"><path d="M69.563.101c-4.606.11-7.985.271-14.179.653-2.865.171-5.992.423-8.195.643-.553.06-1.709.171-2.564.252-3.59.352-8.92 1.025-11.161 1.407-.473.081-1.167.192-1.558.252-.382.051-1.067.171-1.509.252s-1.186.222-1.659.301c-1.66.282-4.485.855-6.084 1.238-.443.111-1.238.301-1.76.423-.523.12-.995.231-1.055.241-2.948.703-5.874 2.122-8.126 3.962-2.192 1.78-4.152 4.656-5.138 7.511-.16.442-.322.895-.372 1.006-.171.382-.915 3.599-1.449 6.235-.079.442-.22 1.095-.301 1.458-.081.361-.19.995-.261 1.407-.061.412-.141.915-.192 1.106-.151.574-.764 4.495-1.157 7.341a221 221 0 0 0-.854 6.788c-.111.995-.222 1.97-.241 2.162a78 78 0 0 0-.211 2.162 89 89 0 0 1-.262 2.715C1.064 51.465.541 59.52.28 65.202c-.201 4.212-.332 13.233-.261 18.15.07 6.133.22 11.614.361 13.525.051.774.151 2.404.211 3.62s.141 2.775.192 3.469c.231 3.479.412 5.761.502 6.485.051.443.171 1.62.252 2.604.081.986.201 2.162.252 2.615.06.453.171 1.428.25 2.173.252 2.383.443 3.941.604 4.978.081.553.222 1.498.301 2.111.292 2.212.634 4.363 1.006 6.335.081.442.211 1.187.302 1.659.171 1.005.563 3.007.845 4.273.965 4.435 1.387 5.761 2.524 7.944.311.603.713 1.307.895 1.558.171.252.422.613.553.805.574.854 2.213 2.524 3.118 3.168.15.11.442.32.632.472.202.16.393.281.443.281.04 0 .141.07.22.152.393.382 3.158 1.699 4.344 2.051.222.07.493.16.604.211.262.12 1.739.492 3.52.895.775.181 1.569.372 1.759.422.463.12 3.379.703 5.581 1.106 1.266.231 3.731.623 5.279.845.583.079 1.328.19 1.659.25 1.217.211 6.245.796 9.402 1.097 1.136.111 2.534.241 3.117.301.945.1 1.911.181 6.536.513.694.051 2.273.141 3.52.202 1.247.06 2.987.15 3.872.201 7.159.412 27.632.412 34.691 0 .885-.06 2.625-.141 3.872-.201 2.141-.1 2.926-.151 6.284-.403 4.303-.331 10.63-.945 12.771-1.247.613-.09 1.669-.231 2.363-.322 2.564-.331 6.084-.865 8.094-1.236 2.203-.403 5.118-.986 5.582-1.106.19-.051.985-.241 1.759-.422 1.739-.393 3.248-.775 3.519-.895q.5-.18 1.006-.352c.824-.271 3.56-1.569 3.791-1.79.07-.07.271-.22.442-.322.785-.492 1.146-.773 1.861-1.418.805-.734 1.921-1.94 2.192-2.353.09-.141.332-.482.532-.754.211-.281.382-.533.382-.574s.162-.322.352-.624c.192-.301.423-.744.514-.986.1-.231.2-.482.241-.532.19-.252.895-2.253 1.196-3.39.473-1.759 1.357-5.912 1.68-7.874.081-.502.171-.974.201-1.055.091-.222.644-3.671 1.146-7.189.111-.775.222-1.549.252-1.71.081-.463.442-3.55.604-5.179.079-.805.19-1.73.25-2.062.061-.333.171-1.418.252-2.414.081-.995.192-2.222.241-2.715.06-.502.151-1.648.211-2.564a83 83 0 0 1 .201-2.514c.061-.472.171-2.212.252-3.871.091-1.66.192-3.701.252-4.525.452-7.311.452-26.497 0-34.038-.051-.856-.141-2.534-.201-3.721a228 228 0 0 0-.202-3.47c-.06-.724-.19-2.504-.301-3.971s-.222-2.847-.252-3.067c-.03-.222-.12-1.197-.201-2.162s-.171-1.87-.201-2.011-.141-1.067-.252-2.062c-.26-2.404-.583-5.057-.653-5.369a60 60 0 0 1-.252-1.771c-.493-3.76-1.407-8.999-2.192-12.569-.111-.503-.291-1.317-.402-1.81-.282-1.287-.614-2.585-.724-2.816a7 7 0 0 1-.211-.604c-.222-.743-1.338-3.228-1.619-3.62-.041-.06-.361-.532-.704-1.055-.713-1.076-2.543-2.987-3.64-3.791-2.171-1.599-4.585-2.685-7.702-3.449a145 145 0 0 1-1.609-.403c-.372-.11-1.117-.271-2.715-.603q-.68-.142-1.357-.292c-1.941-.472-8.256-1.498-12.368-2.021-.826-.1-1.639-.211-1.81-.25-.302-.061-1.76-.211-4.726-.503-.826-.081-1.961-.201-2.514-.252-.553-.06-1.549-.15-2.212-.211-.664-.049-1.75-.141-2.414-.19C105.975.801 99.72.44 96.261.289 89.573 0 77.225-.09 69.563.101M25.259 68.046c.06.049.352.141.643.211.544.131 1.308.483 1.88.865.453.301 1.519 1.448 1.729 1.85.102.201.211.382.241.412.031.03.121.231.202.452.07.22.16.453.211.502.13.192.282 1.387.282 2.273 0 .865-.132 1.88-.302 2.252-.542 1.247-.805 1.659-1.488 2.384-.634.653-.895.854-1.759 1.277-.704.352-1.208.533-1.609.572-.322.04-.604.111-.634.152-.07.121-2.252.121-2.252 0 0-.041-.252-.111-.574-.152-.311-.039-.703-.13-.874-.201a10 10 0 0 0-.664-.271c-.192-.07-.373-.151-.403-.181-.03-.04-.181-.13-.352-.211-.583-.291-1.789-1.629-2.141-2.363-.192-.392-.372-.775-.422-.854-.342-.684-.402-3.801-.081-4.525.091-.192.222-.512.292-.704.07-.19.151-.372.181-.401s.15-.232.261-.453c.192-.373 1.387-1.66 1.558-1.66.04 0 .132-.07.202-.16.19-.212 1.166-.684 1.759-.835.281-.071.593-.171.704-.222.111-.049.382-.1.603-.13.593-.06 2.676.03 2.806.121Zm109.565 7.008v5.078h-19.507v-6.797l1.086-.172c2.403-.372 3.902-.623 3.992-.683.06-.04.553-.12 1.106-.19s1.056-.162 1.106-.202c.061-.039.533-.13 1.056-.201.523-.06 1.206-.181 1.509-.261.301-.07.935-.181 1.407-.241.473-.061.945-.151 1.056-.192.111-.049.613-.141 1.106-.211.503-.06 1.065-.15 1.257-.211.19-.05.915-.19 1.609-.301s1.599-.26 2.011-.331c.412-.081.854-.141.985-.151l.221-.01v5.078Zm-83.26 4.485v6.024h10.055v8.95H51.554l.039 9.322c.031 10.045.01 9.552.554 10.789.412.956 1.578 1.931 2.583 2.173.171.04.363.12.443.181.19.15 4.263.15 4.444-.01.079-.06.442-.141.824-.181l.674-.07v8.819l-.272.12c-.25.111-1.407.292-2.996.482-2.262.262-6.386.292-6.627.04-.06-.049-.22-.09-.372-.09-.393 0-2.021-.302-2.143-.393-.06-.04-.331-.141-.613-.201-.271-.07-.542-.162-.604-.201-.05-.051-.28-.141-.502-.211s-.423-.162-.453-.192-.211-.141-.403-.252c-.835-.442-1.085-.602-1.528-.975-.261-.211-.502-.391-.553-.391-.1-.011-.865-.845-1.467-1.609-.463-.594-1.147-1.729-1.378-2.314-.081-.19-.171-.372-.201-.402-.04-.03-.141-.342-.241-.704a7 7 0 0 0-.262-.854c-.049-.111-.171-.563-.25-1.005q-.128-.63-.272-1.257c-.07-.301-.12-3.842-.15-10.538l-.04-10.075h-5.823v-8.95h5.833V75.427l.683-.07c.372-.039.724-.11.775-.15.06-.04.553-.13 1.106-.201.553-.07 1.056-.172 1.106-.211.06-.04.694-.152 1.408-.241.724-.102 1.358-.211 1.407-.252.06-.04.393-.111.754-.141q.71-.085 1.408-.231c1.076-.222 2.956-.514 3.046-.463.04.02.07 2.756.07 6.073Zm33.335 5.068c1.407.081 2.997.262 3.117.352.06.04.301.111.553.141.574.091 1.972.503 2.815.845.704.282 2.273 1.066 2.514 1.268.081.06.261.18.402.241.141.07.584.421.975.765.393.352.755.653.805.673.152.07 1.941 2.243 1.941 2.363 0 .03.091.192.202.342.211.302 1.106 2.042 1.106 2.153 0 .039.081.261.19.492.1.232.222.584.262.775s.111.393.15.452c.04.051.132.372.202.704.06.331.141.674.171.754.04.081.13.512.211.956.12.664.15 3.168.19 14.248l.04 13.454h-10.97l-.01-1.186a41 41 0 0 0-.081-2.071l-.06-.905-.292.402c-.462.614-1.981 2.061-2.584 2.463-1.318.866-1.669 1.076-2.032 1.197-.222.06-.512.181-.653.26a4.5 4.5 0 0 1-.825.252c-.301.07-.603.162-.653.201-.512.382-6.848.373-7.341-.009-.049-.04-.412-.13-.805-.201-.382-.07-.835-.181-1.005-.262-.16-.07-.594-.252-.944-.393q-.606-.264-1.186-.583a17 17 0 0 0-.815-.472c-.422-.232-.563-.363-1.709-1.509-1.176-1.176-1.328-1.336-1.328-1.447 0-.04-.131-.262-.28-.493a7 7 0 0 1-.514-.926c-.12-.28-.281-.613-.352-.754-.079-.141-.19-.502-.261-.805-.07-.301-.16-.603-.201-.653-.111-.141-.302-1.569-.302-2.192 0-.29-.049-.583-.11-.643-.121-.122-.091-.523.22-2.948.06-.472.151-.905.192-.954.04-.06.13-.322.19-.593a8 8 0 0 1 .685-1.72c.09-.171.21-.402.271-.523.06-.13.141-.231.19-.231.04 0 .07-.06.07-.131 0-.111 1.106-1.549 1.298-1.68.04-.03.111-.13.141-.231.04-.111.16-.211.271-.241s.201-.091.201-.132c0-.1 1.69-1.428 2.262-1.759.412-.251 1.338-.723 2.685-1.368.192-.1 2.071-.703 2.896-.935.301-.09.895-.212 1.307-.271.412-.07.805-.151.855-.19.06-.041.663-.132 1.358-.192.694-.06 1.548-.16 1.91-.211 1.428-.211 6.445-.171 6.978.051.181.079.19.04.12-.815-.039-.493-.11-.915-.15-.945-.051-.03-.111-.22-.151-.422-.07-.372-.453-1.185-.814-1.74-.232-.351-1.208-1.358-1.318-1.358-.039 0-.21-.1-.382-.231-.442-.322-1.155-.643-1.588-.724-.211-.04-.382-.111-.382-.151 0-.442-6.496-.512-8.446-.08-.252.05-.835.16-1.307.241-.473.079-.945.19-1.056.241-.111.049-.472.141-.805.201-.331.06-.694.151-.805.201s-.512.162-.895.252c-.382.09-.744.19-.805.241-.06.041-.331.141-.613.211-.271.07-.553.171-.604.211-.06.04-.332.13-.604.201-.28.06-.673.201-.874.301-.211.111-.403.192-.433.192s-.051-2.102-.051-4.666c0-3.631.031-4.686.132-4.767.07-.06.352-.16.623-.231.282-.06.553-.151.603-.192.061-.04.393-.16.755-.252.361-.1.703-.21.754-.25.06-.051.372-.132.694-.201.333-.07.674-.162.754-.211.091-.04.503-.151.915-.241q.48-.094.956-.211c.11-.031.673-.121 1.256-.202.584-.079 1.197-.19 1.357-.241.584-.18 5.853-.512 7.039-.442l1.609.09Zm-55.457 20.967v20.01H17.678V85.563h11.764zm88.891-7.543c0 11.906.051 14.209.292 14.531.049.05.111.25.151.442.141.753.794 1.85 1.537 2.594.393.403.835.754.975.794.151.031.262.091.262.132 0 .039.352.18.784.32.644.202.986.241 1.991.241.704 0 1.317-.049 1.458-.11.13-.07.442-.171.694-.241a4.2 4.2 0 0 0 1.006-.484c.563-.361 1.609-1.326 1.609-1.488 0-.049.141-.271.301-.482.171-.222.302-.442.302-.502 0-.061.09-.272.19-.473.111-.201.231-.542.271-.754.03-.222.1-.442.151-.493.252-.322.292-2.353.292-14.148V85.562h11.764v40.021h-5.571c-4.353 0-5.601-.03-5.661-.131-.041-.06-.09-1.016-.111-2.112-.02-1.086-.07-1.981-.11-1.981s-.162.12-.281.271c-.564.765-1.449 1.629-2.836 2.775-.201.16-.613.382-1.518.824-.412.201-.865.433-1.006.503s-.523.181-.856.252c-.331.07-.623.16-.653.201-.1.15-1.88.301-3.64.301-1.729 0-3.137-.12-3.55-.292a8 8 0 0 0-.855-.261c-.361-.09-.694-.211-.754-.252-.049-.04-.291-.141-.523-.211-.241-.06-.432-.15-.432-.19s-.181-.13-.403-.201c-.22-.07-.402-.162-.402-.202 0-.039-.111-.12-.241-.18-.865-.392-2.826-2.232-3.65-3.419-.503-.724-1.278-2.173-1.438-2.705a6 6 0 0 0-.252-.684 6 6 0 0 1-.252-.805c-.06-.28-.15-.573-.201-.673-.049-.091-.141-.564-.201-1.056-.06-.483-.171-.975-.231-1.086-.091-.15-.132-3.74-.151-14.46l-.03-14.248h11.775v12.468Z"/><path d="M83.59 107.796c-.491.05-.995.13-1.106.18-.111.061-.472.151-.805.221-.321.06-.754.181-.955.271-1.509.653-2.243 1.086-2.745 1.609-.483.503-.966 1.439-1.046 2.021a2 2 0 0 1-.151.573c-.111.232-.07.945.111 1.88.201 1.016 1.006 2.253 1.719 2.625 1.268.653 1.509.753 2.213.865 1.266.19 3.68.081 4.203-.201.09-.051.463-.222.824-.382.363-.171.835-.443 1.056-.614s.472-.372.563-.442c.573-.432 1.629-2.182 1.77-2.905.03-.181.111-.393.171-.473.07-.09.12-1.016.141-2.675l.04-2.534-.543-.06c-.734-.091-4.353-.06-5.46.04Z"/></svg>