<svg xmlns="http://www.w3.org/2000/svg" width="250" height="159.391" viewBox="0 0 250 159.391" fill="currentColor"><path d="M89.625 80.25c-4.5 0-6.687 1.312-6.687 4 0 2.938 1.875 4.375 5.625 4.375 2.625 0 5.188-.562 7.625-1.562v-6.437a58 58 0 0 0-6.562-.375Zm0 0c-4.5 0-6.687 1.312-6.687 4 0 2.938 1.875 4.375 5.625 4.375 2.625 0 5.188-.562 7.625-1.562v-6.437a58 58 0 0 0-6.562-.375Zm0 0c-4.5 0-6.687 1.312-6.687 4 0 2.938 1.875 4.375 5.625 4.375 2.625 0 5.188-.562 7.625-1.562v-6.437a58 58 0 0 0-6.562-.375Zm39.375 0c-4.5 0-6.687 1.312-6.687 4 0 2.938 1.875 4.375 5.625 4.375 2.625 0 5.188-.562 7.625-1.562v-6.437a58 58 0 0 0-6.562-.375Zm0 0c-4.5 0-6.687 1.312-6.687 4 0 2.938 1.875 4.375 5.625 4.375 2.625 0 5.188-.562 7.625-1.562v-6.437a58 58 0 0 0-6.562-.375Zm-39.375 0c-4.5 0-6.687 1.312-6.687 4 0 2.938 1.875 4.375 5.625 4.375 2.625 0 5.188-.562 7.625-1.562v-6.437a58 58 0 0 0-6.562-.375Zm0 0c-4.5 0-6.687 1.312-6.687 4 0 2.938 1.875 4.375 5.625 4.375 2.625 0 5.188-.562 7.625-1.562v-6.437a58 58 0 0 0-6.562-.375Zm39.375 0c-4.5 0-6.687 1.312-6.687 4 0 2.938 1.875 4.375 5.625 4.375 2.625 0 5.188-.562 7.625-1.562v-6.437a58 58 0 0 0-6.562-.375Zm44.125-7.188c-1.063-1.063-2.688-1.625-4.813-1.625-4.562 0-6.875 2.188-7.25 6.813h13.5c.063-2.313-.375-4.062-1.437-5.187Zm0 0c-1.063-1.063-2.688-1.625-4.813-1.625-4.562 0-6.875 2.188-7.25 6.813h13.5c.063-2.313-.375-4.062-1.437-5.187ZM129 80.25c-4.5 0-6.687 1.312-6.687 4 0 2.938 1.875 4.375 5.625 4.375 2.625 0 5.188-.562 7.625-1.562v-6.437a58 58 0 0 0-6.562-.375Zm-39.375 0c-4.5 0-6.687 1.312-6.687 4 0 2.938 1.875 4.375 5.625 4.375 2.625 0 5.188-.562 7.625-1.562v-6.437a58 58 0 0 0-6.562-.375Zm0 0c-4.5 0-6.687 1.312-6.687 4 0 2.938 1.875 4.375 5.625 4.375 2.625 0 5.188-.562 7.625-1.562v-6.437a58 58 0 0 0-6.562-.375Zm39.375 0c-4.5 0-6.687 1.312-6.687 4 0 2.938 1.875 4.375 5.625 4.375 2.625 0 5.188-.562 7.625-1.562v-6.437a58 58 0 0 0-6.562-.375Zm44.125-7.188c-1.063-1.063-2.688-1.625-4.813-1.625-4.562 0-6.875 2.188-7.25 6.813h13.5c.063-2.313-.375-4.062-1.437-5.187Zm0 0c-1.063-1.063-2.688-1.625-4.813-1.625-4.562 0-6.875 2.188-7.25 6.813h13.5c.063-2.313-.375-4.062-1.437-5.187ZM129 80.25c-4.5 0-6.687 1.312-6.687 4 0 2.938 1.875 4.375 5.625 4.375 2.625 0 5.188-.562 7.625-1.562v-6.437a58 58 0 0 0-6.562-.375Zm-39.375 0c-4.5 0-6.687 1.312-6.687 4 0 2.938 1.875 4.375 5.625 4.375 2.625 0 5.188-.562 7.625-1.562v-6.437a58 58 0 0 0-6.562-.375ZM0 54.062v105.187c115.875 3.312 250-52.812 250-52.812V0C114.5 55 0 54.062 0 54.062m79.562 36.375-.25.062c-2.188.375-4.375.625-6.562.563-2.188 0-5.375-.688-6.812-1.437l-.188-.063V69.124h2.688v18.5c1.437.687 3.312 1 5.562 1 1.75 0 3.438-.187 5.188-.625l.375-.062v2.5Zm19.5-1.938-.125.063c-.687.375-1.375.687-2.125.938-2.688 1-5.437 1.5-8.188 1.562-5.562 0-8.438-2.313-8.438-6.75 0-4.313 3.188-6.5 9.5-6.5q3.282 0 6.563.375v-2.312c0-2.938-2.313-4.438-7.125-4.438-2.25 0-4.563.375-6.75 1l-.375.125v-2.5l.25-.062c2.25-.687 4.563-1 6.875-1 6.562 0 9.938 2.375 9.938 7.125V88.5Zm19.125-15.875-.375-.063c-2.75-.625-5.563-1.062-8.188-1.062-1.438 0-2.812.187-4.125.687v6.625h12v2.438h-11.938v9.688h-2.75V70.625l.125-.062c1.875-1.063 4.062-1.562 6.687-1.562 2.875 0 5.938.562 8.313 1.062l.25.063v2.5Zm20.188 15.875-.125.063q-1.031.562-2.063.938c-2.688 1-5.437 1.5-8.25 1.562-5.563 0-8.438-2.313-8.438-6.75 0-4.313 3.187-6.5 9.5-6.5q3.282 0 6.562.375v-2.312c0-2.938-2.312-4.438-7.125-4.438-2.313 0-4.563.375-6.75 1l-.375.125v-2.5l.188-.062c2.25-.687 4.563-1 6.938-1 6.563 0 9.937 2.375 9.937 7.125V88.5ZM150 90.937h-2.625v-7.5L139 69.124h3.125l6.5 11.562 6.688-11.562h3l-8.312 14.313zm27.125-10.375-.063.25h-16.125c.125 5.25 3.312 7.812 9.688 7.812 1.875 0 3.812-.187 5.625-.625l.375-.125v2.5l-.25.063c-2.188.438-4.5.625-6.875.625-7.438 0-11.25-3.813-11.25-11.25 0-7.125 3.562-10.75 10.625-10.75 2.937 0 5.188.812 6.562 2.375 1.687 1.938 2.25 5 1.687 9.125Zm15.562-7.75-.437-.062c-1.5-.312-3.062-.625-4.563-.875V91H185V71.563c-2.313-.312-6.938 1.188-6.938 1.188v-2.625s3.188-1.125 5.875-1.125c2.938 0 5.813.625 8.563 1.312h.187v2.5Zm16.5-.125-.25.063c-2.437.625-4.5 1.062-6.687 1.125v17.062h-2.688V73.812a44 44 0 0 1-5-.687v-2.5c2.25.5 4.563.75 6.875.812 2.5 0 4.688-.625 7.313-1.25l.437-.125zm19.437 7.938-.062.25H212.5c.125 5.25 3.312 7.812 9.687 7.812 1.875 0 3.812-.188 5.625-.625l.375-.125v2.5l-.25.062c-2.25.375-4.625.563-7 .563-7.438 0-11.188-3.813-11.188-11.25 0-7.125 3.562-10.75 10.625-10.75 2.937 0 5.188.812 6.562 2.438 1.687 1.875 2.25 5 1.687 9.125Zm-8.875-9.188c-4.5 0-6.875 2.188-7.188 6.813h13.5c.125-2.313-.375-4.062-1.438-5.187-1.062-1.063-2.688-1.625-4.875-1.625Zm-51.438 0c-4.562 0-6.875 2.188-7.25 6.813h13.5c.063-2.313-.375-4.062-1.437-5.187-1.063-1.063-2.688-1.625-4.813-1.625Zm-46 12.812c0 2.938 1.875 4.375 5.625 4.375 2.625 0 5.188-.562 7.625-1.562v-6.437a58 58 0 0 0-6.562-.375c-4.5 0-6.687 1.312-6.687 4Zm-39.375 0c0 2.938 1.875 4.375 5.625 4.375 2.625 0 5.188-.562 7.625-1.562v-6.437a58 58 0 0 0-6.562-.375c-4.5 0-6.687 1.312-6.687 4Zm6.687-4c-4.5 0-6.687 1.312-6.687 4 0 2.938 1.875 4.375 5.625 4.375 2.625 0 5.188-.562 7.625-1.562v-6.437a58 58 0 0 0-6.562-.375Zm39.375 0c-4.5 0-6.687 1.312-6.687 4 0 2.938 1.875 4.375 5.625 4.375 2.625 0 5.188-.562 7.625-1.562v-6.437a58 58 0 0 0-6.562-.375Zm44.125-7.188c-1.063-1.063-2.688-1.625-4.813-1.625-4.562 0-6.875 2.188-7.25 6.813h13.5c.063-2.313-.375-4.062-1.437-5.187Zm0 0c-1.063-1.063-2.688-1.625-4.813-1.625-4.562 0-6.875 2.188-7.25 6.813h13.5c.063-2.313-.375-4.062-1.437-5.187Zm-44.125 7.188c-4.5 0-6.687 1.312-6.687 4 0 2.938 1.875 4.375 5.625 4.375 2.625 0 5.188-.562 7.625-1.562v-6.437a58 58 0 0 0-6.562-.375Zm-39.375 0c-4.5 0-6.687 1.312-6.687 4 0 2.938 1.875 4.375 5.625 4.375 2.625 0 5.188-.562 7.625-1.562v-6.437a58 58 0 0 0-6.562-.375Zm0 0c-4.5 0-6.687 1.312-6.687 4 0 2.938 1.875 4.375 5.625 4.375 2.625 0 5.188-.562 7.625-1.562v-6.437a58 58 0 0 0-6.562-.375Zm39.375 0c-4.5 0-6.687 1.312-6.687 4 0 2.938 1.875 4.375 5.625 4.375 2.625 0 5.188-.562 7.625-1.562v-6.437a58 58 0 0 0-6.562-.375Zm0 0c-4.5 0-6.687 1.312-6.687 4 0 2.938 1.875 4.375 5.625 4.375 2.625 0 5.188-.562 7.625-1.562v-6.437a58 58 0 0 0-6.562-.375Zm-39.375 0c-4.5 0-6.687 1.312-6.687 4 0 2.938 1.875 4.375 5.625 4.375 2.625 0 5.188-.562 7.625-1.562v-6.437a58 58 0 0 0-6.562-.375Zm0 0c-4.5 0-6.687 1.312-6.687 4 0 2.938 1.875 4.375 5.625 4.375 2.625 0 5.188-.562 7.625-1.562v-6.437a58 58 0 0 0-6.562-.375Zm0 0c-4.5 0-6.687 1.312-6.687 4 0 2.938 1.875 4.375 5.625 4.375 2.625 0 5.188-.562 7.625-1.562v-6.437a58 58 0 0 0-6.562-.375Z"/></svg>