<svg xmlns="http://www.w3.org/2000/svg" width="250" height="124.344" viewBox="0 0 250 124.344" fill="currentColor"><path d="m0 21.793.384.933c.041-.161.078-.232.073-.299-.126-1.486.398-2.821.961-4.147q.19-.45.389-.893c.354-.781.584-1.574.3-2.435-.032-.095-.004-.21-.004-.305q.779-.393 2.081-.003l1.939-1.763c-.85-1.627-1.368-3.279-1.284-5.089.11-2.383 1.272-4.149 3.194-5.456C9.61 1.263 11.406.855 13.282.895c1.241.026 2.476.234 3.717.335.808.065 1.621.132 2.429.111.975-.025 1.842-.407 2.609-1.01.576-.453.782-.445 1.297.054.612.593.911 1.331.993 2.167.026.263.045.527.074.874 2.559.306 4.033-1.232 5.44-3.022 1.399.701 2.253 1.829 2.513 3.351a7 7 0 0 1-.395 3.832c-.704 1.754-2.062 2.81-3.77 3.473-.883.343-1.791.623-2.67.975a7.6 7.6 0 0 0-1.432.755c-.277.189-.533.48-.674.783-.344.741-.066 1.114.744 1.099.379-.007.763-.035 1.137.009.994.116 1.409.877.914 1.722-.364.621-.375 1.199-.105 1.851.393.949.751 1.913 1.088 2.884.674 1.941.436 3.844-.343 5.696-.494 1.176-1.12 2.285-1.933 3.278-.179.219-.328.423-.217.728.784 2.156 1.562 4.313 2.39 6.601 6.818-4.833 14.339-6.246 22.423-5.353.066-.219.134-.389.168-.566q.555-2.91 1.104-5.82c.02-.106.031-.215.058-.319.13-.503.379-.775.722-.75.444.032.547.392.637.736.589 2.251 1.192 4.498 1.746 6.757.155.634.399.976 1.09 1.18 4.459 1.315 8.295 3.681 11.531 7.018.149.153.315.29.523.48.264-.204.519-.393.764-.593 1.827-1.489 3.649-2.984 5.481-4.467.25-.202.527-.389.821-.515.39-.167.64.013.625.445a2.6 2.6 0 0 1-.174.786c-1.063 2.868-2.121 5.738-3.216 8.594-.251.656-.257 1.188.105 1.83.822 1.461 1.565 2.968 2.289 4.481.199.416.404.529.808.377.405-.153.815-.293 1.22-.447 2.632-1.001 5.262-2.006 7.894-3.004.405-.154.815-.296 1.232-.415.334-.095.728-.231.97.125.254.374-.061.66-.288.919-1.269 1.444-2.538 2.889-3.822 4.321-1.664 1.855-3.328 3.711-5.026 5.534-.366.393-.426.734-.311 1.231.836 3.621 1.288 7.293 1.504 11.003.253 4.338.075 8.657-.388 12.97-.034.321-.096.639-.157 1.04-.286.03-.571.084-.856.087-6.524.058-12.705 1.677-18.679 4.167-4.886 2.036-9.349 4.785-13.409 8.182-3.662 3.064-6.752 6.647-9.49 10.537-1.168 1.658-2.236 3.387-3.353 5.08-.434.657-.517.698-1.265.501-.848-.223-1.625-.584-2.254-1.288.077-.171.141-.343.227-.502 1.851-3.432 4.261-6.456 6.845-9.353 3.558-3.989 7.628-7.383 12.151-10.215 2.062-1.291 4.259-2.368 6.395-3.542.159-.087.32-.172.44-.377-.436.102-.879.183-1.308.308-6.041 1.764-11.445 4.691-16.282 8.725-2.86 2.385-5.241 5.165-7.346 8.204-1.109 1.602-2.161 3.244-3.24 4.868-.119.179-.242.355-.425.623-.493-.417-.994-.779-1.422-1.212-2.497-2.525-4.505-5.401-6.094-8.57-2.06-4.11-3.608-8.404-4.467-12.922a76 76 0 0 1-1.237-10.224c-.206-3.937.077-7.839.474-11.746.421-4.139 1.357-8.159 2.682-12.096.069-.204.154-.419.149-.627-.041-1.592-.103-3.183-.159-4.818-.708-.186-1.354-.172-1.993-.195-1.373-.051-2.538-.562-3.415-1.622-.32-.387-.558-.855-.77-1.315-.127-.276-.198-.549-.513-.681-1.477-.616-1.581-2.239-1.187-3.403.222-.655.267-1.246.141-1.896a24 24 0 0 1-.259-1.683c-.037-.3-.153-.487-.446-.604-.922-.369-1.406-1.159-1.806-1.998-.228-.478-.23-.998-.054-1.507.069-.199.143-.397.214-.592-1.558-.705-1.687-.995-1.257-2.845-2.37-1.492-3.788-3.561-3.695-6.49l-.448.903v-3.087Zm66.027 60.906c-.108-.29-.156-.472-.24-.636-1.668-3.223-2.977-6.607-4.436-9.923a2.2 2.2 0 0 1-.201-.694c-.051-.678.217-.956.899-1.069a5 5 0 0 0 1.091-.299c.955-.403 1.604-1.18 2.255-1.943.251-.294.453-.63.685-.957-.658-.331-.899-.363-1.31-.143-.212.113-.378.326-.596.413-.232.093-.534.178-.745.102-.15-.055-.23-.376-.284-.593-.044-.178-.025-.381.007-.565.109-.632-.198-.936-.953-.605-.315.138-.641.294-.976.338-.666.088-1.182-.262-1.68-.669-1.656-1.353-3.253-2.796-5.011-4.002-2.357-1.617-5.001-1.96-7.768-1.156-.233.068-.471.169-.706.169-.19 0-.455-.075-.556-.213-.338-.463-.618-.969-.908-1.44.706-.029 1.348.063 1.914-.103a14.6 14.6 0 0 1 3.761-.578c2.086-.052 4.08.461 6.067 1.018.693.194 1.33.386 1.536 1.217.073.296.311.574.531.808 1.075 1.143 2.333 2.018 3.844 2.492a4.34 4.34 0 0 0 2.408.056c.435-.111.851-.28 1.252-.681l-3.395-2.986 1.743-2.102c.62.569 1.159 1.057 1.69 1.553.511.478.964 1.027 1.628 1.455.033-.9-.183-1.583-.641-2.185-.295-.387-.59-.779-.926-1.129-2.014-2.099-4.215-3.975-6.689-5.518-1.921-1.198-3.963-2.123-6.175-2.635-2.547-.589-5.024-.387-7.33.896-2.025 1.126-3.467 2.77-3.963 5.09-.238 1.114-.248 2.251.061 3.418-.639.565-1.275 1.191-1.386 2.101-.101.829-.261 1.713.546 2.4.746-2.311 1.68-3.398 3.103-3.654.264.712.165 1.318-.505 1.765-.089.059-.157.149-.236.223-.556.52-.951 1.094-.786 1.921.057.286-.013.596.016.891.03.304.11.602.181.965l2.089-1.017c.333 1.887-.556 3.528-.41 5.316 1.08-.14 1.975.257 2.889.719-.456.81-1.535 1.016-1.771 1.962.677.084 1.3.084 1.872.254.547.162 1.182.25 1.672.891-.736 0-1.329-.02-1.919.006-.575.025-1.179-.125-1.721.192.194.781.446.987 1.129.775.658-.204 1.262-.163 1.909.087-.257.603-.627.96-1.303.885-.342-.038-.563.128-.689.445-.221.556.13 2.322.692 2.731.48.35 1.027.385 1.554.31.719-.103 1.426-.309 2.131-.496.524-.139 1.037-.318 1.704-.526-.167.261-.234.375-.309.482-.654.93-1.286 1.877-1.973 2.782-.361.476-.475.902-.26 1.489.334.913.567 1.862.848 2.794.107.356.229.707.376 1.158 4.769-1.861 9.612-3.181 14.681-4.05ZM34.552 67.795c-.296-.673-.553-1.388-.912-2.046-.928-1.702-1.183-3.575-1.397-5.445-.118-1.027-.299-2.025-.663-2.983-.982-2.579-1.992-5.147-2.992-7.719q-2.825-7.261-5.645-14.524c-.744-1.917-1.494-3.831-2.207-5.759-.284-.769-.764-1.269-1.537-1.542a3.5 3.5 0 0 1-1.052-.591c-.42-.347-.883-.479-1.405-.562-.879-.139-1.767-.282-2.616-.537-.872-.261-.946-.272-1.049.645a1.8 1.8 0 0 0 .048.636c.271 1.01 1.052 1.456 1.978 1.717.464.131.937.229 1.439.35.027.41.051.757.071 1.104.093 1.621.22 3.24.261 4.862.019.756.432 1.05 1.046 1.235.29.087.582.166.987.281-.371.241-.642.376-.857.573-.138.127-.279.35-.269.521.125 2.24.303 4.477.415 6.718.145 2.889.229 5.781.365 8.67q.129 2.714.34 5.422c.058.753.143 1.519.346 2.242.371 1.319.849 2.608 1.267 3.914 1.269 3.964 2.531 7.93 3.796 11.895.142.445.288.89.471 1.453.148-.316.271-.5.323-.702.476-1.828 1.358-3.474 2.285-5.097 1-1.751 2.461-3.025 4.295-3.826.881-.385 1.841-.588 2.869-.905Zm8.527 8.828c-.162-.356-.241-.552-.338-.738-.858-1.658-1.75-3.301-2.563-4.981-.271-.559-.648-.83-1.213-.91-1.919-.27-3.819-.185-5.553.737-3.071 1.633-5.035 4.218-6.074 7.503-1.003 3.171-1.082 6.437-.912 9.726.128 2.484.482 4.954.324 7.456-.185 2.93-.56 5.816-1.562 8.594-.051.143-.08.294-.119.441.293-.167.492-.381.669-.612 1.203-1.569 2.43-3.12 3.587-4.722.535-.741.991-1.554 1.378-2.383 1.19-2.553 1.774-5.275 2.15-8.051a100 100 0 0 1 .658-4.248c.251-1.394.709-2.725 1.461-3.938 1.303-2.102 3.043-3.597 5.603-3.861.773-.08 1.561-.012 2.503-.012ZM19.954 12.549c.186-.211.311-.347.43-.489.707-.843 1.539-1.514 2.587-1.896.915-.333 1.846-.633 2.736-1.025.961-.423 1.927-.865 2.812-1.425 1.086-.688 1.495-2.16 1.042-3.421-2.371 2.096-5.013 2.281-7.86 1.177-.049-.717.475-1.412-.084-2.082-.141.025-.273.034-.398.071-1.6.473-3.218.705-4.889.454-.775-.117-1.559-.172-2.34-.247-1.371-.131-2.645.171-3.78.946-.792.541-1.45 1.213-1.769 2.157-.368 1.087-.346 2.183-.08 3.279.213.879.738 1.555 1.478 2.065.579.399.901.394 1.479-.005.334-.23.65-.49 1.001-.69.988-.565 1.899-.475 2.77.245q.313.26.616.529c.647.577 1.352.676 2.075.183.747-.51 1.445-.56 2.174.173Zm13.417 83.383c4.768-3.765 10.014-6.315 15.594-8.542-.262-.077-.38-.119-.501-.145-.844-.181-1.473-.593-1.819-1.439-.399-.975-.873-1.919-1.327-2.87-.617-1.293-1.244-2.58-1.87-3.869-.13-.268-.251-.547-.619-.565-1.443-.073-2.832.119-3.984 1.063-1.258 1.031-2.212 2.303-2.667 3.891a23 23 0 0 0-.552 2.281c-.577 3.193-1.178 6.378-2.127 9.488-.052.169-.065.349-.128.709Zm-9.812-79.149c-.448.093-.81.218-1.178.237-1.509.079-1.579.031-1.86-1.349-.011-.053-.015-.107-.025-.16-.154-.807-.555-1.139-1.362-1.024a5.8 5.8 0 0 0-1.401.394c-.893.373-1.656.247-2.418-.356-1.348-1.068-1.83-1.034-3.195.071l-.254.202c-.497.395-1.066.514-1.683.427a11 11 0 0 1-.877-.17c-1.344-.311-1.622-.192-2.287 1-.469.841-.931 1.046-1.879.846-.278-.058-.558-.102-.883-.16 0 .231-.028.367.004.485.259.942.106 1.816-.387 2.651-.192.325-.344.675-.496 1.021-.277.63-.408 1.293-.319 1.977.059.458.12.941.526 1.17.348-.825.582-1.674 1.034-2.385.867-1.364 2.253-2.107 3.754-2.549 3.631-1.071 7.28-1.033 10.882.139 2.379.774 4.235 2.164 4.983 4.699.029.099.135.175.228.288.334-1.557.152-2.972-.532-4.332-.423-.842-.605-1.733-.345-2.674.026-.095-.012-.208-.03-.449Zm28.293 12.133-.191.011-2.511 18.429c2.105-.247 4.05.02 6.08.469zm-38.353 4.117c-.304.284-.511.535-.77.71-.536.362-1.095.691-1.653 1.019-.397.233-.52.544-.488 1.011.101 1.457.144 2.918.22 4.377.025.472 0 .886-.379 1.265-.204.205-.308.581-.325.887-.04.736.413 1.006 1.084.701 1.467-.667 2.957-.841 4.482-.198.3.126.597.26.906.361.166.054.352.044.515.062.338-.954.289-1.163-.26-1.895-.129-.172-.179-.439-.182-.663-.013-1.025.066-2.055-.014-3.073a4.55 4.55 0 0 0-.52-1.764c-.628-1.155-1.564-2.059-2.615-2.801ZM72.322 38.7l-.163-.077-11.647 11.506 4.829 3.525c2.287-4.797 4.564-9.57 6.834-14.347.087-.184.099-.404.146-.607Zm-4.156 30.12c-.27.151-.45.216-.585.333-.491.424-.984.848-1.444 1.304-1.56 1.546-1.67 2.396-.659 4.312.857 1.625 1.676 3.27 2.516 4.904.333.649.684 1.288 1.015 1.938.181.357.449.496.85.484.81-.025 1.622-.009 2.433-.027.141-.003.281-.091.448-.149-.098-.253-.159-.461-.255-.651a1666 1666 0 0 0-3.67-7.319c-.198-.392-.322-.779-.333-1.229-.027-1.08-.105-2.16-.173-3.239-.011-.18-.076-.356-.144-.66Zm14.045-18.075-.092-.15c-.344.124-.696.228-1.029.374q-6.017 2.637-12.026 5.29c-.23.102-.434.264-.702.431 1.089 1.532 1.785 3.145 2.28 4.997l11.57-10.941ZM44.108 49.21c-.154-.145-.25-.239-.349-.329l-7.254-6.624c-1.099-1.004-2.197-2.009-3.301-3.007-.2-.181-.371-.449-.802-.378 2.747 4.762 5.506 9.427 8.347 14.229.797-1.682 1.944-2.846 3.359-3.891M8.609 31.937l.085.215c-.091.058-.191.106-.272.176-1.301 1.111-1.35 1.649-.271 2.952q.025.032.051.063c.376.42.565.4.802-.128.321-.716.768-1.327 1.506-1.626.85-.344 1.222-.908 1.049-1.816-.008-.043.039-.095.083-.195.809.006 1.146-.514 1.269-1.263.09-.545-.022-.755-.571-.841-.418-.065-.845-.075-1.439-.124.806-.691 1.109-1.436.741-2.445-1.688.137-3.093.854-4.432 1.733l.306 1.179-.696.181c0 .462-.03.893.008 1.319.043.492.181.6.673.618.369.014.738.003 1.107.003Zm10.216-6.062c.278-.85.119-1.53-.424-2.099-.295-.309-.627-.615-1.001-.812-2.163-1.142-4.412-1.17-6.676-.361-.49.175-.945.533-1.328.898-.581.554-.684 1.478-.352 2.085 3.293-2.037 6.524-1.859 9.781.289M34.79 57.536l-.169.15c.041.426.155.86.11 1.277-.153 1.448.582 2.297 1.778 2.935.683.364 1.301.852 2.131 1.406-.337-1.39-.036-2.518.492-3.681zM210.431 77.675l1.148-5.672c.387.099.692.173.994.255 2.507.678 4.532-.056 6.11-2.086 1.11-1.428 1.789-3.084 2.478-4.732.592-1.418.568-1.419-.076-2.774-1.856-3.91-3.695-7.829-5.559-11.736a34 34 0 0 0-1.513-2.863c-.286-.475-.702-.898-1.136-1.249-.297-.24-.725-.435-1.1-.444-1.838-.045-3.679-.02-5.597-.02-.028.269-.072.499-.072.729-.005 3.6-.012 7.201.005 10.801.002.508.067 1.034.207 1.521.596 2.075 2.886 2.896 4.685 1.691.379-.254.709-.58 1.119-.921l.507.392c-.022.136-.015.225-.051.29-1.079 1.96-2.746 3.03-4.973 3.155a12 12 0 0 1-2.506-.143c-2.817-.437-4.599-2.528-4.615-5.405-.021-3.709-.008-7.417-.009-11.126v-.984h-3.186c-.198-.615-.06-.935.4-1.261 2.677-1.894 4.869-4.29 6.914-6.828.53-.658.535-.678 1.501-.45v7.043c1.088.009 2.107.02 3.126.024 1.03.004 2.06.001 3.09 0 1.057 0 2.114-.004 3.171-.004h6.205v.835c-.208.06-.413.109-.611.179-.786.277-1.094.732-.963 1.55.067.42.209.842.392 1.228 1.261 2.666 2.54 5.324 3.818 7.982.078.162.191.306.347.552.198-.386.364-.683.505-.991.699-1.525 1.432-3.036 2.069-4.587.388-.945.713-1.934.907-2.935.299-1.547-.207-2.345-1.7-2.848-.514-.173-.522-.454-.403-.913h7.676v.806c-1.899.383-3.059 1.615-3.806 3.318q-1.762 4.012-3.532 8.021c-1.802 4.084-3.596 8.172-5.416 12.248-.705 1.579-1.432 3.152-2.232 4.685-.54 1.036-1.29 1.95-2.278 2.61-1.791 1.195-3.786 1.316-6.04 1.055ZM141.837 113.724c-.861-.197-1.728-.372-2.58-.601-.414-.111-.81-.304-1.198-.494-1.664-.818-2.06-2.394-1.703-4.06.151-.703.613-1.231 1.253-1.516.912-.405 1.861-.729 2.801-1.069.395-.143.809-.237 1.214-.353l.011-.172c-.342-.139-.68-.285-1.025-.414-.919-.346-1.784-.784-2.541-1.42-2.021-1.697-2.639-4.343-1.576-6.762.918-2.09 2.525-3.415 4.659-4.124 1.798-.597 3.644-.777 5.535-.592.806.079 1.621.074 2.433.082 2.385.024 4.77.035 7.155.053.107 0 .214.025.425.051.075.978.037 1.962-.016 3.047l-4.285-.302c.255.319.41.562.611.758 2.573 2.504 1.8 6.683-1.181 8.625-1.507.982-3.182 1.477-4.991 1.513-1.138.023-2.281.027-3.411.146-.715.076-1.432.293-2.104.557-.312.122-.604.465-.76.779-.237.48-.035.947.429 1.257.699.467 1.512.587 2.315.693 1.799.237 3.605.413 5.403.654 1.563.209 3.093.568 4.504 1.309.358.188.712.396 1.036.637 2.679 1.995 3.233 5.06 1.456 7.898-.943 1.505-2.298 2.512-3.885 3.217-1.722.764-3.517 1.277-5.428 1.217-1.677-.053-3.362-.053-5.029-.219-1.694-.169-3.263-.797-4.638-1.821-1.113-.829-1.839-1.897-1.844-3.355-.006-1.474.786-2.492 1.888-3.326 1.105-.836 2.398-1.236 3.731-1.527.445-.097.893-.175 1.34-.262l-.004-.106Zm7.007 7.72c1.245.065 2.442-.091 3.518-.767 1.537-.966 1.722-2.618.446-3.904-.644-.65-1.439-1.063-2.293-1.343a20.1 20.1 0 0 0-7.365-1c-1.064.055-2.09.329-2.983.953-1.185.829-1.332 2.236-.349 3.304a5.9 5.9 0 0 0 2.497 1.616 22 22 0 0 0 6.529 1.141m.388-22.363c.037-1.396-.095-2.653-.76-3.794-.537-.921-1.272-1.622-2.352-1.845-1.968-.406-3.74.687-4.389 2.719-.486 1.524-.53 3.089-.246 4.654.1.552.279 1.107.521 1.613.55 1.15 1.397 2.033 2.707 2.233 2.086.318 3.372-.791 3.999-2.426a7.75 7.75 0 0 0 .519-3.155ZM139.166 32.737c.098 4.851-.008 9.649.075 14.593l1.161-.977c2.037-1.72 4.393-2.417 7.027-2.107 2.229.262 4.069 1.309 5.466 3.049 1.845 2.297 2.47 4.946 2.088 7.851-.156 1.189-.465 2.327-.983 3.415-1.217 2.554-3.334 3.981-5.949 4.794-1.355.422-2.754.607-4.163.651-3.2.101-6.395.009-9.566-.484-.211-.033-.419-.088-.729-.154V38.375q-.001-.69-.011-1.38c-.018-1.282-.662-2.137-1.818-2.633-.272-.117-.559-.199-.83-.294-.126-.684-.095-.791.37-.828 2.429-.19 4.859-.361 7.289-.535.132-.009.266.014.573.033Zm9.75 21.585c-.018-.373-.019-.862-.071-1.344-.162-1.498-.604-2.89-1.465-4.157-1.623-2.388-5.207-2.808-7.168-.832-.133.134-.269.275-.429.37-.477.282-.588.692-.585 1.226.017 3.406.004 6.812.003 10.219q-.001.325.026.648c.102 1.158.742 1.901 1.884 2.126 2.474.488 5.734-.596 6.957-3.545.613-1.477.789-3.023.848-4.709ZM117.451 55.948h.841c.141.621-.237 4.298-.742 7.322-.55.169-21.014.194-21.805.027-.14-.853-.134-.835.613-1.08a14 14 0 0 0 1.504-.601c.809-.372 1.22-1.047 1.332-1.907.052-.401.068-.809.068-1.214q.003-9.622-.002-19.244c0-.243-.021-.486-.03-.729-.039-1.098-.629-1.821-1.598-2.24-.617-.267-1.266-.46-1.932-.697v-.852h13.547c.024.137.063.286.071.437.007.132-.02.266-.035.433-.493.16-.983.306-1.464.477-1.464.519-2.104 1.372-2.106 2.918q-.013 9.947.006 19.893c.003 1.408.607 2.2 1.957 2.507 1.632.37 3.28.374 4.913-.034 1.088-.272 2.013-.846 2.664-1.75.661-.918 1.229-1.905 1.824-2.869.14-.227.229-.486.372-.796ZM95.065 110.742V102.6h.828c.16.555.287 1.079.46 1.587.751 2.202 2.053 3.959 4.291 4.793 1.921.715 3.872.784 5.713-.339 1.759-1.072 2.317-3.057 1.303-4.854-.325-.577-.798-1.092-1.278-1.558-1.277-1.236-2.879-2.012-4.356-2.966-1.205-.778-2.432-1.532-3.569-2.4-1.851-1.413-2.922-3.314-3.169-5.643-.432-4.071 1.804-7.136 5.201-8.299 2.187-.749 4.371-.588 6.567-.081.447.103.9.195 1.355.25.61.074 1.185-.011 1.665-.459.246-.229.54-.371.946-.118v6.917c-.682.153-.662.143-.991-.527-1.104-2.252-2.709-3.997-5.176-4.735-1.83-.547-3.498-.134-4.852 1.245-1.099 1.12-1.207 2.67-.345 4.03.488.769 1.158 1.366 1.902 1.866 1.348.906 2.721 1.775 4.085 2.658.955.618 1.927 1.21 2.862 1.856a10.5 10.5 0 0 1 3.466 4.015c1.639 3.279.666 8.059-3.272 10.032-2.09 1.047-4.267 1.379-6.549 1.033-1.121-.17-2.224-.459-3.335-.694-.397-.084-.793-.177-1.193-.248-.546-.097-1.049.047-1.402.461-.308.361-.633.475-1.156.32ZM158.547 93.58v-.825l8.031-.701c.014.413.032.725.033 1.038.003 3.978.012 7.957-.002 11.935-.004 1.274.527 2.252 1.678 2.724 1.404.577 2.814.51 4.046-.53.227-.191.423-.419.631-.632.825-.847 1.243-1.789 1.188-3.044-.106-2.377-.069-4.763-.016-7.143.029-1.301-.384-2.196-2.066-2.666-.154-.043-.307-.09-.501-.147v-.833l7.885-.703c.023.382.059.693.059 1.005.008 4.222.009 8.444.017 12.666 0 .433.034.865.048 1.298.035 1.044.597 1.705 1.529 2.092.25.104.505.198.765.27.31.085.462.272.433.588-.03.319-.271.357-.528.381-1.617.155-3.234.32-4.852.471-.886.083-1.773.146-2.784.228l-.029-3.954c-.624.664-1.104 1.199-1.611 1.71-2.105 2.123-4.639 2.669-7.477 1.949-2.113-.536-3.43-2.104-3.634-4.273-.074-.78-.086-1.567-.09-2.351-.012-2.327-.007-4.655-.009-6.983q.001-.325-.005-.65c-.036-1.475-.526-2.491-2.41-2.832-.078-.014-.154-.04-.329-.088M206.531 71.957v1.711c-.666.193-110.2.277-111.458.086v-1.816c.012-.012.029-.034.05-.051.02-.016.044-.038.067-.039.242-.014.485-.033.727-.033q55.217.018 110.433.043c.045 0 .091.048.182.099ZM224.037 102.6c-.151 2.872-1.957 5.581-5.316 7.278a10 10 0 0 1-4.458 1.102c-1.242.01-2.502 0-3.723-.193-2.567-.404-4.829-1.5-6.446-3.587-2.211-2.853-2.594-6.004-1.138-9.316 1.236-2.813 3.424-4.522 6.393-5.287 2.86-.737 5.689-.694 8.476.297 3.923 1.395 6.178 4.616 6.213 9.706Zm-15.98-1.004c-.071 1.266-.034 2.478.315 3.664.396 1.347.986 2.572 2.086 3.502a4.21 4.21 0 0 0 4.712.474c1.117-.601 1.8-1.559 2.222-2.695.878-2.36.948-4.804.661-7.28-.167-1.444-.518-2.806-1.336-4.038-1.59-2.396-4.856-2.25-6.419-.788-1.008.943-1.578 2.118-1.908 3.422-.313 1.239-.443 2.502-.333 3.738ZM177.521 52.535h-13.929c-.473 3.046.659 6.344 3.172 8.004 2.469 1.631 5.616 1.328 7.946-.78.539-.488 1.019-1.049 1.479-1.614.305-.374.612-.598 1.205-.387-.129.307-.225.633-.392.917-1.943 3.315-4.861 5.074-8.679 5.34-2.819.196-5.401-.473-7.544-2.379-2.074-1.844-3.247-4.141-3.315-6.973-.065-2.744.639-5.205 2.537-7.235 1.88-2.01 4.229-3.079 6.981-3.202 1.243-.056 2.487-.064 3.71.29 3.522 1.022 5.664 3.35 6.585 6.854.088.336.144.681.244 1.164Zm-13.924-1.213h7.775c-.186-1.895-.56-3.648-1.978-4.962-1.411-1.306-3.152-1.154-4.429.303-.721.822-1.065 1.819-1.268 2.857-.11.563-.295 1.149-.1 1.802M133.607 105.162c-.077.2-.128.406-.231.583-2.034 3.511-5.071 5.302-9.146 5.277-2.057-.013-3.953-.554-5.65-1.758-2.356-1.672-3.683-3.903-3.844-6.811-.157-2.842.607-5.378 2.603-7.436 2.388-2.463 5.398-3.199 8.717-2.798 2.226.269 4.164 1.2 5.639 2.925 1.152 1.348 1.779 2.943 2.037 4.799H120.53c0 .758-.06 1.43.012 2.087.178 1.637.658 3.17 1.718 4.484 1.875 2.325 4.508 2.663 7.038 1.654 1.179-.47 2.14-1.261 2.909-2.275.164-.216.34-.422.508-.634.243-.305.52-.342.891-.097Zm-5.702-6.343c-.035-1.68-.463-3.161-1.549-4.381-1.148-1.289-2.844-1.439-4.052-.353-1.384 1.244-1.689 2.918-1.817 4.734zM195.442 51.337c-.479-.399-.848-.712-1.223-1.018a10 10 0 0 0-.647-.491c-2.001-1.38-3.655-1.226-5.378.494-1.087 1.086-1.081 1.086-1.076 2.607.006 2.002.001 4.004.001 6.007 0 .216-.007.433.004.649.069 1.358.61 2.084 1.899 2.525.405.139.821.241 1.259.368v.869h-11.735c-.038-.142-.084-.266-.101-.394-.017-.13-.004-.264-.004-.462.421-.151.847-.308 1.275-.455 1.094-.376 1.689-1.123 1.73-2.291.015-.432.051-.865.051-1.297q.006-4.14-.004-8.279a16 16 0 0 0-.064-1.54c-.164-1.619-.964-2.489-2.556-2.815q-.602-.123-.614-.881c2.913-.224 5.811-.696 8.865-.734 0 .997-.005 1.907.001 2.817.006.874-.058 1.752.184 2.631.293-.538.55-1.101.888-1.609.507-.764 1.018-1.537 1.624-2.222 1.022-1.156 2.32-1.715 3.903-1.614 1.039.066 1.85.541 2.604 1.186.33.283.225.649.159.984-.219 1.114-.463 2.223-.698 3.334-.105.498-.212.995-.348 1.631ZM195.386 109.515v.786h-11.014v-.767c.422-.152.83-.285 1.227-.447 1.013-.411 1.529-1.175 1.531-2.265.007-3.437.019-6.875 0-10.312-.009-1.552-.917-2.543-2.479-2.81q-.584-.1-.514-.919c2.732-.315 5.497-.47 8.339-.752.027.394.062.68.062.966 0 1.11-.015 2.219-.012 3.329 0 .282.047.563.075.869.734-1.091 1.379-2.151 2.127-3.132a4.93 4.93 0 0 1 2.874-1.859c1.402-.326 2.555.132 3.595 1.025.22.189.328.401.262.713-.344 1.638-.672 3.279-1.032 5.046-.263-.202-.422-.32-.577-.443-.549-.438-1.07-.917-1.651-1.309-1.438-.969-3.328-.635-4.504.45-.159.147-.3.312-.457.462-.538.515-.749 1.113-.729 1.882.054 2.056.006 4.114.024 6.171.019 2.172.41 2.649 2.537 3.205.077.02.15.052.313.11ZM238.594 92.142c.02 1.77.058 3.539-.077 5.303-.527.227-.784.037-1.005-.398-.598-1.176-1.403-2.185-2.535-2.903-1.496-.948-3.05-1.084-4.616-.223-1.017.558-1.147 1.794-.328 2.616.19.19.401.374.634.504.543.301 1.093.599 1.664.84.923.389 1.876.708 2.798 1.098 1.181.5 2.264 1.145 3.143 2.113 2.362 2.601 1.835 6.743-1.239 8.767-1.675 1.103-3.514 1.332-5.457 1.04-.991-.149-1.982-.3-2.976-.414-.574-.066-1.133.023-1.627.375a1.07 1.07 0 0 1-1.035.145v-6.683c.737-.139.749-.146 1.015.372.56 1.09 1.226 2.107 2.06 3.007 1.168 1.26 2.526 2.121 4.337 2.019a3.37 3.37 0 0 0 2.185-.961c.924-.881.907-2.258-.04-3.286-.632-.686-1.431-1.145-2.292-1.505-1.274-.533-2.553-1.058-3.806-1.637a7.7 7.7 0 0 1-1.51-.948c-1.55-1.224-2.245-2.821-1.914-4.793.317-1.888 1.405-3.187 3.164-3.923 1.388-.581 2.835-.681 4.312-.478.886.122 1.773.24 2.657.371.5.074.981.055 1.389-.275.309-.25.636-.237 1.098-.142ZM130.277 62.478v.873h-11.483v-.88c.405-.121.791-.226 1.169-.353 1.082-.362 1.73-1.074 1.796-2.25.026-.459.084-.917.085-1.376.007-2.978.003-5.957-.002-8.935 0-.324-.037-.648-.045-.972-.031-1.297-.665-2.198-2.301-2.654-.13-.036-.264-.061-.396-.089q-.636-.135-.497-.923c2.894-.209 5.778-.694 8.777-.722.025.291.063.523.062.754q-.005 7.066-.014 14.134c0 .19-.004.379.006.569.07 1.332.703 2.16 1.976 2.577.279.091.564.162.867.248ZM246.587 71.875v1.795c-.603.178-21.983.249-23.008.058v-1.853zM121.483 35.838a3.083 3.083 0 0 1 3.043-3.135c1.817-.039 3.229 1.294 3.25 3.111.018 1.621-1.115 3.308-3.05 3.342-1.831.032-3.213-1.375-3.244-3.317ZM243.549 107.805c.024-2.008 1.377-3.375 3.282-3.345a3.263 3.263 0 0 1 3.168 3.278c.036 1.846-1.432 3.237-3.225 3.284-1.977.052-3.412-1.748-3.226-3.217Zm5.579-.044c-.013-1.479-1.011-2.535-2.387-2.527-1.422.008-2.441 1.102-2.414 2.591.024 1.36 1.118 2.479 2.401 2.457 1.41-.024 2.413-1.078 2.4-2.52Z"/><path d="M54.495 52.29c-.183 1.027-.352 1.98-.527 2.933-.018.101-.076.194-.136.342-1.944-.545-3.909-.264-5.953-.224l-1.086-2.917c2.556-1.323 5.067-1.132 7.702-.133ZM46.941 63.441c2.898-1.813 6.374-1.444 8.557.955-.144.108-.27.249-.426.308-.43.161-.871.292-1.31.427-.428.132-.813.072-1.243-.108-1.005-.42-2.042-.442-3.089.027v.83c-.419.197-.745.142-1.055-.243-.216-.269-.492-.536-.799-.677-.714-.326-.829-.845-.635-1.52ZM62.511 56.531 61 58.748l-5.164-2.554 1.146-3.074c1.902 1.108 3.694 2.132 5.53 3.41ZM43.344 57.834c-.27-1.818.576-3.047 1.598-4.299.566.642.685 1.405.998 2.068.054.114-.107.411-.249.52-.723.557-1.472 1.079-2.347 1.711M247.46 108.143l.679 1.297c-.428.252-.675.121-.889-.239-.226-.38-.361-.837-.808-1.091-.494.387-.106.956-.378 1.418-.315.062-.611.068-.614-.414-.007-.994-.002-1.987-.002-3.068.707 0 1.348-.028 1.985.01.382.023.616.288.726.667.115.395.07.751-.21 1.053-.124.133-.293.224-.487.368Zm-1.193-1.54c-.042.164-.098.254-.075.313.08.208.148.53.294.577.224.071.531-.005.759-.112.114-.054.188-.319.174-.478-.01-.109-.195-.264-.321-.286-.255-.045-.523-.013-.831-.013Z"/></svg>