<svg xmlns="http://www.w3.org/2000/svg" width="250" height="39.021" fill="currentColor" viewBox="0 0 250 39.021"><path d="M82.913 36.949V2.191h6.758l11.954 18.658 12.093-18.658h6.572v34.758h-6.299V11.793l-12.412 19.256-12.366-19.21v25.11zm57.609.818c-2.857 0-5.402-.532-7.621-1.601q-3.327-1.595-5.249-4.704c-1.276-2.073-1.914-4.625-1.914-7.641q.001-4.156 1.708-7.316c1.143-2.106 2.718-3.754 4.724-4.964q3.012-1.806 6.891-1.807 3.697.002 6.459 1.628 2.762 1.623 4.266 4.552 1.506 2.92 1.508 6.857c0 .365-.02.724-.047 1.076-.033.346-.08.877-.14 1.575h-19.349c.365 2.193 1.342 3.914 2.924 5.143q2.37 1.854 6.386 1.854c3.409 0 6.545-1.063 9.402-3.203v5.442c-1.369.95-2.93 1.701-4.678 2.266s-3.508.844-5.269.844Zm-1.734-23.276q-2.92.002-4.744 1.807c-1.824 1.805-1.98 2.89-2.286 5.057h13.695q-.001-.598-.093-1.057-.46-2.832-2.146-4.319c-1.686-1.487-2.598-1.488-4.425-1.488Zm18.027 22.458V10.557h5.881l.047 5.489c.704-1.801 1.767-3.229 3.196-4.299a7.9 7.9 0 0 1 4.837-1.601q.728 0 1.734.14 1.007.138 1.595.365v5.9q-.728-.23-1.914-.412a15 15 0 0 0-2.193-.186c-2.279 0-4.02.744-5.223 2.219q-1.803 2.221-1.801 6.425v12.352h-6.16Zm33.609.818q-4.246-.002-7.396-1.688a11.8 11.8 0 0 1-4.857-4.824q-1.714-3.138-1.714-7.342c0-2.837.591-5.316 1.761-7.429a12.6 12.6 0 0 1 4.884-4.964q3.122-1.785 7.229-1.787c1.369 0 2.631.173 3.787.505a27 27 0 0 1 3.289 1.189v5.714a13 13 0 0 0-3.263-1.395q-1.762-.478-3.356-.478c-2.465 0-4.432.757-5.914 2.266-1.475 1.508-2.213 3.562-2.213 6.153q0 4.068 2.213 6.332c1.482 1.508 3.522 2.259 6.14 2.259 1.063 0 2.086-.126 3.057-.385.977-.259 2.086-.664 3.336-1.209v5.442c-.977.485-2.047.884-3.223 1.189a15.2 15.2 0 0 1-3.761.452Zm25.462 0q-4.294.001-7.621-1.601-3.327-1.595-5.249-4.704c-1.276-2.073-1.914-4.625-1.914-7.641q.001-4.156 1.708-7.316c1.143-2.106 2.718-3.754 4.724-4.964q3.012-1.806 6.891-1.807 3.697.002 6.459 1.628 2.762 1.623 4.266 4.552 1.506 2.92 1.508 6.857c0 .365-.02.724-.047 1.076-.033.346-.08.877-.14 1.575h-19.349c.365 2.193 1.342 3.914 2.924 5.143q2.37 1.854 6.386 1.854c3.409 0 6.545-1.063 9.402-3.203v5.442c-1.369.95-2.93 1.701-4.678 2.266s-3.508.844-5.269.844Zm-1.734-23.276q-2.92.002-4.744 1.807c-1.824 1.805-1.98 2.89-2.286 5.057h13.695q-.001-.598-.093-1.057-.46-2.832-2.146-4.319c-1.686-1.487-2.598-1.488-4.425-1.488Zm18.552 22.458V10.557h5.887l.047 5.489c.698-1.801 1.761-3.229 3.189-4.299a7.9 7.9 0 0 1 4.837-1.601q.727 0 1.734.14 1.005.138 1.601.365v5.9q-.737-.23-1.92-.412a15 15 0 0 0-2.186-.186c-2.286 0-4.027.744-5.229 2.219q-1.803 2.221-1.801 6.425v12.352h-6.16ZM63.796 8.424l-13.868-8c-.977-.565-2.571-.565-3.548 0L8.126 22.511l21.17-16.26L19.19.424c-.977-.565-2.571-.565-3.548 0l-13.868 8C.797 8.989 0 10.378 0 11.507v16c0 1.13.797 2.518 1.774 3.083l13.867 8.007c.977.565 2.571.565 3.548 0l38.26-22.087-21.17 16.253 10.1 5.834c.977.565 2.571.565 3.548 0l13.867-8.007c.977-.565 1.774-1.954 1.774-3.076V11.507c0-1.13-.797-2.518-1.774-3.083Z"/></svg>