<svg xmlns="http://www.w3.org/2000/svg" width="250" height="91.957" fill="currentColor" viewBox="0 0 250 91.957"><path d="M101.473 75.746c-.008.166-.024.331-.024.497-.002 1.503.034 3.007-.01 4.509-.084 2.856-1.22 5.164-3.666 6.739a6.8 6.8 0 0 1-3.201 1.074c-2.8.213-5.603.399-8.404.593-1.006.07-2.016.225-3.018.185-3.772-.151-6.72-3.218-6.801-7.005-.012-.569-.01-1.139-.01-1.708.003-7.372.025-14.744-.007-22.116a18 18 0 0 0-.397-3.662c-.334-1.575-1.311-2.297-2.918-2.414-3.216-.233-5.683 1.348-6.862 4.352-.725 1.848-.901 3.778-.908 5.727-.023 6.644-.009 13.288-.028 19.933-.003.913.012 1.853-.184 2.735-.717 3.23-3.42 5.75-6.908 5.981-3.291.218-6.584.425-9.865.752-4.133.412-7.693-2.434-8.047-6.579a35 35 0 0 1-.103-2.985c-.005-13.906-.002-27.812 0-41.718 0-1.856.353-3.617 1.422-5.175 1.299-1.894 3.094-3.037 5.375-3.245 3.112-.285 6.233-.473 9.352-.666.923-.057 1.867-.083 2.778.043 1.649.229 2.954 1.136 4.043 2.369.092.105.189.206.289.315.58-.397 1.136-.778 1.693-1.157 3.281-2.232 6.905-3.605 10.808-4.217 1.556-.244 3.138-.466 4.707-.458 5.435.03 10.399 1.463 14.417 5.342 2.04 1.97 3.523 4.333 4.542 6.982.225.583.428 1.175.67 1.843.103-.154.17-.231.211-.319 2.492-5.336 6.253-9.53 11.267-12.609 3.786-2.325 7.914-3.734 12.22-4.725 4.766-1.097 9.592-1.313 14.445-1.105 5.368.23 10.437 1.589 15.079 4.357 4.086 2.437 7.129 5.851 9.256 10.097.219.437.391.897.59 1.344.087.196.185.387.335.698.267-.628.488-1.141.703-1.657a28.3 28.3 0 0 1 6.473-9.493c3.288-3.191 7.158-5.478 11.45-7.067 2.868-1.062 5.814-1.835 8.842-2.217 2.392-.302 4.803-.547 7.211-.6 4.818-.107 9.54.517 14.054 2.33 3.265 1.312 6.182 3.161 8.666 5.662 1.307 1.316 2.413 2.799 3.402 4.369a.85.85 0 0 0 .339.329c.008-.174.023-.349.023-.523-.002-7.926-.038-15.852.009-23.777.017-2.81 1.349-4.944 3.891-6.193.731-.359 1.59-.539 2.409-.62 2.449-.243 4.906-.404 7.361-.581 1.621-.117 3.243-.237 4.866-.305 3.357-.14 6.028 2.045 6.579 5.372.092.558.111 1.133.111 1.7q.008 31.467.002 62.933c0 1.168.009 2.331-.36 3.474-.801 2.484-3.153 4.383-5.743 4.569-3.951.283-7.902.569-11.854.849-1.441.102-2.842-.01-4.114-.797-2.052-1.27-3.028-3.162-3.149-5.523-.05-.975-.008-1.956-.008-2.934l-.165-.119c-.04.098-.063.207-.123.291-2.918 4.143-6.754 7.179-11.276 9.393-4.005 1.961-8.238 3.169-12.625 3.878-3.596.581-7.218.821-10.854.659-4.832-.215-9.539-1.059-13.936-3.187-4.572-2.213-8.119-5.535-10.545-10.018-.472-.873-.851-1.796-1.276-2.695-.044-.092-.108-.175-.207-.333l-.39.979c-1.551 3.852-3.795 7.243-6.79 10.119-2.203 2.116-4.704 3.81-7.432 5.19-3.887 1.966-8.014 3.143-12.29 3.821-3.528.56-7.082.867-10.659.697-4.861-.231-9.597-1.039-14.043-3.142-4.181-1.978-7.606-4.833-10.138-8.73-.157-.241-.3-.492-.449-.738l-.1.033Zm91.027 3.913.01.144c2.278-.197 4.566-.321 6.833-.605 5.076-.638 9.91-2.063 14.318-4.742 4.27-2.596 7.565-6.082 9.602-10.689.207-.469.339-.992.395-1.502.136-1.245-.715-2.145-1.954-2.133-.205.002-.41.018-.615.034-1.289.104-2.578.218-3.868.313q-4.743.349-9.487.677c-.748.051-1.296.384-1.748.98-1.437 1.898-3.086 3.56-5.312 4.532-2.896 1.264-5.899 1.383-8.957.787-2.25-.439-4.207-1.442-5.742-3.171-1.67-1.881-2.477-4.156-2.903-6.594-.055-.313.068-.416.376-.432 1.072-.054 2.143-.125 3.214-.202 4.267-.306 8.534-.62 12.802-.923 2.914-.207 5.829-.399 8.742-.605q5.127-.362 10.253-.736c1.606-.117 3.214-.213 4.816-.376 1.11-.113 1.937-1.067 1.965-2.154.103-4.086-.306-8.112-1.416-12.055-1.349-4.791-3.773-8.866-7.805-11.904-3.455-2.603-7.428-3.867-11.612-4.539-3.273-.526-6.583-.372-9.876-.161a38.2 38.2 0 0 0-8.231 1.466c-5.925 1.723-11.032 4.68-14.866 9.654-2.305 2.99-3.876 6.324-4.869 9.935-.912 3.318-1.124 6.725-1.044 10.154.078 3.366.485 6.68 1.525 9.898 1.26 3.896 3.324 7.255 6.556 9.831 2.761 2.201 5.938 3.493 9.347 4.283 3.145.729 6.334.931 9.551.837Zm-64.562 4.612c1.309-.055 2.621-.075 3.927-.175 1.305-.1 2.608-.249 3.904-.432 4.602-.651 9.003-1.936 13.06-4.264 3.027-1.737 5.603-3.984 7.688-6.794 2.42-3.262 3.848-6.947 4.656-10.895.586-2.865.7-5.766.669-8.684-.033-3.069-.41-6.078-1.244-9.034-1.682-5.965-5.262-10.399-10.807-13.126-3.931-1.933-8.163-2.822-12.539-2.936-3.302-.086-6.594.069-9.869.555-3.546.526-6.999 1.382-10.272 2.86-4.047 1.827-7.567 4.33-10.214 7.986-2.753 3.804-4.423 8.024-5.177 12.642-.402 2.465-.37 4.945-.375 7.428-.006 3.236.453 6.394 1.435 9.477 1.114 3.5 2.918 6.572 5.613 9.096 2.644 2.476 5.779 4.046 9.236 5.01 3.37.94 6.814 1.309 10.309 1.286M60.735 43.295c-.028-.257-.055-.388-.055-.519-.001-1.297.01-2.594.003-3.891-.011-2.126-1.246-3.387-3.361-3.342-1.37.029-2.738.17-4.106.274-2.013.152-4.027.303-6.038.487-.349.032-.71.175-1.021.348-1.424.792-1.957 2.108-1.959 3.65-.012 14.696-.008 29.392-.007 44.089 0 2.192 1.359 3.561 3.546 3.441 3.342-.183 6.679-.442 10.018-.682.327-.023.654-.111.969-.209 1.247-.389 2.489-1.878 2.476-3.726-.047-6.644-.036-13.288-.002-19.932.011-2.164.13-4.33.733-6.435.828-2.896 2.301-5.33 4.929-6.937 1.528-.934 3.217-1.384 4.985-1.504 4.008-.273 6.918 1.588 7.977 5.474.444 1.629.566 3.302.572 4.981.016 4.192.007 8.384.008 12.576 0 3.528.003 7.055 0 10.583 0 .841.239 1.592.799 2.223.684.772 1.551 1.115 2.579 1.046 3.15-.212 6.301-.419 9.45-.646.563-.041 1.143-.101 1.674-.277 1.569-.52 2.468-1.962 2.469-3.874q.007-14.166-.002-28.333c0-1.122-.018-2.246-.091-3.365-.181-2.785-.79-5.473-2.022-7.99-.899-1.837-2.07-3.483-3.693-4.754-2.665-2.086-5.741-3.111-9.074-3.48-1.952-.216-3.888-.051-5.803.247-4.197.653-8.024 2.185-11.236 5.063-1.437 1.287-2.881 2.564-3.887 4.249-.221.371-.499.708-.828 1.169Zm185.176-4.44V6.968c0-.174.003-.348-.002-.522-.041-1.377-1.023-2.363-2.392-2.336-.929.018-1.857.111-2.785.179-3.036.219-6.069.492-9.108.645-1.877.095-2.795 1.639-2.794 3.076.012 21.321.008 42.643.008 63.964 0 .158-.004.317.004.474.074 1.477.929 2.335 2.394 2.379a17 17 0 0 0 1.657-.026c3.056-.208 6.111-.43 9.166-.648.378-.027.756-.053 1.133-.091 1.738-.173 2.717-1.264 2.717-3.036V38.854Zm-59.522 21.106c.391.569.719 1.022 1.023 1.491.821 1.268 1.977 2.121 3.364 2.651 2.019.772 4.118.861 6.245.631 1.821-.196 3.459-.875 4.719-2.182 1.054-1.094 1.912-2.379 2.852-3.583.032-.04.019-.116.035-.239zM37.89 20.641c.04 11.419-9.336 18.946-18.61 19.085C8.959 39.88.107 31.566 0 20.855-.101 10.482 8.414 1.808 18.89 1.779c10.424-.029 18.867 8.34 19.001 18.862ZM26.447 33.075l-.41.328c.154.076.302.183.465.22.147.034.312-.02.469-.015.461.013.731-.2.798-.66.062-.428-.056-.871-.439-1.01-.339-.123-.77-.004-1.157.04-.026.003-.061.281-.024.411.069.239.188.464.287.695zM16.216 14.669c-1.315-.429-1.388-.391-2.106.807-.192.321-.446.608-.691.893-.224.261-.482.249-.752.043-.189-.145-.395-.269-.639-.432-.42.903-.837 1.703-1.169 2.536-.76 1.909-.782 3.761.569 5.461.088.111.187.23.222.361.04.15.015.317.018.477-.17-.005-.349.02-.509-.023-.15-.041-.279-.154-.418-.236l-.088.107c.583 1.495 1.421 2.77 2.99 3.435.207.088.452.207.562.385.804 1.304 2.048 1.925 3.457 2.302.326.087.664.126 1.125.21l-.418-.879c1.668.878 3.244.739 4.802-.289-.066-.097-.099-.171-.153-.222-.484-.456-.45-.681.178-.956.332-.145.682-.249 1.022-.375 2.337-.865 3.512-3.099 2.928-5.509a1.83 1.83 0 0 1 .044-.952c.544-1.655.202-3.188-.593-4.808-.113.168-.186.27-.253.377-.248.395-.515.328-.719-.013a6.7 6.7 0 0 1-.472-1.022c-.194-.499-.32-1.029-.55-1.509-.277-.578-.769-.965-1.361-1.307-.07.191-.119.303-.152.42-.179.629-.48.754-1.046.408-.269-.164-.521-.356-.774-.545-1.001-.747-1.62-.685-2.416.241-.026.03-.082.035-.142.06-.188-.345-.118-.647.135-.906.907-.933 1.715-.461 2.559.339-.015-.836-.394-1.296-.917-1.643-.69-.457-1.3-.268-1.695.456a.63.63 0 0 1-.373.271c-.613.139-1.243.21-1.849.375-.389.106-.712.119-1.083-.073-.539-.279-1.302-.176-1.596.149-.356.394-.488 1.512-.2 1.997.349-.839.847-1.465 1.847-1.221.36.088.708.28.677.81Zm-2.073-6.567c.161-.015.237-.013.309-.03.812-.191 1.615-.426 2.435-.569 1.569-.273 3.143-.21 4.706.077.191.035.362.183.542.278l-.069.175c-.259-.027-.517-.057-.776-.079-.266-.022-.534-.054-.8-.044-.093.004-.266.132-.258.183.068.48.151.96.27 1.43.022.088.223.162.35.183.184.029.378.008.567-.001 1.218-.055 2.204-.899 2.471-2.112.241-1.093-.338-2.373-1.347-2.897-.723-.375-1.462-.407-2.141.111-.401.305-.761.664-1.155.98-.139.112-.322.17-.485.253l-.138-.127c.086-.219.145-.453.262-.653.287-.491.255-.586-.302-.75-1.557-.456-3.087-.315-4.609.18-.41.133-.702.361-.958.714-.747 1.033-1.689 1.769-3.02 1.924-.255.03-.565.289-.692.527a2.4 2.4 0 0 0-.264 1.092c.012 1.747 1.344 2.485 2.761 2.15.226-.054.505-.216.599-.408.1-.202.007-.499 0-.754-.185.042-.375.07-.554.131-.117.04-.212.169-.326.183-.18.022-.367-.019-.551-.033.087-.149.137-.356.267-.438 1.093-.69 2.058-1.512 2.809-2.576.101-.143.288-.225.435-.335l.145.116-.484 1.117Zm.757 26.962c.772 1.457 1.737 2.155 2.854 2.006 1.231-.164 2.076-.854 2.255-1.84.231-1.278-.192-2.416-1.223-2.869-1.848-.812-3.059-.012-3.835 1.741-.046-.392-.042-.738-.046-1.084-.016-1.169.173-.965-1-1.012-.377-.015-.549.081-.522.498.034.522.008 1.047.008 1.571l-.187.096c-.06-.109-.108-.227-.181-.326-.321-.431-.65-.855-.974-1.283-.43-.569-.861-.761-1.361-.57-.569.217-.523.728-.528 1.199-.009.948-.007 1.896-.011 2.845-.004 1.142-.004 1.127 1.149 1.12.387-.002.493-.157.481-.511-.018-.51-.005-1.022-.005-1.533a.6.6 0 0 1 .33.217c.419.533.827 1.075 1.258 1.598.295.358.697.418 1.119.279.424-.139.405-.521.415-.866.013-.425.003-.85.003-1.275Zm1.066-22.3-.008-.071c.797-.171 1.594-.34 2.389-.516a.4.4 0 0 0 .201-.12c.41-.504.934-.766 1.581-.831.095-.009.262-.277.235-.385-.238-.949-.514-1.889-.773-2.833-.071-.26-.216-.345-.488-.314-.72.082-1.445.125-2.166.208-1.33.153-2.6.508-3.743 1.229-.119.075-.252.283-.231.402.175.946.384 1.886.585 2.828.049.229.164.31.41.229.588-.195 1.174-.238 1.738.097.078.046.178.053.269.078Zm5.67 21.019-.025-.21c.158-.05.314-.138.473-.144.41-.015.822.025 1.23.003.138-.007.374-.12.387-.209a4 4 0 0 0 0-.991c-.009-.081-.201-.2-.309-.201-.662-.003-1.328-.008-1.987.049-.668.058-1.088.539-1.098 1.204-.013.91-.007 1.821-.002 2.732.003.496.283.941.765 1.001.865.108 1.742.123 2.625.177v-1.508c-.669-.229-1.411.156-2.022-.226l.017-.197h1.996c.02-.135.035-.195.038-.256q.054-1.198-1.145-1.197c-.315 0-.629-.017-.944-.026Zm3.93 1.833c.062-.867.054-1.661.191-2.43.143-.804-.078-1.166-.895-1.165-.095 0-.19.003-.284-.005-.26-.02-.376.094-.375.357.002 1.185-.011 2.371-.002 3.556.004.532.273.969.785 1.054.823.137 1.666.152 2.502.219v-1.587h-1.921Z"/><path d="m208.696 44.821-24.824 1.755c.224-.841.385-1.575.615-2.286.899-2.786 2.407-5.147 4.885-6.791 1.879-1.246 3.972-1.896 6.202-2.156 1.887-.22 3.757-.17 5.588.346 3.667 1.033 5.865 3.548 6.997 7.095.204.64.345 1.301.537 2.037m-20.903-1.693.083.128c.152 0 .304.008.455-.001.755-.049 1.509-.107 2.264-.153 1.637-.101 3.275-.184 4.91-.297 2.894-.2 5.788-.416 8.681-.631.273-.02.543-.079.814-.12-.149-.226-.277-.471-.451-.676-.979-1.155-2.051-2.173-3.544-2.666-1.281-.423-2.584-.517-3.918-.516-3.51.004-6.445 1.19-8.591 4.068-.222.297-.469.576-.704.864Zm-43.849 12.666c-.121 2.42-.448 4.795-1.345 7.057-1.081 2.727-2.849 4.874-5.493 6.21-3.211 1.622-6.585 2.038-10.071 1.123-3.312-.869-5.44-3.068-6.638-6.223-.789-2.078-1.084-4.247-1.125-6.459-.047-2.53.205-5.016 1.033-7.426q2.362-6.888 9.494-8.276c2.023-.394 4.042-.431 6.056.085 2.711.694 4.777 2.225 6.145 4.684 1.138 2.045 1.631 4.268 1.806 6.576.067.882.092 1.767.137 2.65Zm-4.127-.359a20.2 20.2 0 0 0-.592-5.024c-.533-2.189-1.825-3.709-3.964-4.476-1.052-.377-2.146-.341-3.232-.301a9.9 9.9 0 0 0-3.628.808c-2.635 1.148-3.85 3.386-4.562 5.995-.652 2.388-.567 4.825-.357 7.253.13 1.505.538 2.95 1.42 4.222.783 1.129 1.776 1.963 3.13 2.31 1.594.409 3.201.317 4.787.008 2.815-.55 4.849-2.11 5.947-4.815.779-1.92 1.038-3.927 1.052-5.979ZM22.487 16.669c.465.809.283 1.9-.422 2.718-.506.586-1.096 1.023-1.892 1.167-.218.04-.441.276-.58.479-.334.486-.931.691-1.334.315-.358-.334-.678-.276-1.073-.171-1.568.417-3.227-.752-3.402-2.272.363.178.765.479 1.21.569.829.168 1.409-.313 1.847-.968.13-.194.213-.328.475-.174.63.37 1.151.303 1.635-.262.271-.316.475-.377.868-.192 1.15.543 2.028.182 2.516-.968.03-.069.081-.13.153-.243Zm-.348 1.455c-.202.08-.325.127-.446.177-.508.213-1.025.332-1.559.109-.387-.162-.717-.108-1.055.143-.498.37-1.037.582-1.679.333-.12-.047-.36.026-.451.128-.556.623-1.227.964-2.118.972.176.222.361.438.594.534.994.408 1.956.266 2.828-.331.293-.2.549-.255.876-.191 1.357.267 2.308-.556 2.918-1.487.052-.079.049-.195.092-.388Zm-5.577-1.949c-.65.29-1.188.532-1.729.766-.077.033-.221.063-.251.027-.059-.073-.109-.214-.077-.29.121-.287.272-.562.421-.836.028-.051.106-.072.143-.121.367-.476.371-.484.88-.096.223.171.42.376.612.55Zm4.566-.712-1.984.134q-.101-.428.733-.639l-.226-.463c.236-.269.475-.225.68 0 .272.298.515.622.797.968m-.619 6.963c-.182.672-1.673 1.1-2.299.614zm-2.892 11.128c.523-.005 1.044.524 1.063 1.079.015.448-.591 1.039-1.065 1.039-.454 0-1.042-.562-1.047-.999-.007-.605.469-1.113 1.049-1.119m8.82-.472c.711-.014.752-.062.688-.802.341.106.514.386.365.672-.146.281-.402.442-.737.333-.112-.037-.203-.139-.305-.211z"/></svg>