<svg xmlns="http://www.w3.org/2000/svg" width="250" height="81.049" fill="currentColor" viewBox="0 0 250 81.049"><path d="M227.692 50.56c.541.164.87.026 1.211-.144 1.585-.792 3.142-1.656 4.776-2.333 2.522-1.045 5.154-1.709 7.921-1.555a9.3 9.3 0 0 1 2.248.403c2.135.666 3.105 2.291 2.761 4.485-.224 1.428-.794 2.731-1.544 3.946-1.005 1.627-2.112 3.193-3.107 4.826-1.677 2.752-3.704 5.251-5.622 7.831-.686.923-1.283 1.916-1.855 2.914-.235.411-.32.915-.428 1.386-.085.372.13.649.487.697.456.061.935.095 1.385.023 1.041-.167 1.952-.685 2.833-1.224 3.156-1.93 6.178-4.046 8.946-6.503.449-.399.932-.726 1.581-.688.503.03.672.156.708.652.053.737-.149 1.428-.619 1.99-.643.771-1.306 1.535-2.037 2.223-2.563 2.412-5.251 4.686-8.187 6.64-2.189 1.457-4.389 2.914-7.008 3.573-1.24.312-2.416.371-3.604-.191-1.723-.817-2.596-2.392-2.281-4.262.235-1.395.814-2.67 1.496-3.893 1.412-2.532 3.094-4.891 4.789-7.242a256 256 0 0 0 3.048-4.336c.688-.996 1.224-2.064 1.471-3.262.165-.801-.058-1.451-.676-1.973-.934-.789-2.023-1.109-3.232-.95-1.505.199-2.919.706-4.295 1.329-3.02 1.366-5.521 3.393-7.668 5.882-1.659 1.923-3.054 4.028-4.369 6.188-1.607 2.639-3.16 5.31-4.798 7.929-.66 1.056-1.44 2.049-2.249 3.001-.452.532-1.066.934-1.625 1.371-.756.591-1.63.749-2.578.686-1.178-.079-1.864-.886-1.606-2.039.246-1.098.519-2.197 1.077-3.193.887-1.582 1.756-3.175 2.69-4.729 1.364-2.271 2.785-4.508 4.164-6.77.191-.313.579-.677.256-1.051-.266-.308-.645.006-.96.093-1.368.378-2.754.566-4.172.397-1.263-.151-1.374-.064-1.784 1.166-.558 1.675-1.242 3.299-2.103 4.847-1.301 2.339-2.992 4.366-4.976 6.161-1.626 1.471-3.279 2.914-5.266 3.896-2.76 1.364-5.604 1.977-8.646.905-2.352-.829-4.034-2.401-5.297-4.474-.938-1.539-1.43-3.208-1.508-5.01-.145-3.358.579-6.51 2.184-9.467a12 12 0 0 0 .393-.788c.037-.082.024-.185.038-.321-.448-.183-.894-.097-1.316-.04-1.088.147-2.16.13-3.236-.105-.669-.146-.885-.013-1.047.683-.529 2.279-1.43 4.42-2.371 6.552a12.8 12.8 0 0 1-1.562 2.656c-1.877 2.439-3.902 4.736-6.341 6.653-2.472 1.942-5.168 3.386-8.281 4.056-3.377.726-7.843-1.311-8.21-5.975-.159-2.022-.005-4.013.561-5.962.396-1.363.842-2.712 1.268-4.067.079-.252.168-.501.275-.816-.238-.078-.412-.17-.594-.189-1.371-.149-2.744-.285-4.116-.424-.494-.05-.563-.009-.739.501-.24.695-.486 1.388-.698 2.091-.416 1.38-1.105 2.628-1.964 3.765-1.732 2.293-3.503 4.566-5.623 6.522-1.923 1.774-4.013 3.323-6.567 4.143-2.908.934-5.702.775-8.328-.838-2.158-1.326-3.59-3.246-4.425-5.614-.537-1.524-.72-3.093-.641-4.7.017-.352-.025-.707-.039-1.06l-.159-.053c-.254.29-.518.57-.759.87-2.895 3.612-6.284 6.699-10.129 9.283-1.597 1.073-3.332 1.877-5.191 2.451-2.843.878-5.321-.855-6.243-2.8-.767-1.617-1.055-3.314-.729-5.077.24-1.298.558-2.581.848-3.87.095-.42.225-.836 0-1.344-.186.158-.324.247-.427.367-2.249 2.625-4.808 4.92-7.592 6.966a58 58 0 0 1-3.911 2.638c-2.074 1.278-4.38 2.012-6.727 2.616-1.169.301-2.343.604-3.531.81-3.606.625-6.976-.026-10.046-2.021-1.035-.672-1.966-1.477-2.639-2.538-.841-1.324-.7-2.428.473-3.546 1.139-1.086 2.485-1.236 3.694-.394.322.224.613.493.905.756q.521.47 1.021.96c1.1 1.072 2.353 1.31 3.809.797 2.195-.775 4.135-1.954 5.874-3.477.955-.836 1.702-1.837 2.343-2.918.856-1.44 1.481-2.984 2.015-4.566.645-1.909.367-3.766-.333-5.595a13 13 0 0 0-.514-1.139c-.295-.588-.62-.598-1.035-.08-.675.841-1.323 1.71-2.064 2.491-2.104 2.217-4.694 3.597-7.671 4.328-2.093.514-4.153.413-6.222-.067a4 4 0 0 0-.509-.09c-.685-.076-.978.101-1.133.752-.373 1.568-1.179 2.948-1.872 4.38-1.366 2.823-3.558 4.964-5.793 7.085-1.366 1.296-2.85 2.436-4.52 3.294-3.41 1.752-6.885 2.206-10.38.199-1.624-.933-2.811-2.296-3.735-3.891-1.639-2.831-1.782-5.853-1.101-8.965.959-4.381 3.205-8.063 6.223-11.341 2.757-2.994 5.938-5.444 9.493-7.422 1.647-.916 3.39-1.604 5.274-1.847 2.157-.277 4.175.1 5.965 1.407 1.634 1.194 2.453 2.818 2.67 4.794a18.5 18.5 0 0 1-.298 5.911c-.252 1.188-.112 1.361 1.101 1.527 1.734.238 3.477.167 5.125-.397 3.597-1.23 6.609-3.286 8.63-6.563.458-.743.726-1.601 1.073-2.41.241-.562.43-1.15.708-1.693.717-1.405 2.386-2.766 4.59-2.383.413.072.827.134 1.241.2.372.059.578.293.589.648.013.414.006.834-.055 1.243-.12.807-.037 1.586.402 2.267.637.987 1.342 1.931 2.016 2.895.309.442.629.878.913 1.335.83 1.333.977 2.753.747 4.304-.455 3.064-1.77 5.734-3.528 8.23-1.149 1.632-2.451 3.129-4 4.406-.587.484-1.161.984-1.74 1.478-.112.096-.257.177-.32.299-.069.134-.061.307-.087.463.155.023.343.113.458.057a18 18 0 0 0 1.555-.849 45.3 45.3 0 0 0 6.83-5.142c.904-.83 1.754-1.72 2.608-2.602 1.23-1.271 2.465-2.54 3.657-3.845 2.569-2.813 5.064-5.694 7.314-8.764 1.61-2.196 3.083-4.491 4.605-6.75.217-.321.369-.686.534-.998-.156-.372-.427-.391-.704-.355-2.566.33-5.168.373-7.696 1.005-.986.247-1.15.06-.85-.887.964-3.048 2.978-4.94 6.197-5.506a35 35 0 0 1 6.404-.556c.793.007 1.26-.29 1.668-.949a146 146 0 0 1 3.598-5.558 407 407 0 0 1 5.337-7.589c.585-.816 1.253-1.576 1.918-2.331 1.324-1.503 3.056-2.213 5.018-2.364.949-.073 1.867.114 2.562.887q.987 1.099.474 2.451a5.2 5.2 0 0 1-.58 1.101c-1.13 1.635-2.368 3.204-3.405 4.895-1.518 2.476-3.318 4.745-5.005 7.097q-.601.838-1.141 1.716c-.438.714-.327.909.496.917q1.332.013 2.666-.004c1.332-.018 2.664-.05 3.996-.076.099-.002.198-.012.296-.007.823.042 1.035.33.835 1.136-.699 2.825-2.613 4.495-5.519 4.875-1.777.233-3.546.102-5.318.002-.222-.013-.447.001-.665-.034-.816-.133-1.332.212-1.755.9-1.285 2.093-2.784 4.038-4.28 5.986a123 123 0 0 0-3.859 5.296c-.565.823-.988 1.751-1.413 2.66a293 293 0 0 0-3.068 6.759c-.37.849-.649 1.744-.624 2.701.03 1.18.675 1.919 1.862 1.923a7.8 7.8 0 0 0 2.182-.316c2.382-.697 4.508-1.883 6.255-3.643 1.383-1.394 2.68-2.873 3.997-4.33a164 164 0 0 0 3.362-3.813c.651-.767 1.243-1.583 1.844-2.391 1.21-1.626 2.661-3.021 4.206-4.324 2.188-1.845 4.505-3.506 7.075-4.794 1.575-.789 3.23-1.392 4.987-1.556 3.068-.286 5.655.624 7.429 3.274.617.921.906 1.957.929 3.055.041 1.958.104 3.918-.248 5.86a2 2 0 0 0-.024.293c-.017.625.081.809.692.931.747.15 1.508.245 2.267.322.539.055 1.085.032 1.627.059.68.033 1.186-.191 1.506-.83.57-1.14 1.171-2.265 1.767-3.392 1.754-3.32 3.697-6.532 5.739-9.683 2.148-3.314 4.321-6.615 6.57-9.862 1.662-2.399 3.397-4.754 5.397-6.9.485-.521.912-1.096 1.399-1.615 2.027-2.156 4.206-4.135 6.766-5.666 1.366-.817 2.821-1.411 4.392-1.691 1.35-.241 2.638-.152 3.811.7 1.541 1.12 2.044 2.64 1.866 4.444-.213 2.155-.681 4.254-1.531 6.256-.535 1.26-.966 2.561-1.706 3.739a44.5 44.5 0 0 1-5.24 6.821c-3.451 3.676-7.058 7.191-10.923 10.443-1.091.918-2.144 1.881-3.2 2.838-1.794 1.626-3.76 3.013-5.859 4.222-.619.356-1.238.713-1.835 1.104-.215.14-.439.351-.53.58a919 919 0 0 0-3.251 8.353 3 3 0 0 0-.174.786c-.152 1.419.803 2.314 2.215 2.055 1.086-.199 2.034-.73 2.964-1.295 1.623-.984 2.919-2.336 4.162-3.727 2.027-2.268 3.617-4.832 4.909-7.572.321-.682.571-1.415.729-2.151.426-1.989 1.854-3.114 3.469-4.076.561-.334 1.093-.162 1.47.399.429.64 1.023 1.042 1.719 1.337 2.495 1.056 4.85.675 7.019-.804 1.318-.898 2.525-1.958 3.773-2.955 1.965-1.571 4.025-3.004 6.296-4.108 1.874-.912 3.824-1.611 5.947-1.606 1.775.004 3.398.511 4.828 1.592 1.535 1.16 2.309 2.745 2.477 4.59.15 1.653.186 3.324-.078 4.979-.065.411-.168.816-.226 1.227-.121.858.029 1.016.891.953 1.593-.116 3.114-.507 4.534-1.239 1.807-.932 3.504-2.034 4.815-3.6.673-.804 1.213-1.722 1.781-2.609.516-.805.955-1.66 1.488-2.453 1.325-1.971 3.959-2.99 6.149-2.397.352.095.703.245 1.009.439.672.425.875 1.03.626 1.781-.115.347-.304.671-.422 1.017-.098.287-.141.593-.214.919Zm-99.463 21.535c1.103-.064 2.324-.489 3.497-1.09 1.885-.966 3.49-2.325 4.952-3.795a22.2 22.2 0 0 0 4.013-5.511c.447-.871.413-1.072-.351-1.67-.135-.106-.275-.207-.411-.312a24.7 24.7 0 0 1-4.767-4.888c-.545-.744-.867-.815-1.658-.278a70 70 0 0 0-2.525 1.793c-1.9 1.419-3.616 3.03-5.043 4.925-1.195 1.586-2.071 3.323-2.424 5.294-.164.914-.117 1.839.244 2.669.801 1.841 2.092 2.811 4.472 2.864Zm-84.622.11c.644-.15 1.303-.254 1.929-.459 1.659-.545 3.111-1.459 4.459-2.551 1.153-.934 2.09-2.068 3.091-3.147 1.159-1.249 2.217-2.552 3.012-4.063.503-.956.505-1.083-.313-1.803-.184-.162-.387-.304-.566-.472-.465-.436-.967-.844-1.374-1.33-1.038-1.24-2.038-2.511-3.039-3.781-.455-.577-.833-.687-1.452-.306-.439.27-.855.579-1.267.89-2.164 1.628-4.277 3.313-5.999 5.423-1.526 1.87-2.752 3.873-3 6.342-.301 2.986 1.727 5.167 4.519 5.258Zm145.624-.045c.413-.062.834-.09 1.236-.191 1.85-.464 3.493-1.355 4.94-2.563 1.664-1.389 3.145-2.97 4.482-4.668.726-.921 1.351-1.926 1.956-2.932.523-.87.487-.962-.29-1.589a31.3 31.3 0 0 1-4.137-3.98c-.399-.466-.773-.953-1.174-1.417-.616-.714-.77-.757-1.553-.273-.667.413-1.323.855-1.934 1.346-1.899 1.525-3.745 3.107-5.267 5.025-1.109 1.397-2.024 2.892-2.494 4.624-.348 1.281-.414 2.579.067 3.826.667 1.729 2.276 2.751 4.167 2.792Zm-27.232-17.552c.792-.085 1.277-.544 1.759-.985 3.029-2.771 5.964-5.632 8.649-8.741 3-3.474 6.055-6.903 8.696-10.664 1.187-1.69 2.24-3.459 3.041-5.361.216-.511.306-1.077.428-1.624.066-.297.03-.588-.272-.774-.281-.173-.535-.061-.756.098-1.037.745-2.172 1.395-3.07 2.281-1.659 1.636-3.278 3.333-4.731 5.148-2.176 2.718-4.193 5.561-6.278 8.351-.426.57-.898 1.112-1.269 1.715a1113 1113 0 0 0-5.612 9.236c-.246.41-.393.879-.585 1.32m41.906 1.57c.083-.203.189-.338.18-.465-.055-.798-.107-1.598-.22-2.389-.067-.467-.428-.769-.851-.945a4.6 4.6 0 0 0-2.234-.341c-.416.041-.561.28-.424.657.049.134.131.268.231.37.909.922 1.821 1.842 2.745 2.75.147.144.354.228.573.364Zm-64.753-4.143c.647 1.749 2.023 2.893 3.284 4.13.367-.129.477-.376.473-.699-.005-.391.015-.783-.014-1.172-.046-.62-.191-1.209-.672-1.662-.609-.574-2.096-.889-3.071-.597m-80.917 4.153c.084-.184.152-.286.178-.398.247-1.049.032-2.038-.475-2.959a1.27 1.27 0 0 0-.67-.539 8.7 8.7 0 0 0-1.719-.38c-.529-.059-.761.364-.479.816.246.393.512.779.807 1.136.684.827 1.352 1.673 2.358 2.324"/><path d="M16.048 51.886c-.478-.048-.833-.104-1.19-.117-1.824-.066-3.652-.061-5.47-.202-.997-.078-1.981-.37-2.957-.62-.345-.088-.682-.297-.965-.521-.848-.67-.875-1.422-.117-2.188.712-.719 1.57-1.214 2.56-1.389a32 32 0 0 1 3.445-.421c2.14-.145 4.285-.224 6.428-.332q.074-.002.147-.014c2.209-.361 1.976-.255 3.014-2.022.782-1.332 1.627-2.627 2.45-3.935 2.484-3.944 4.959-7.894 7.463-11.826a490 490 0 0 1 4.744-7.275c.405-.612.897-1.168 1.356-1.743.481-.604 1.12-.755 1.857-.621 1.035.189 1.816.707 2.294 1.663.955 1.908.837 3.806-.146 5.637-.671 1.25-1.47 2.434-2.23 3.636a3360 3360 0 0 1-6.94 10.935 93 93 0 0 1-1.922 2.87c-.272.393-.188.775-.107 1.17.729.09.77.097 1.025-.445.256-.543.698-.797 1.238-.955 2.673-.783 5.364-1.512 8.013-2.366 4.935-1.591 9.77-3.44 14.234-6.109 2.817-1.684 5.474-3.6 7.781-5.943 1.98-2.01 3.615-4.273 4.779-6.848.788-1.742 1.073-3.567.681-5.449-.345-1.653-1.343-2.93-2.622-3.982-1.609-1.324-3.525-2.059-5.512-2.593-2.78-.747-5.594-.87-8.424-.253-2.456.535-4.934.985-7.364 1.618a52.6 52.6 0 0 0-8.149 2.876c-1.71.762-3.449 1.462-5.143 2.257a86 86 0 0 0-4.875 2.468c-2.33 1.28-4.623 2.627-6.927 3.953-.661.381-1.317.772-1.954 1.19-2.387 1.563-4.787 3.11-7.143 4.718-2.357 1.61-4.664 3.291-7.003 4.928a5 5 0 0 1-1.107.583c-.686.254-1.199-.06-1.244-.776a23 23 0 0 1-.029-2.421c.124-2.768.554-5.499 1.057-8.22.182-.985.644-1.8 1.491-2.359 1.026-.678 2.046-1.37 3.113-1.981 3.825-2.19 7.63-4.417 11.514-6.5 4.231-2.269 8.528-4.414 12.984-6.232 4.525-1.846 9.108-3.504 13.91-4.505A63 63 0 0 1 52.651.022c1.002-.069 2.022.024 3.026.122 1.594.157 3.202.278 4.767.596 4.62.941 8.448 3.227 11.306 6.979 2.136 2.805 3.294 5.995 3.069 9.523-.211 3.301-1.215 6.362-3.32 9.035-2.403 3.052-5.138 5.741-8.273 8.043-2.163 1.589-4.391 3.08-6.72 4.414-2.027 1.161-4.069 2.3-6.235 3.206-2.227.931-4.398 2.005-6.659 2.839a138 138 0 0 1-12.404 3.916c-1.572.416-3.144.834-4.72 1.233-.538.136-.909.42-1.178.91a535 535 0 0 1-3.405 6.1c-1.702 3.009-3.417 6.011-5.125 9.017-.538.946-.907 1.94-1.049 3.033-.137 1.053-.552 2.043-1.105 2.943a146 146 0 0 1-3.459 5.385c-.978 1.447-2.46 2.306-3.984 3.084-.285.145-.583.264-.875.397-1.198.545-2.361.185-3.041-.948a4.2 4.2 0 0 1-.581-2.177c-.001-.727.064-1.469.217-2.18.312-1.44.857-2.806 1.511-4.131 1.36-2.752 2.992-5.348 4.599-7.959 1.208-1.964 2.405-3.935 3.621-5.894.97-1.563 1.966-3.11 2.94-4.67.163-.26.274-.552.47-.954Zm194.266-20.935a5.9 5.9 0 0 1 2.396.625c.756.384.989.958.768 1.77-.159.581-.447 1.098-.893 1.498-.913.82-1.824 1.646-2.789 2.403-1.663 1.305-3.346 2.593-5.207 3.616-.839.461-1.705.881-2.583 1.263-.594.259-1.239.337-1.88.123-.939-.314-1.257-.938-.843-1.826.277-.594.651-1.154 1.042-1.684 1.489-2.015 3.072-3.95 4.908-5.673 1.269-1.191 3.32-2.109 5.082-2.115Z"/></svg>