<svg xmlns="http://www.w3.org/2000/svg" width="160" height="126.443" viewBox="0 0 160 126.443" fill="currentColor"><path d="M129.708 0H30.292C13.586 0 0 13.586 0 30.292v65.859c0 16.706 13.586 30.292 30.292 30.292h99.416c16.706 0 30.292-13.586 30.292-30.292V30.292C160 13.586 146.414 0 129.708 0m24.96 96.151c0 13.732-11.229 24.96-24.96 24.96H30.292c-13.726 0-24.96-11.229-24.96-24.96V30.292c0-13.726 11.234-24.96 24.96-24.96h99.416c13.726 0 24.96 11.234 24.96 24.96zm-23.896-53.102c5.97-1.764 12.041.062 16.851 4.06v-12.83c-15.569-2.47-23.728-.79-29.95 3.075-5.051 3.226-7.191 7.628-7.191 7.628s-.112.235-.297.655C109.367 13.172 89.503 16 65.797 16.006H52.446v27.979C48.509 32.404 36.34 33.652 23.319 33.652H12.37v59.189h17.932c-2.991-1.042-4.508-3.635-4.508-7.404V69.174l5.175 5.175c2.279.56 4.279.498 4.279.498 4.951-.274 13.85-2.19 17.198-12.225v47.888h21.331c-2.979-1.036-4.497-3.584-4.497-7.336V71.012l8.087 8.059c2.61.935 4.531 1.092 6.737.991 6.222-.392 16.879-3.019 22.457-14.27.459 10.579 3.926 21.186 14.656 25.358 4.721 1.932 10.092 2.47 15.675 2.038 3.646-.106 7.191-.431 10.736-1.07V63.125l-16.342.006c2.991 1.042 4.508 3.5 4.508 7.269v13.205c-3.724 1.165-8.759.017-11.57-3.618-3.551-4.587-4.189-17.501-2.683-26.31.857-4.407 4.626-9.268 9.229-10.629ZM31.921 66.878c-4.335 0-6.132-1.887-6.132-1.887V43.71c0-1.814 1.31-3.058 3.282-3.287 2.117-.246 11.727-1.781 11.727 12.472 0 13.34-5.869 13.984-8.876 13.984Zm48.123 2.179c-6.547 0-10.764-3.063-10.764-3.063V30.695c0-2.946 3.483-4.967 6.463-5.337 3.192-.398 17.899-2.615 17.899 20.519 0 20.855-9.913 23.18-13.597 23.18Z"/></svg>