<svg xmlns="http://www.w3.org/2000/svg" width="250" height="47.113" fill="currentColor" viewBox="0 0 250 47.113"><path d="M24.632 28.473c-.234.548-.201.893.275 1.161a655 655 0 0 1 6.16 3.502c3.09 1.782 6.178 3.566 9.25 5.378.971.573 1.003.967.193 1.746-.628.605-1.329 1.133-1.97 1.725-.374.346-.696.363-1.135.102a659 659 0 0 0-7.032-4.12c-1.615-.934-3.245-1.842-4.873-2.752-.259-.145-.544-.243-.845-.375-.297.582-.1.875.364 1.139 3.284 1.87 6.56 3.756 9.835 5.642.449.259.906.515 1.315.83.469.36.515.866.006 1.174a33 33 0 0 1-3.304 1.761c-.26.12-.74-.069-1.046-.243-2.2-1.245-4.38-2.523-6.569-3.787-.177-.102-.369-.177-.667-.319-.037.343-.085.585-.086.828-.008 1.414-.03 2.829.007 4.242.018.667-.284 1.005-.894 1.005-1.038 0-2.079-.042-3.11-.153-.202-.022-.517-.436-.519-.671-.045-6.266-.055-12.533-.074-18.799 0-.183-.035-.366-.058-.589-.692-.028-.901.341-.888.911.029 1.224.091 2.448.094 3.672.012 4.525.007 9.05.006 13.574 0 1.269-.482 1.637-1.679 1.257-.743-.236-1.475-.51-2.21-.77-.45-.159-.668-.46-.681-.957-.076-2.919-.214-5.836-.242-8.755-.015-1.597.163-3.196.219-4.795.013-.377.227-1.012-.363-1.034-.547-.02-.571.576-.571 1.04 0 4.03.008 8.061-.017 12.091-.002.363-.128.952-.349 1.036-.345.131-.877.022-1.231-.168-.79-.422-1.509-.971-2.275-1.439-.522-.318-.72-.749-.716-1.351.019-2.451.008-4.902.008-7.354v-.817c-.396.164-.686.246-.936.393a143 143 0 0 0-3.582 2.158c-.45.283-.881.258-1.119-.143-.633-1.068-1.195-2.18-1.743-3.295-.047-.096.169-.414.332-.507 4.41-2.521 8.83-5.026 13.248-7.535 1.089-.618 2.183-1.227 3.255-1.872.209-.126.505-.486.454-.598-.187-.408-.568-.433-.959-.217-.62.343-1.252.667-1.864 1.023-4.576 2.66-9.148 5.326-13.722 7.989-.71.413-1.179.298-1.43-.487a20.6 20.6 0 0 1-.745-3.086c-.041-.26.328-.708.62-.876 2.991-1.719 6.009-3.392 9.012-5.091 1.09-.616 2.164-1.262 3.239-1.903.169-.101.309-.249.48-.39-.388-.486-.772-.436-1.179-.209-1.939 1.083-3.883 2.157-5.814 3.254-1.767 1.004-3.513 2.044-5.281 3.047-.749.425-1.21.168-1.222-.67-.015-1.037.02-2.074.013-3.111-.004-.559.249-.928.724-1.197a1997 1997 0 0 0 6.53-3.717c.234-.134.458-.285.789-.493-.262-.196-.413-.332-.585-.433-1.244-.727-2.496-1.439-3.737-2.17-.75-.442-.837-.768-.378-1.493.48-.757.988-1.496 1.502-2.231.316-.452.668-.539 1.203-.225 3.506 2.054 7.034 4.072 10.553 6.105 1.8 1.04 3.59 2.098 5.4 3.119.262.148.86.242.89.176.217-.48-.113-.782-.503-1.009a518 518 0 0 0-3.746-2.16c-3.738-2.128-7.481-4.246-11.216-6.377-1.353-.772-1.387-1.088-.279-2.156.527-.508 1.089-.983 1.585-1.52.407-.441.787-.509 1.304-.203 1.993 1.178 3.996 2.338 5.999 3.501 2.043 1.186 4.085 2.374 6.143 3.536.198.112.501.039.755.052-.11-.28-.139-.686-.345-.819-1.07-.692-2.179-1.327-3.288-1.958-2.609-1.484-5.23-2.946-7.837-4.433-.888-.507-.895-1.049-.013-1.555.921-.529 1.848-1.061 2.824-1.471.368-.154.959-.113 1.312.084 2.207 1.23 4.375 2.531 6.559 3.802.172.1.372.154.667.272.026-.329.059-.551.06-.774.006-1.367.016-2.734.002-4.101-.007-.657.268-1.06.94-1.066 1.012-.01 2.029-.006 3.036.079.216.018.454.386.579.642.093.191.022.463.022.698q-.007 9.122-.011 18.243c0 .183.033.366.05.542.807.048.907-.058.907-.94l.002-17.182c0-1.415.394-1.711 1.782-1.296.702.21 1.384.485 2.082.705.576.182.723.57.721 1.135-.011 4.313 0 8.626.003 12.94 0 .283-.036.574.019.846.047.23.21.627.309.623.43-.016.739-.225.728-.754q-.064-3.285-.089-6.57a547 547 0 0 1-.006-5.869c.003-1.154.508-1.451 1.517-.855a26 26 0 0 1 2.481 1.64c.278.211.518.643.538.988a96 96 0 0 1 .161 5.152c.004.82-.137 1.639-.181 2.461-.012.232.087.47.135.706.218-.056.46-.069.65-.175 1.196-.668 2.377-1.363 3.57-2.036.726-.409 1.171-.316 1.597.416.45.773.824 1.59 1.221 2.392.247.498-.076.713-.459.932q-4.155 2.371-8.3 4.762c-2.62 1.509-5.239 3.021-7.847 4.549-.203.119-.321.381-.479.577.335.074.741.304.992.192.795-.354 1.532-.837 2.292-1.269q6.133-3.482 12.262-6.968c.348-.198.671-.442 1.02-.639.633-.357 1.139-.237 1.354.447.303.962.489 1.963.697 2.952.099.469-.202.716-.586.934a1782 1782 0 0 0-8.179 4.686 235 235 0 0 0-3.914 2.291c-.179.108-.277.35-.413.53.27.101.556.314.804.277.332-.05.641-.283.948-.458q4.492-2.568 8.98-5.143c.471-.27.921-.585 1.412-.811.697-.321 1.165-.096 1.181.66a23 23 0 0 1-.19 3.515c-.043.326-.481.677-.821.874-2.27 1.31-4.562 2.58-6.848 3.863-.083.046-.169.087-.368.189.382.237.61.385.844.523 1.26.746 2.519 1.496 3.785 2.232.558.324.708.783.371 1.305a35 35 0 0 1-1.801 2.535c-.108.138-.54.188-.713.089-4.431-2.527-8.847-5.08-13.267-7.626a334 334 0 0 0-3.143-1.785c-.18-.101-.38-.166-.638-.277Z"/><path d="M69.861 24.237c.395.257.712.503 1.062.685 1.847.962 2.609 2.613 2.827 4.547.174 1.54.218 3.095.299 4.644.061 1.152.087 2.306.132 3.459.034.871.449 1.549 1.007 2.2.239.278.337.743.331 1.12-.002.111-.579.301-.895.305-2.102.024-4.204-.008-6.306.012-.706.007-1.135-.236-1.221-.965-.164-1.399-.376-2.794-.488-4.197-.14-1.758-.109-3.533-.315-5.282-.246-2.085-1.424-3.138-3.548-3.252-1.814-.098-3.636-.059-5.454-.086-.661-.01-1.322-.044-1.983-.048-.848-.006-.994.141-.994.97.003 4.006-.005 8.013.028 12.019.006.671-.229.87-.865.843a96 96 0 0 0-4.395-.113c-1.513.003-3.025.08-4.537.116-.273.006-.548-.032-1.002-.061.237-.396.356-.696.56-.919 3.437-3.742 5.141-8.265 5.833-13.187.544-3.87.206-7.702-.982-11.454-.81-2.557-1.802-5.014-3.461-7.154-.549-.708-1.154-1.372-1.716-2.07-.103-.128-.121-.323-.179-.488.169-.057.339-.164.508-.163 6.316.022 12.632.033 18.947.099 1.412.015 2.845.109 4.228.375 5.509 1.059 8.944 6.808 7.37 12.246-.531 1.833-1.224 3.59-2.897 4.725-.563.382-1.185.676-1.895 1.074Zm-15.547-7.521h.005c0 1.295.007 2.589-.004 3.884-.003.435.098.757.611.749 2.998-.044 6.002-.004 8.993-.169 1.983-.109 3.169-1.34 3.484-3.235.084-.506.072-1.033.054-1.549-.09-2.553-1.56-4.054-4.124-4.178-1.058-.051-2.12-.012-3.181-.027-1.605-.023-3.211-.057-4.816-.088-.857-.017-1.022.143-1.023 1.011v3.601Zm66.289 21.604c-.205.241-.422.471-.612.723-1.445 1.926-3.39 2.905-5.774 3.18-5.322.613-9.112-2.761-10.761-6.652-2.188-5.162-1.863-10.343.561-15.323 1.743-3.581 4.796-5.552 8.806-5.763 2.894-.152 5.382.868 7.21 3.22q.13.166.278.319c.03.031.083.038.227.099 0-.608.005-1.176 0-1.743q-.05-4.91-.109-9.82c-.006-.458.219-.622.656-.62q2.91.014 5.819-.001c.489-.003.682.218.672.686-.013.612-.007 1.225-.006 1.838l.007 32.091c0 .872-.061.945-.908.949-1.727.006-3.454-.011-5.181.011-.585.007-.832-.224-.782-.797.037-.422.073-.844.091-1.266.015-.356.003-.714.003-1.071l-.197-.058Zm-.026-9.617c.036-2.067-.233-3.924-1.311-5.561-1.127-1.709-2.747-2.57-4.815-2.429-1.975.134-3.342 1.178-4.157 2.962-1.298 2.841-1.28 5.755-.42 8.689.379 1.293 1.084 2.418 2.25 3.168 1.943 1.25 5.739 1.177 7.4-1.989.824-1.57 1.108-3.242 1.053-4.84m45.505 9.968c.036.62.088 1.24.105 1.861.023.849-.085.965-.903.969-1.727.009-3.454-.012-5.18.012-.666.009-.913-.23-.909-.913.053-10.129.089-20.258.118-30.387.003-1.176-.052-2.353-.098-3.529-.021-.54.194-.756.749-.75q2.802.033 5.606 0c.602-.007.771.25.768.809-.019 3.228-.009 6.455-.022 9.683-.002.563-.068 1.125-.105 1.688l.208.064c.147-.136.325-.25.438-.41 3.088-4.358 10.01-3.883 13.304-1.089 2.634 2.234 3.915 5.127 4.417 8.442.595 3.931.069 7.705-1.714 11.27-.774 1.548-1.772 2.954-3.177 4.02-3.072 2.332-8.362 2.395-11.473.118-.451-.33-.814-.78-1.21-1.183-.242-.246-.469-.506-.702-.76zm11.301-9.995c.035-1.811-.158-3.477-.927-5.047-.967-1.972-2.597-2.919-4.73-2.89-2.086.028-3.696.959-4.685 2.883-.762 1.481-.887 3.072-.928 4.669-.052 2.027.296 3.97 1.423 5.737 1.881 2.949 6.798 3.041 8.568-.031.977-1.696 1.352-3.496 1.28-5.321Zm-30.238 1.64c-2.863 0-5.726.016-8.588-.012-.664-.006-.884.184-.766.855.38 2.162 1.282 3.972 3.433 4.847 2.261.92 4.482.903 6.504-.658.367-.283.712-.647.936-1.046.285-.509.647-.659 1.202-.652 1.821.025 3.643.007 5.465.01.932.002 1.032.146.683 1.042-1.404 3.604-4.011 5.981-7.683 7.082-3.302.99-6.649.927-9.866-.428-3.585-1.51-6.143-4.032-7.225-7.84a16.1 16.1 0 0 1-.506-6.232c.191-1.693.498-3.415 1.058-5.019 1.641-4.703 6.139-7.741 11.15-7.857 2.893-.067 5.614.422 8.062 1.991 2.555 1.638 4.151 3.986 4.987 6.89.588 2.045.578 4.14.68 6.23.034.688-.348.815-.938.812-2.863-.016-5.725-.007-8.588-.007v-.01Zm-3.538-4.715c1.607 0 3.214.005 4.821-.002.784-.004.932-.186.77-.929-.934-4.272-5.406-5.186-8.314-3.755-1.573.774-2.291 2.247-2.783 3.839-.222.716-.137.841.615.845 1.631.009 3.261.003 4.892.003Z"/><path d="M100.505 33.785c-.15.47-.245.93-.438 1.344-1.811 3.88-4.756 6.294-9.056 7.015-4.924.826-9.268-.304-12.851-3.814-1.967-1.928-2.793-4.45-3.124-7.126-.36-2.909-.222-5.782.795-8.572 1.703-4.674 5.075-7.318 9.963-8.059 3.076-.466 6.053-.078 8.801 1.443 3.532 1.954 5.352 5.1 5.973 8.971.23 1.434.233 2.907.3 4.363.042.912-.049.977-.939.976q-8.483-.003-16.965-.008c-1.146 0-1.104-.011-.914 1.14.758 4.575 5.215 5.896 8.38 4.764 1.093-.391 1.9-1.105 2.567-2.032.169-.236.498-.501.758-.506 2.105-.04 4.211-.022 6.317-.016.11 0 .22.057.432.115ZM87.756 25.61v-.01q2.553.002 5.105-.002c.363 0 .783.01.656-.548-.303-1.33-.796-2.565-1.894-3.466-2.627-2.155-8.121-2.045-9.493 3.317-.146.571.075.716.592.713 1.678-.01 3.356-.004 5.034-.004m122.175 4.446c0 2.569.006 5.138-.003 7.707-.003.937.18 1.742 1.02 2.351.26.189.304.729.339 1.117.006.068-.525.261-.81.265-1.94.024-3.881.015-5.821.01-.93-.002-1.066-.128-1.172-1.023-.047-.397-.081-.797-.153-1.19-.035-.191-.143-.37-.218-.554-.181.085-.382.145-.541.261-1.082.789-2.054 1.815-3.25 2.343-3.485 1.538-6.95 1.446-10.008-1.048-2.246-1.832-2.889-4.422-2.453-7.159.657-4.131 3.118-6.297 7.702-7.106 1.978-.349 3.964-.657 5.941-1.011.413-.074.816-.241 1.202-.413 1.816-.809 1.429-3.074.156-3.702-1.915-.944-3.911-1.1-5.852-.05-.83.449-1.272 1.271-1.459 2.173-.135.652-.48.815-1.093.803-1.679-.032-3.36-.008-5.04-.02-.84-.006-.959-.16-.786-.977.417-1.98.988-3.9 2.456-5.396 1.645-1.676 3.747-2.436 6.013-2.76 3.393-.484 6.677-.147 9.838 1.3 2.742 1.255 3.922 3.425 3.971 6.301.044 2.592.009 5.185.009 7.777h.013Zm-7.017-.93c-1.76.402-3.398.727-5.006 1.163-.968.263-1.958.582-2.814 1.086-1.121.66-1.567 2.116-1.271 3.35.318 1.325 1.209 2.104 2.495 2.295 1.845.275 3.561-.254 4.937-1.48 1.988-1.771 1.632-4.187 1.658-6.415Zm19.301-10.524c.149-.2.305-.396.446-.601 1.748-2.542 4.256-3.585 7.252-3.53 2.156.04 4.195.505 5.985 1.862 2.162 1.639 2.94 3.896 2.971 6.433.069 5.56.029 11.121.038 16.681 0 .423.01.85.068 1.267.077.564-.168.787-.705.787-1.94-.001-3.88-.01-5.819.01-.572.006-.725-.253-.722-.777.017-2.592.011-5.183.012-7.775.001-2.545.004-5.089 0-7.634 0-.352-.001-.71-.058-1.056-.396-2.432-1.491-3.628-3.481-3.827-2.52-.252-4.508.834-5.304 3.084a10.4 10.4 0 0 0-.578 3.243 440 440 0 0 0-.003 13.146c.029 1.872.017 1.578-1.64 1.589-1.514.01-3.028-.015-4.542.009-.615.01-.885-.165-.883-.842q.026-12.335 0-24.668c-.001-.639.205-.884.855-.873 1.726.03 3.454.027 5.18.009.634-.006.912.217.846.877-.083.831-.111 1.667-.163 2.502l.242.084Zm27.769-.646c.212 1.662-1.713 4.021-3.865 4.014-2.294-.008-4.24-1.869-4.21-4.069.029-2.082 1.719-3.928 4.179-3.96 2.25-.029 4.063 2.041 3.896 4.016Zm-1.2.043c.013-1.764-1.149-2.949-2.896-2.955-1.602-.005-2.69 1.181-2.77 2.841-.069 1.444 1.274 3.039 2.827 3.04 1.695.001 2.826-1.161 2.839-2.927Z"/><path d="M246.125 15.826c.17.039.509.065.804.193.81.353 1.002.995.495 1.71-.216.304-.244.512-.015.806.139.179.269.423.267.637-.003.264-.147.526-.23.788-.292-.153-.604-.279-.865-.473-.101-.076-.041-.342-.135-.458-.161-.198-.385-.346-.582-.516-.14.211-.345.406-.406.638-.097.368.036.919-.559.869-.577-.049-.609-.536-.575-1.025q.062-.915.04-1.833c-.022-.971.129-1.168 1.106-1.3.163-.022.33-.019.656-.036Zm-.106.706c-.268.292-.564.518-.529.594.097.211.31.45.518.498.127.029.427-.252.47-.436.032-.136-.224-.339-.459-.656"/></svg>