<svg xmlns="http://www.w3.org/2000/svg" width="250" height="123.394" fill="currentColor" viewBox="0 0 250 123.394"><path d="M249.882.09c-.453-.028-.906-.081-1.358-.081Q125.095.004 1.666.005c-.253 0-.507.017-.758-.001C.24-.043-.007.288.033.916c.018.282.001.567.001.851L0 121.368q0 1.982 1.921 1.983 61.027 0 122.053.002c.632 0 1.273.088 1.893.005.496-.066 1.073-.211 1.427-.528 1.315-1.179 2.568-2.429 3.819-3.677 17.25-17.21 34.494-34.425 51.741-51.636q32.943-32.872 65.884-65.745c.436-.435.842-.901 1.262-1.353zm-68.341 59.404c-2.159 5.982-6.212 10.207-11.909 12.955-5.2 2.509-10.704 3.523-16.449 3.437-2.465-.037-4.932.016-7.397-.045-.962-.024-1.255.31-1.251 1.252.031 7.123.002 14.246.043 21.369.005.907-.273 1.063-1.123 1.061-10.527-.029-21.055-.018-31.582-.009-.979 0-1.958.054-2.937.095-.629.026-.967-.232-1.154-.86-.965-3.23-1.994-6.44-2.943-9.674-.206-.701-.524-.865-1.151-.635-4.635 1.703-9.475 1.831-14.314 1.708-3.285-.084-6.538-.593-9.673-1.683-1.224-.425-1.305-.363-1.684.837-.986 3.124-1.98 6.246-2.935 9.379-.209.687-.542.935-1.28.928-5.816-.058-11.632-.074-17.448-.1-1.252-.006-2.504 0-3.965 0l2.32-6.081-.209-.047c-1.754 1.106-3.446 2.33-5.275 3.294-4.372 2.306-8.995 3.663-13.998 3.989-10.645.693-20.575-1.662-30.033-6.376-1.705-.85-1.699-.835-.853-2.522 2.12-4.227 4.242-8.453 6.326-12.697.309-.63.65-.574 1.117-.308 1.07.609 2.12 1.254 3.204 1.836 5.775 3.104 11.983 4.074 18.445 3.517 1.448-.125 2.899-.644 4.264-1.19 1.391-.556 2.346-1.673 2.917-3.085.84-2.077.474-3.715-1.224-5.186-1.931-1.673-4.309-2.473-6.657-3.322-4.098-1.483-8.239-2.854-12.289-4.456-4.319-1.708-8.326-4.007-11.575-7.39-4.747-4.943-6.001-10.93-4.956-17.507.913-5.749 3.945-10.209 8.613-13.618 4.898-3.577 10.441-5.429 16.429-6.054 11.284-1.179 21.899 1.337 32.158 5.819.704.308.718.687.408 1.245-1.227 2.203-2.443 4.412-3.688 6.605s-2.541 4.359-3.77 6.561c-.372.667-.713.788-1.421.437-4.25-2.103-8.722-3.542-13.436-4.116-3.329-.405-6.694-.671-9.971.304-1.186.353-2.376.918-3.365 1.653-1.942 1.443-2.033 3.617-.296 5.297 2.428 2.347 5.386 3.813 8.55 4.925 4.29 1.508 8.594 2.985 12.831 4.631 3.758 1.46 7.287 3.376 10.205 6.23 2.627 2.57 4.576 5.535 5.24 9.221.035.196.137.38.304.828.41-.959.752-1.682 1.033-2.427q4.808-12.737 9.595-25.482c2.437-6.49 4.881-12.978 7.265-19.488.363-.99.836-1.339 1.904-1.33 6.228.056 12.456.05 18.683.021.902-.004 1.323.278 1.639 1.145 3.693 10.125 7.433 20.233 11.16 30.346 2.92 7.924 5.838 15.849 8.762 23.772.325.88.681 1.748 1.099 2.819.116-.23.191-.309.191-.388q.01-22.64.009-45.28c0-3.751.009-7.501-.035-11.252-.011-.914.307-1.177 1.21-1.172 8.251.045 16.503.01 24.753.076 6.095.049 12.113.715 17.887 2.816 5.686 2.07 10.201 5.528 12.809 11.111 1.525 3.265 2.238 6.746 2.397 10.338.179 4.06-.132 8.054-1.527 11.919Zm-26.287-19.606c-3.182-.701-6.408-.53-9.627-.59-.831-.016-1.096.239-1.083 1.075.045 2.929.017 5.86.017 8.79q.003 2.222.001 4.442c0 1.512.025 3.025-.015 4.536-.02.777.275 1.078 1.052 1.058 1.516-.037 3.037.045 4.55-.038 2.49-.137 4.98-.309 7.327-1.309 3.871-1.649 6.1-5.446 5.578-9.574-.601-4.755-3.018-7.336-7.801-8.39ZM93.496 52.792c-.552-1.795-1.129-3.582-1.695-5.372l-.314.002c-.094.255-.198.507-.281.765-2.432 7.579-4.853 15.163-7.307 22.735-.251.775-.004 1.066.703 1.28 4.463 1.353 8.925 1.552 13.405.087 1.357-.444 1.34-.419.913-1.805-1.816-5.895-3.613-11.796-5.424-17.692"/></svg>