<svg xmlns="http://www.w3.org/2000/svg" width="108.285" height="43.581" viewBox="0 0 108.285 43.581" fill="currentColor"><path fill="currenColor" d="M2.662.04C1.752.213.882.805.435 1.561c-.148.253-.29.66-.364 1.058-.049.262-.056.497-.056 2.16 0 1.691.006 1.895.059 2.176.139.756.367 1.179.91 1.688.561.531 1.147.799 1.918.892.373.043.947.022 1.311-.049 1.002-.191 1.875-.83 2.295-1.679.29-.58.342-.929.361-2.342l.015-1.117H3.362v1.296h.968c.833 0 .972.006 1.005.046.031.037.034.145.022.444-.037.682-.179 1.077-.527 1.444-.318.336-.688.525-1.178.596-.361.052-.703-.012-1.092-.204-.441-.219-.685-.491-.854-.96-.145-.401-.17-.679-.185-1.993-.025-2.114.068-2.604.589-3.126.469-.472 1.126-.645 1.789-.475.672.173 1.117.602 1.357 1.321l.071.207.759.009.762.006v-.114c0-.204-.151-.691-.324-1.043A3.16 3.16 0 0 0 4.408.086C4.077 0 3.02-.025 2.662.04M37.021.043a3.4 3.4 0 0 0-1.786.96c-.349.352-.598.79-.716 1.262-.136.534-.145.688-.145 2.546 0 1.904.012 2.058.176 2.608.176.599.638 1.185 1.252 1.598.959.645 2.443.731 3.544.207.345-.164.592-.336.898-.63.568-.546.814-1.114.904-2.08.043-.475.019-3.573-.031-3.863-.123-.731-.315-1.133-.756-1.598C39.843.507 39.22.164 38.526.044c-.321-.059-1.194-.056-1.505 0Zm1.16 1.358c.318.077.712.299.919.522.284.302.426.636.509 1.219.056.38.056 2.87 0 3.29-.08.589-.225.92-.546 1.234-.463.454-1.172.636-1.773.451-.82-.25-1.218-.741-1.36-1.685-.068-.438-.059-3.009.009-3.428.062-.358.167-.663.299-.858a1.97 1.97 0 0 1 1.073-.741c.237-.059.626-.059.87-.003ZM8.883 4.764V9.47h1.511l.006-1.953.009-1.95h1.659l.984 1.95.987 1.953h1.752v-.071c0-.037-.469-.969-1.046-2.064l-1.042-1.997.111-.037c.216-.068.642-.309.839-.472.361-.296.657-.775.783-1.253.068-.265.096-.966.049-1.265a3.1 3.1 0 0 0-.33-.957c-.142-.244-.577-.691-.827-.849-.333-.213-.753-.355-1.224-.417-.126-.015-1.126-.031-2.224-.031H8.881v4.706Zm4.04-3.274c.469.154.746.37.91.713.142.293.191.586.145.861-.099.611-.518 1.025-1.157 1.145-.318.062-2.332.068-2.39.009-.028-.028-.037-.38-.037-1.398 0-.75.009-1.373.022-1.386s.546-.019 1.181-.012c1.009.012 1.178.022 1.326.068M17.365 3.351c0 2.808.006 3.339.046 3.586.117.71.367 1.188.907 1.71.601.583 1.277.858 2.224.904.7.037 1.339-.083 1.897-.355.839-.41 1.394-1.089 1.656-2.03.068-.241.068-.25.077-3.675L24.184.06h-1.511l-.012 3.293c-.009 3.061-.012 3.308-.065 3.478-.204.676-.66 1.126-1.314 1.302a2.4 2.4 0 0 1-.987 0 2.05 2.05 0 0 1-.833-.441 1.3 1.3 0 0 1-.324-.454c-.262-.537-.244-.241-.256-3.916L18.873.06h-1.508v3.293ZM26.402 4.761V9.47h1.511l.006-1.83.009-1.827 1.373-.019c1.28-.015 1.391-.022 1.629-.083.857-.225 1.465-.707 1.838-1.447.352-.707.386-1.703.08-2.515-.154-.414-.58-.923-1.009-1.207-.262-.176-.5-.278-.904-.386l-.293-.08-2.119-.012-2.122-.009v4.706Zm4.01-3.271c.271.089.577.256.709.389.142.142.315.472.37.71.059.25.046.605-.031.836-.157.475-.456.759-.972.926-.207.068-.271.071-1.351.083-.857.009-1.144.003-1.178-.025-.04-.034-.046-.259-.046-1.497 0-.799.009-1.466.022-1.478.015-.012.537-.019 1.166-.012.99.012 1.163.022 1.311.068"/><path fill="currentColor" d="M82.955 6.218c-.056.142 0 1.015.093 1.472.145.728.543 1.469 1.021 1.904.654.599 1.339.947 7.486 3.811 5.404 2.518 7.125 3.327 8.439 3.965.568.275 1.345.651 1.727.833s1.073.515 1.539.738c.907.438 1.027.472 1.046.309a.15.15 0 0 0-.046-.127 414 414 0 0 0-3.71-2.324c-8.235-5.132-10.413-6.477-13.216-8.162l-3.14-1.895c-.848-.512-.962-.574-1.083-.574-.096 0-.142.015-.154.049Z"/><path fill="currenColor" d="M82.147 12.112c-.046.185.145 1.089.324 1.537.154.383.401.734.786 1.114.506.503.972.799 1.622 1.043.16.059 1.946.54 3.963 1.071 8.904 2.333 14.391 3.783 16.59 4.385 1.092.299 1.231.318 1.246.179.006-.043-.009-.093-.031-.111-.08-.068-5.653-2.209-18.006-6.922l-5.567-2.126c-.728-.281-.894-.312-.928-.17ZM6.755 14.657c-2.215.099-3.991.753-5.191 1.907a4.98 4.98 0 0 0-1.517 2.95c-.062.41-.062 1.463 0 1.898.163 1.145.592 2.003 1.416 2.827.78.781 1.749 1.339 3.124 1.802.302.099 1.579.454 2.838.784 1.258.333 2.375.636 2.483.676.802.302 1.302.71 1.591 1.299.194.392.262.722.244 1.176-.019.438-.071.651-.241 1-.324.657-1.052 1.117-2.033 1.281-.54.089-1.2.108-4.95.127-2.051.012-3.757.028-3.784.034-.052.015-.056.127-.056 1.774v1.756h3.88c3.889 0 4.762-.019 5.45-.108 3.374-.441 5.527-2.321 5.848-5.107.046-.401.019-1.58-.046-2.021-.185-1.244-.537-2.027-1.249-2.768-.651-.679-1.434-1.145-2.594-1.54-.247-.086-1.638-.481-3.094-.879-1.459-.398-2.77-.768-2.915-.821-.555-.194-1.086-.509-1.32-.778-.392-.447-.577-1.071-.509-1.7.108-.954.614-1.558 1.53-1.833.552-.164.543-.164 3.532-.188s2.933-.022 3.547-.188c1.2-.327 1.949-1.074 2.221-2.225a5 5 0 0 0 .123-.991v-.176l-3.908.006c-2.153 0-4.139.015-4.42.028ZM19.801 22.705c0 6.996.006 8.131.046 8.437.151 1.163.611 2.095 1.434 2.922 1.194 1.2 2.878 1.892 5.12 2.101.537.049 1.878.04 2.421-.019 3.038-.321 5.286-1.592 6.267-3.543.163-.33.321-.787.416-1.225l.071-.324v-6.588c0-6.184-.003-6.61-.056-6.937-.108-.685-.287-1.225-.53-1.598-.167-.253-.611-.685-.848-.824-.518-.299-1.342-.484-2.181-.484h-.194v7.526c0 8.258.012 7.773-.185 8.307-.5 1.367-2.063 2.157-4.13 2.086-.851-.028-1.508-.173-2.122-.469-.413-.197-.577-.306-.839-.552-.379-.364-.648-.858-.796-1.469-.04-.176-.049-.913-.074-6.11-.015-3.956-.037-6.033-.059-6.28-.086-.913-.376-1.595-.894-2.114-.534-.537-1.181-.802-2.174-.895a9 9 0 0 0-.515-.031H19.8v8.082ZM47.498 14.657c-1.635.117-3.109.633-4.232 1.481a7.8 7.8 0 0 0-1.187 1.2c-.799 1.074-1.255 2.299-1.48 3.981-.046.349-.052 1.043-.062 7.505l-.012 7.122h3.828l.009-7.06c.012-7.742-.003-7.113.191-7.829.37-1.367 1.332-2.321 2.686-2.666.558-.142.78-.16 2.14-.188 1.354-.025 1.57-.043 2.097-.182 1.218-.321 1.903-1.105 2.094-2.395.015-.12.04-.392.052-.611l.022-.392-2.896.003c-1.591.003-3.057.019-3.251.031ZM62.75 14.645c-.645.034-1.625.207-2.252.395-3.738 1.129-6.261 4.302-6.859 8.628a17 17 0 0 0-.126 2.975c.056 1.114.157 1.855.386 2.777.469 1.91 1.268 3.382 2.495 4.598 1.329 1.318 2.878 2.034 4.907 2.274.503.059 1.817.049 2.298-.019.99-.136 1.792-.373 2.557-.756.947-.478 1.832-1.231 2.403-2.052.123-.173.13-.176.157-.108.015.04.052.185.08.321.16.734.527 1.324 1.052 1.685.497.343 1.234.518 2.335.565l.392.019V14.624l-4.818.006c-2.652.003-4.904.009-5.006.015Zm5.684 3.533c.049.049.052 9.255.003 9.708-.194 1.796-1.012 3.271-2.279 4.117-1.94 1.29-4.932 1.083-6.57-.46-.959-.901-1.582-2.351-1.81-4.206-.077-.636-.077-2.382 0-3.024.265-2.139.876-3.607 1.949-4.675.907-.904 2.054-1.389 3.454-1.463.237-.015 1.508-.028 2.822-.028 1.826-.006 2.403.003 2.43.031ZM83.853 18.533c-.046.043-.019.296.052.478.373 1 1.175 1.885 2.1 2.321.265.127.632.25.817.278.077.009 3.874.262 8.436.559l10.622.694c1.28.086 2.347.148 2.372.139s.037-.052.031-.114c-.009-.086-.025-.102-.12-.123l-4.734-.839c-13.895-2.459-19.317-3.413-19.431-3.413-.068 0-.136.009-.145.022ZM97.14 24.103c-3.902.012-7.365.034-7.695.049l-.601.022-.009.114c-.031.355.675 1.271 1.302 1.691a2.7 2.7 0 0 0 1.391.481c.299.019-.404.114 11.171-1.515 4.864-.685 4.639-.651 4.673-.7a.2.2 0 0 0 .019-.102c-.009-.062-.034-.062-1.582-.065-.864 0-4.765.009-8.667.025ZM105.884 25.597c-.382.108-2.739.719-5.583 1.444a463 463 0 0 0-6.224 1.623c-.447.117-.817.216-.824.216-.04 0-.108.111-.108.176 0 .114.5.91.709 1.133.265.281.342.312.802.312.327 0 .419-.012.601-.074.694-.238 9.79-4.076 10.804-4.561.281-.133.287-.139.278-.235-.009-.086-.022-.099-.102-.105a1.6 1.6 0 0 0-.355.071Z"/><path fill="currentColor" d="M103.863 28.207a441 441 0 0 1-6.323 3.789c-1.527.883-2.051 1.203-2.076 1.259-.022.059.102 1.173.151 1.342.015.065.08.173.142.241.105.117.114.12.308.12.25 0 .441-.086.802-.358.336-.253 1.659-1.349 5.323-4.404 2.332-1.944 2.952-2.475 2.952-2.53 0-.083-.056-.145-.12-.142-.028 0-.549.309-1.16.682Z"/><path fill="currenColor" d="M101.455 32.756c-.207.157-.78.642-3.097 2.62l-2.261 1.929c-.333.281-.404.417-.558 1.034-.059.241-.185.66-.281.938-.194.568-.204.66-.059.676.083.009.126-.025.386-.293.632-.663 4.028-4.391 5.453-5.99.638-.719.697-.793.697-.895 0-.16-.086-.167-.281-.019ZM92.991 36.583c-1.465.5-4.031 1.068-7.233 1.598-2.424.404-3.704.549-6.199.697-1.915.114-1.773.096-1.773.256 0 .086.031.136.194.29.484.466 1.181.781 2.045.923.407.068 1.585.077 2.14.019 1.271-.139 2.714-.435 4.503-.932a36 36 0 0 0 4.926-1.768 32 32 0 0 0 1.977-.978c.151-.086.163-.105.154-.194-.006-.08-.025-.099-.086-.102-.043-.003-.333.083-.648.191M93.654 37.848c-.262.182-.808.503-1.342.787-2.504 1.339-6.517 2.632-10.175 3.286-.33.059-.617.12-.642.139-.022.019-.04.074-.04.12 0 .114.148.238.481.401 1.175.583 3.417.401 5.518-.447 2.406-.975 4.642-2.308 5.903-3.518.46-.441.62-.642.62-.775 0-.096-.009-.105-.083-.102-.049 0-.154.049-.241.108ZM93.281 40.178c-.117.133-.814.697-1.144.929-1.018.716-2.316 1.376-3.633 1.848-.487.176-.493.179-.503.275-.015.136.028.173.315.268.231.077.29.083.79.083.605.003.833-.034 1.388-.216.382-.127.999-.417 1.261-.596.558-.38.987-.867 1.36-1.549.219-.395.432-.892.432-1 0-.102-.006-.108-.102-.108a.22.22 0 0 0-.163.065Z"/></svg>