<svg xmlns="http://www.w3.org/2000/svg" width="250" height="81.036" fill="currentColor" viewBox="0 0 250 81.036"><path d="M25.511 52.981c.951-4.945 1.917-9.888 2.918-14.823 1.773-8.739 3.585-17.47 5.344-26.211.148-.736.433-.902 1.143-.894 3.689.045 7.379.045 11.069.036 3.617-.009 5.864-2.359 6.682-5.703.368-1.504.683-3.021 1.093-4.513.199-.725-.055-.871-.707-.871Q38.776.018 24.499 0c-.658 0-.936.26-1.041.892-.232 1.396-.571 2.777-.766 4.177-.106.76-.455.914-1.149.91-4.218-.026-8.437-.013-12.655-.013H3.272c-.38 0-.691-.008-.787.526-.558 3.123-1.155 6.239-1.746 9.355-.085.45-.216.891-.326 1.337l-.157-.052L0 16.24v2.048c.469.004.937.012 1.406.012 5.616-.008 11.231-.021 16.847-.025 2.085-.002 1.648.006 1.316 1.641-1.364 6.708-2.719 13.418-4.096 20.124-.87 4.239-1.763 8.474-2.67 12.705-.146.682.054.928.736.881.472-.033.949-.009 1.423-.009 3.137.002 6.275.009 9.412.002.477-.001.991.112 1.135-.637Zm119.086-.144c.053-.574.103-1.153.219-1.716 1.105-5.396 2.23-10.788 3.334-16.184.552-2.698 1.183-5.389 1.054-8.173-.104-2.245-.908-4.187-2.567-5.745-2.287-2.147-5.133-2.982-8.148-3.201-4.804-.349-9.579.08-14.329.839-.586.094-1.233.139-1.795-.008-3.692-.964-7.458-1.008-11.227-.932-2.422.049-4.845.203-7.259.405-2.596.218-5.183.552-7.775.824-.726.076-1.104.42-1.243 1.167a352 352 0 0 1-1.445 7.252 14692 14692 0 0 1-5.28 25.423c-.116.555-.053.842.609.839 3.533-.016 7.066-.012 10.598-.003.521.001.723-.224.822-.729.971-4.967 1.961-9.93 2.956-14.892.804-4.012 1.635-8.018 2.423-12.033.139-.708.339-1.105 1.195-1.052 1.366.083 2.741.01 4.112.025 3.425.037 4.807 1.694 4.217 5.037l-.017.077c-1.549 7.554-3.091 15.108-4.656 22.658-.135.65-.025.91.694.906 3.454-.021 6.908-.016 10.361.001.582.003.807-.202.922-.79.991-5.07 2.066-10.124 3.026-15.199.787-4.158 2.128-8.239 1.884-12.693 1.133 0 2.21-.038 3.283.009 1.496.066 2.998.121 4.48.319 1.241.166 2.11 1.087 2.23 2.331.091.952.096 1.951-.091 2.883a3281 3281 0 0 1-4.565 22.196c-.13.625-.05.943.685.939q5.22-.026 10.44 0c.578.003.804-.248.853-.78m38.197-32.942a13.86 13.86 0 0 0-6.713-2.106c-5.357-.265-10.685.274-16.021.601-.78.048-1.051.378-1.091 1.11a142 142 0 0 1-.378 5.258c-.059.645.146.836.779.802 1.999-.108 4.001-.174 6.968-.295 1.221.103 3.424.122 5.559.513 2.271.415 3.076 1.777 2.844 4.07-.167 1.656-.162 1.611-1.86 1.411-4.068-.479-8.134-.648-12.203.073-3.885.689-6.798 2.651-8.66 6.162-1.021 1.925-1.38 3.996-1.671 6.107-.515 3.74 1.337 7.164 4.781 8.747 2.389 1.098 4.937 1.436 7.534 1.542 6.129.252 12.211-.287 18.288-1.003.872-.103 1.306-.378 1.475-1.264.677-3.555 1.444-7.093 2.121-10.648.794-4.168 1.897-8.276 2.245-12.53.298-3.646-.826-6.574-3.998-8.551Zm-10.605 23.357c-.164.823-.309 1.651-.522 2.462-.059.223-.333.558-.507.557-2.078-.006-4.168.053-6.23-.147-1.797-.175-2.598-1.288-2.599-3.074 0-3.414 1.791-5.347 5.228-5.522 1.735-.088 3.477-.031 5.216-.031.149 0 .299.056.538.105-.379 1.907-.75 3.78-1.125 5.651ZM68.71 28.53c.61-4.108-1.419-7.576-5.191-9.346-2.386-1.119-4.934-1.551-7.529-1.506-3.448.061-6.894.297-10.339.478-1.236.065-2.468.192-3.701.285-.668.05-1.007.311-1.044 1.066-.084 1.753-.263 3.502-.432 5.249-.059.612.118.842.773.805 1.998-.115 3.999-.175 6.567-.28 1.383.074 3.349.035 5.266.321 2.192.327 3.861 1.217 3.562 4.221-.165 1.662-.099 1.668-1.751 1.461-3.774-.473-7.55-.626-11.342-.115-5.527.744-9.313 3.964-10.742 9.266-.244.907-.369 1.85-.503 2.783-.663 4.605 1.578 8.149 5.991 9.635 2.409.811 4.89.981 7.394 1.069 5.945.209 11.835-.442 17.727-1.074.507-.054.73-.265.827-.758.76-3.858 1.57-7.706 2.308-11.567.762-3.989 1.561-7.976 2.157-11.991Zm-13.58 9.707a443 443 0 0 0-1.487 7.389c-.099.522-.315.702-.833.682-.84-.032-1.683-.009-2.525-.009l-.005.08c-1.151-.075-2.321-.047-3.45-.247-1.968-.347-2.825-1.658-2.589-3.635.248-2.075.963-3.861 3.125-4.578.932-.309 1.956-.41 2.946-.458 1.39-.067 2.787.014 4.181.009.559-.002.754.202.637.767m15.598 15.381c3.48-.021 6.96-.015 10.44-.003.475.002.712-.156.808-.643.621-3.164 1.259-6.326 1.905-9.485q3.382-16.534 6.772-33.067c.294-1.433.599-2.863.921-4.402-.389-.024-.62-.05-.852-.051-3.427-.003-6.855.019-10.281-.019-.69-.008-.906.256-1.016.869q-.566 3.135-1.206 6.257-4.07 19.847-8.164 39.687c-.127.614-.003.861.673.857m-10.69 17.273c-.552-.026-.99.03-1.051.733a263 263 0 0 1-.477 4.849c-.036.34-.126.674-.23 1.207-.222-.385-.338-.557-.426-.743-.834-1.754-1.669-3.506-2.489-5.266-.266-.572-.673-.862-1.312-.765-.628.095-.545.617-.598 1.042-.334 2.653-.646 5.308-1.007 7.957-.077.564-.033.898.612 1.011.666.116.935-.182 1.001-.775.078-.703.136-1.408.214-2.112.129-1.162.267-2.322.402-3.483l.223-.032c.123.192.263.376.365.579.662 1.312 1.314 2.629 1.973 3.943.235.469.411.991.744 1.379.215.251.672.419 1.006.397.189-.012.464-.466.504-.748.387-2.751.74-5.506 1.085-8.263.051-.406.124-.879-.539-.91m26.654 5.486c1.185-.737 1.476-1.844 1.46-3.115-.015-1.224-.608-1.988-1.819-2.198-.747-.13-1.516-.138-2.275-.201l-.004.034c-.369 0-.742.037-1.105-.008-.782-.095-1.13.175-1.215 1.003-.276 2.684-.617 5.362-.961 8.039-.067.517-.047.88.574.963.618.083.962-.159 1.028-.776.078-.729.129-1.462.228-2.188.063-.463-.028-1.065.74-1.065.674 0 1.381-.168 1.605.81.204.892.517 1.76.814 2.629.178.522 1.129.928 1.582.59.197-.147.194-.731.096-1.062-.26-.878-.655-1.716-.921-2.592-.078-.257-.005-.753.172-.863Zm-1.555-1.007c-2.442.233-2.234.25-1.973-1.774.151-1.173.179-1.17 1.507-1.155.105 0 .211-.003.316 0 1.083.031 1.453.276 1.502.995.066.978-.477 1.851-1.352 1.934m108.455.917c1.314-.757 1.507-2.022 1.417-3.348-.067-.989-.663-1.67-1.652-1.866-.769-.152-1.565-.172-2.349-.251l-.007.066c-.475 0-.951.027-1.423-.007-.579-.041-.871.166-.942.767-.328 2.787-.683 5.57-1.024 8.355-.058.475.051.834.632.87.56.034.906-.137.961-.758.066-.757.19-1.509.278-2.265.054-.462-.024-1.004.706-.979.655.023 1.388-.218 1.598.805.178.869.507 1.71.793 2.554.194.571 1.048.964 1.642.7.652-.291.172-.767.055-1.128-.282-.873-.619-1.73-.956-2.585-.158-.399-.135-.699.27-.932Zm-1.342-.986c-.396.117-.824.128-1.238.187-1.243-.027-1.306-.1-1.116-1.326.012-.078.024-.156.047-.231.142-.475.214-1.31.445-1.357.769-.156 1.617-.123 2.389.046.247.054.481.755.489 1.164.013.677-.28 1.298-1.015 1.515ZM40.277 72.852c-.086-.966-.742-1.607-1.743-1.775-.775-.13-1.568-.152-2.352-.221l-.005.038c-.369 0-.744.043-1.105-.009-.813-.117-1.126.244-1.214 1.018a368 368 0 0 1-.993 8.034c-.09.662.139.897.755.987.694.101.804-.324.866-.828.109-.884.204-1.769.322-2.652.023-.169.078-.39.199-.479.613-.451 1.813-.016 2.042.715.258.826.508 1.654.783 2.475.214.64.937.967 1.606.665.636-.287.187-.765.066-1.131-.28-.846-.653-1.662-.908-2.514-.071-.238.049-.702.236-.82 1.326-.841 1.567-2.114 1.444-3.501Zm-2.875 2.481c-.585.117-1.204.12-1.801.078-.172-.012-.459-.356-.456-.544.011-.65-.012-1.363.253-1.923.168-.353.826-.475 1.265-.701l.095.194h.394c.67.002 1.289.087 1.409.919.137.948-.328 1.81-1.159 1.976Zm191.044-1.921c0-1.454-.589-2.184-2.042-2.417-.646-.104-1.31-.097-1.965-.141l-.002.033c-.5 0-1.002.019-1.501-.005-.55-.027-.792.18-.858.753-.325 2.811-.685 5.617-1.044 8.424-.064.499.063.82.612.89.507.064.891-.018.957-.629.092-.859.183-1.719.321-2.572.046-.284.161-.669.372-.793.75-.442 1.704-.004 1.96.819.265.851.52 1.706.827 2.543.195.533 1.178.907 1.591.545.189-.166.138-.737.034-1.076-.277-.9-.672-1.765-.95-2.665-.067-.216.059-.649.235-.757 1.127-.69 1.456-1.731 1.455-2.954Zm-2.663 1.857c-.417.136-.873.151-1.312.221q-1.271-.037-1.122-1.307c.003-.026.002-.053.009-.078.144-.533.186-1.455.454-1.525.749-.196 1.607-.125 2.385.027.235.046.461.697.492 1.086.053.68-.16 1.332-.904 1.575Zm-66.153-2.043c-.018-1.174-.585-1.941-1.755-2.172-.744-.147-1.515-.152-2.274-.221l-.005.054c-.448 0-.899.028-1.344-.007-.652-.051-.93.183-1.005.867-.306 2.763-.669 5.519-1.017 8.277-.052.415.001.755.501.801.471.043.992.141 1.075-.567l.281-2.343c.054-.454-.045-.974.662-1.051 1.114-.122 1.407-.003 1.671.815.275.849.523 1.707.811 2.551.204.596 1.075.984 1.63.691.608-.321.161-.793.04-1.162-.285-.872-.667-1.713-.944-2.587-.072-.228.005-.682.166-.777 1.233-.731 1.527-1.864 1.508-3.167Zm-2.715 2.066c-.421.125-.874.141-1.312.207q-1.193-.025-1.068-1.182c.014-.13 0-.266.034-.389.136-.479.232-1.332.443-1.362.827-.119 1.704-.045 2.532.116.192.037.376.703.363 1.073-.023.666-.248 1.316-.992 1.537m-135.58-4.217c-1.169-.146-2.361-.153-3.541-.13-.242.005-.652.391-.687.642-.4 2.852-.741 5.713-1.101 8.571-.06.474.156.691.615.695.5.005 1 .001 1.501.001v-.011c.29 0 .579.003.869 0 2.317-.031 3.793-1.025 4.346-3.247.323-1.298.384-2.692.354-4.038-.028-1.291-1.053-2.32-2.355-2.483Zm.459 6.109c-.647 2.09-1.96 2.292-3.574 2.161-.167-.013-.449-.426-.43-.63.167-1.769.412-3.53.586-5.298.075-.757.452-1.033 1.175-1.045 1.834-.031 2.603.743 2.654 2.661-.133.718-.197 1.457-.411 2.15Zm98.44-6.109c-2.29-.967-4.8.115-5.538 2.473-.372 1.189-.527 2.444-.735 3.452.111.796.136 1.351.273 1.878.227.878.723 1.565 1.629 1.881 2.344.817 4.711-.269 5.438-2.641.371-1.212.565-2.509.62-3.777.058-1.336-.227-2.648-1.687-3.265Zm-.525 6.809c-.193.56-.687 1.183-1.211 1.433-1.523.726-2.832-.096-2.795-1.776.027-1.242.245-2.507.572-3.71.352-1.295 1.506-1.825 2.816-1.494.664.168 1.014.636 1.11 1.287.053.362.049.732.07 1.099l.099.023c-.207 1.051-.314 2.135-.66 3.138Zm49.206-4.536c-.208-1.322-.954-2.184-2.055-2.42-2.608-.558-4.654.638-5.3 3.208a15 15 0 0 0-.449 3.341c-.021 1.262.296 2.48 1.574 3.133 1.994 1.018 4.661.126 5.458-1.949.491-1.279.686-2.671 1.013-4.013l-.16-.045c-.025-.419-.017-.843-.082-1.255Zm-2.291 4.883c-.195.771-.825 1.245-1.692 1.312-1.647.127-2.196-.512-2.289-2.569.23-1.068.397-2.155.708-3.199.244-.819.824-1.383 1.762-1.465 1.493-.13 2.275.447 2.197 1.932-.071 1.34-.356 2.682-.686 3.989m18.146-7.122c-1.956-.7-4.546-.428-5.493 2.178-.44 1.212-.598 2.526-.884 3.794l.204.042c0 .393-.032.789.006 1.178.108 1.127.627 2.006 1.706 2.449 1.829.751 4.122-.039 5.067-1.773.991-1.817 1.143-3.797.904-5.805-.11-.927-.59-1.734-1.51-2.063m-.71 7.183c-.407 1.037-1.403 1.449-2.531 1.21-.899-.191-1.332-.842-1.348-2.027v-.314l-.114-.022c.214-1.1.337-2.228.666-3.293.408-1.322 1.441-1.813 2.804-1.522.615.131.96.534 1.072 1.121.318 1.669.06 3.294-.549 4.848Zm56.045-7.199c-2.392-.679-4.523-.178-5.472 2.298-.443 1.156-.585 2.426-.863 3.645l.185.036c0 .367-.049.741.009 1.098.165 1.013.523 1.927 1.515 2.44 1.923.994 4.58.099 5.448-1.866.761-1.72.948-3.541.756-5.39-.105-1.008-.527-1.961-1.579-2.26Zm-.731 7.276c-.322.702-.856 1.103-1.64 1.171-1.636.142-2.222-.508-2.286-2.458.183-1 .294-2.021.567-2.996.376-1.342 1.106-1.822 2.42-1.783.953.029 1.563.501 1.642 1.46.13 1.579-.029 3.137-.703 4.606m-208.155-7.44c-1.421-.018-2.843-.005-4.264-.047-.593-.017-.866.205-.935.785-.336 2.834-.686 5.667-1.037 8.499-.07.568.188.74.727.717.736-.032 1.474-.008 2.211-.008v-.024c.421 0 .842.003 1.264 0 .421-.004.843 0 1.263-.024.558-.033.737-.452.641-.88-.05-.224-.422-.501-.675-.531-.649-.077-1.313-.03-1.971-.03q-1.702 0-1.546-1.648.017-.195.028-.392c.042-.643.287-.997 1.034-.941.864.064 1.736.011 2.605.005.608-.004.615-.455.651-.882.042-.514-.319-.526-.676-.53q-.79-.008-1.58-.004c-1.847.006-1.836.008-1.549-1.823.079-.504.302-.743.821-.735.974.016 1.949-.008 2.922.02.612.018.952-.203.974-.841.024-.667-.446-.679-.908-.685Zm19.717 0c-1.501-.016-3.002-.012-4.503-.039-.529-.009-.781.242-.84.729-.342 2.835-.671 5.671-1.027 8.504-.073.582.171.754.699.743.737-.015 1.475-.004 2.212-.004v-.02c.79 0 1.58-.009 2.37.003.627.01.837-.357.841-.898.004-.598-.461-.545-.848-.551a87 87 0 0 0-2.844-.003c-.499.01-.747-.138-.654-.683a19 19 0 0 0 .194-1.559c.047-.557.327-.762.883-.741.842.031 1.685-.006 2.528.006.535.008.838-.164.854-.759.016-.616-.346-.676-.814-.667-.474.009-.948-.001-1.422 0-1.72.007-1.69.009-1.593-1.66.04-.686.324-.92.976-.901.974.028 1.949 0 2.923.019.629.012.829-.356.857-.891.03-.566-.373-.625-.792-.63Zm159.716-.047c-.731.044-.632.624-.689 1.04-.249 1.843-.457 3.692-.669 5.54-.181 1.578-1.18 2.327-2.735 2.036-.989-.185-1.395-.721-1.295-1.721.053-.521.116-1.041.178-1.562.179-1.509.353-3.018.541-4.526.08-.64-.214-.824-.816-.813-.609.011-.744.365-.802.854-.22 1.847-.437 3.695-.678 5.539-.311 2.376.808 3.684 3.186 3.694 2.198.009 3.763-1.308 4.001-3.339.226-1.926.473-3.849.717-5.772.106-.835-.094-1.023-.941-.971Zm-59.965.018c-1.476-.007-2.953.012-4.428-.021-.582-.013-.803.252-.865.773-.337 2.838-.674 5.677-1.031 8.513-.063.497.136.688.593.691.791.005 1.581.001 2.372.001v-.021h2.293c.556.002.827-.275.821-.823-.005-.552-.391-.617-.816-.619-.975-.005-1.951-.01-2.926-.004-.47.003-.686-.179-.598-.673.088-.49.177-.984.205-1.48.036-.637.337-.861.965-.831.815.039 1.634.003 2.451.009.588.004.881-.276.881-.86 0-.596-.447-.559-.838-.569-.553-.015-1.107-.007-1.661-.006-1.577.003-1.517.01-1.363-1.57.079-.81.471-1.032 1.157-1.022a85 85 0 0 1 2.765.075c.725.034.813-.471.844-.98.035-.577-.415-.58-.822-.582Zm-71.472.04c-1.502-.015-3.004-.009-4.506-.015-.522-.002-.756.284-.814.77-.333 2.812-.655 5.626-1.015 8.434-.076.596.186.764.688.769.764.008 1.528.002 2.292.002v-.064c.738 0 1.476-.007 2.214.002.536.007.856-.208.877-.772.023-.598-.373-.674-.837-.674-.923 0-1.845-.021-2.767.002-.572.014-.85-.15-.711-.778a11 11 0 0 0 .198-1.402c.049-.573.303-.835.912-.809.895.037 1.798.068 2.684-.028.252-.027.53-.476.638-.786.037-.106-.386-.513-.634-.549-.594-.087-1.208-.044-1.814-.037-1.509.019-1.608.148-1.344-1.473.169-1.038.24-1.165 1.328-1.151.843.011 1.686.028 2.528.073.607.033.869-.255.908-.823.042-.611-.382-.687-.825-.691m96.316.115c-1.06-.161-2.155-.079-3.226-.181-.816-.078-1.05.315-1.131 1.021a504 504 0 0 1-.993 8.119c-.085.645.189.831.754.909.606.083.815-.211.866-.737.069-.705.158-1.407.212-2.113.047-.623.289-.94.985-.901.546.03 1.105-.057 1.651-.139 1.737-.26 2.995-1.723 2.986-3.442-.007-1.394-.703-2.324-2.102-2.536Zm-1.318 4.629c-1.779.312-1.976.122-1.699-1.638.016-.104.039-.206.052-.31q.165-1.322 1.465-1.305c1.303.017 1.74.291 1.821 1.14.108 1.131-.499 1.913-1.639 2.113m43.534-3.976c-.096-.518-.214-.897-.836-.916-.612-.018-1.027.147-1.291.773-1.171 2.777-2.385 5.537-3.587 8.301-.39.897-.22 1.185.748 1.049.305-.043.691-.381.819-.678.995-2.31.465-1.847 3.056-1.798.026 0 .053.004.079.003.49-.023.716.227.763.698.042.416.076.841.188 1.241.178.642.745.6 1.233.537.209-.027.387-.289.519-.396l-.092-.484c-.536-2.777-1.084-5.552-1.598-8.332Zm-1.022 5.419c-.585.053-1.178.022-1.957.022l1.564-3.7.24.007c.183 1.069.383 2.136.528 3.211.019.142-.23.448-.374.461ZM71.086 70.998c-1.446-.401-2.865-.386-4.238.257-1.107.518-1.803 1.862-1.67 3.144.107 1.023.771 1.608 2.194 1.913.488.105.992.145 1.469.283.9.26 1.166.808.841 1.689-.234.633-.654 1.127-1.378 1.11-1.196-.028-2.389-.133-3.683-.212-.316 1.11-.151 1.496.94 1.596 1.012.093 2.057.161 3.055.018 1.764-.252 2.856-1.654 2.864-3.428.004-.948-.398-1.641-1.303-1.945-.74-.249-1.533-.341-2.3-.511-1.036-.231-1.394-.916-.79-1.774.274-.389.868-.721 1.346-.764.739-.067 1.504.126 2.256.228.364.049.814.368.938-.271.104-.535.24-1.118-.541-1.334Zm69.956.598c-.096-.501-.296-.836-.859-.826-.522.009-.991.069-1.18.689-.152.5-.37.983-.581 1.463-1.036 2.355-2.064 4.714-3.13 7.056-.282.619-.137.8.513.922.967.181 1.086-.513 1.327-1.106.562-1.38.557-1.382 2.018-1.363 1.91.014 1.478-.006 1.786 1.541.026.128.024.265.066.387.211.613.738.627 1.24.574.585-.062.5-.536.428-.915-.535-2.809-1.093-5.613-1.628-8.422m-.924 5.543c-.027.028-.102.02-.153.016q-.81-.064-1.618-.13c.132-.488.228-.99.404-1.462.276-.743.606-1.466.913-2.198l.262.035c.173 1.12.356 2.238.502 3.362.015.112-.193.258-.309.378Zm-10.643-6.147c-.569-.1-1.136-.208-1.871-.343-.608.152-1.371.263-2.07.534-1.273.493-1.989 1.845-1.832 3.262.116 1.043.787 1.603 2.291 1.907.515.104 1.038.175 1.543.314.645.177.843.649.743 1.281-.124.782-.636 1.418-1.444 1.433a12.8 12.8 0 0 1-3.022-.296c-.59-.133-.78-.008-.862.505-.092.575.088 1.039.712 1.098 1.067.102 2.143.191 3.212.161.937-.026 1.707-.539 2.29-1.257.716-.881 1.056-1.899.686-3.011-.348-1.045-1.295-1.29-2.256-1.459-.466-.082-.94-.14-1.395-.267-.928-.26-1.241-1.113-.584-1.806.344-.363.93-.664 1.421-.687.77-.036 1.565.133 2.324.319.538.132.75-.045.826-.516.095-.583-.021-1.053-.712-1.174Zm117.401 1.362c.961.008 1.92.189 3.022.309-.037-.574.445-1.38-.408-1.6-1.462-.376-2.985-.44-4.395.287-1.062.548-1.792 2.027-1.58 3.121.239 1.234 1.185 1.644 2.279 1.856.439.085.886.137 1.316.255 1.007.278 1.286.917.845 1.85-.301.638-.823.994-1.505.955a22.5 22.5 0 0 1-2.952-.351c-.47-.09-.618-.004-.679.438-.115.838.085 1.2.931 1.319.803.113 1.627.186 2.435.145 1.295-.065 2.442-.537 3.104-1.726.931-1.672.918-3.698-1.745-4.085a23 23 0 0 1-1.552-.277c-.671-.147-.87-.615-.781-1.245.105-.747.683-1.259 1.666-1.25ZM96.503 70.877c-.645-.033-1.021.165-1.246.799-.456 1.286-.977 2.548-1.476 3.818-.387.986-.782 1.969-1.174 2.953l-.239-.036q-.143-.948-.29-1.897c-.259-1.658-.515-3.317-.781-4.974-.13-.811-.781-.665-1.306-.631-.655.043-.422.529-.354.893.511 2.706 1.029 5.41 1.543 8.116.101.531.193 1.018.914 1.077.689.056.984-.258 1.208-.851.371-.981.81-1.937 1.232-2.898.802-1.827 1.613-3.649 2.416-5.476.204-.464.311-.855-.448-.894Zm11.879.071c-2.381-.828-5.006.319-5.794 2.688-.376 1.13-.637 2.353-.653 3.537-.048 3.733 2.653 4.246 5.426 3.541.294-.075.439-.73.652-1.116-.291-.072-.578-.174-.873-.208-.231-.026-.472.032-.708.052-2.096.184-2.824-.476-2.948-2.579.217-.966.378-1.948.669-2.892.252-.818.849-1.455 1.717-1.578.685-.097 1.407.041 2.109.105.37.033.808.33.954-.286.128-.542.136-1.027-.551-1.266Zm93.849-.044c-.816-.008-1.632-.002-2.447-.002v.033c-.921 0-1.842-.023-2.761.009-.552.019-.76.382-.729.914.03.527.404.537.784.551q.513.02 1.026.031c.426.009.615.187.555.641-.299 2.257-.579 4.517-.874 6.776-.061.47-.126.917.538.989.568.062.956-.045 1.033-.737.224-2.003.503-3.999.748-6 .237-1.932.088-1.777 1.899-1.673q.118.008.237 0c.599-.033.712-.457.732-.932.021-.509-.341-.597-.739-.601ZM9.784 79.397c-.448-.003-.896 0-1.344 0v-.009h-.87c-1.121.002-1.171-.074-1.033-1.151.276-2.158.532-4.318.785-6.479.09-.772-.088-.913-.863-.869-.69.04-.693.566-.747 1.012-.29 2.394-.572 4.79-.822 7.188-.187 1.798-.164 1.797 1.693 1.771q1.581-.023 3.162-.02c.562.002.826-.28.839-.815.013-.552-.372-.626-.8-.63ZM232.019 70.9c-.776-.139-1.051.047-1.175.847-.064.414-.082.835-.133 1.251q-.433 3.552-.869 7.11c-.071.497.103.797.65.858.582.065.885-.137.957-.743.327-2.76.676-5.518 1.014-8.277.053-.428.248-.923-.444-1.046m-132.013-.005c-.565-.031-1.046-.006-1.129.742-.314 2.811-.655 5.619-.986 8.421-.173.611.164.815.689.881.607.076.855-.22.921-.792.323-2.783.66-5.564.999-8.345.052-.431.175-.87-.495-.906Zm12.082-.005c-.532-.003-.979-.01-1.063.711-.33 2.835-.693 5.665-1.056 8.496-.063.49.125.74.605.82.497.083.911.041.995-.569.075-.544.135-1.09.203-1.635l.867-6.954c.023-.468.059-.866-.552-.87Zm-97.965.029c-.664-.002-.774.436-.836.924-.351 2.753-.689 5.509-1.043 8.262-.056.437.064.723.52.807.436.081.886.114 1.018-.44.114-.48.161-.978.221-1.469.295-2.418.583-4.836.874-7.254.055-.557-.154-.828-.755-.83Zm-.198-.611c.983.074 1.852-.439 2.094-1.205-1.026-.383-2.224.149-2.094 1.205"/></svg>