<svg xmlns="http://www.w3.org/2000/svg" width="250" height="246.518" viewBox="0 0 250 246.518" fill="currentColor"><path d="M175.368 0c-41.218 0-74.632 33.414-74.632 74.632s33.414 74.632 74.632 74.632S250 115.85 250 74.632 216.586 0 175.368 0M61.801 111.153C27.669 111.153 0 138.823 0 172.955s27.669 61.801 61.801 61.801 61.801-27.669 61.801-61.801-27.669-61.801-61.801-61.801Zm113.567 56.836c-21.685 0-39.264 17.579-39.264 39.264s17.579 39.264 39.264 39.264 39.264-17.579 39.264-39.264-17.579-39.264-39.264-39.264"/></svg>