<svg xmlns="http://www.w3.org/2000/svg" width="24" height="21.603" viewBox="0 0 24 21.603"><path fill="none" stroke="currentColor" stroke-linecap="round" stroke-linejoin="round" stroke-width="2.399" d="m21.005 11.495-8.996 8.909-8.995-8.909a5.997 5.997 0 1 1 8.995-7.875 5.996 5.996 0 1 1 8.995 7.882"/><path fill="none" stroke="currentColor" stroke-linecap="round" stroke-linejoin="round" stroke-width="2.399" d="m12.01 3.612-3.95 3.95a1.2 1.2 0 0 0 0 1.696l.651.651a2.12 2.12 0 0 0 2.999 0l1.199-1.199a3.817 3.817 0 0 1 5.397 0l2.699 2.699m-8.395 3.597 2.399 2.399m.599-5.397 2.399 2.399"/></svg>