<svg xmlns="http://www.w3.org/2000/svg" width="31.016" height="27.686" viewBox="0 0 31.016 27.686"><path fill="none" d="M-4.478-6.147h40v40h-40z"/><path fill="none" stroke="currentColor" stroke-linecap="round" stroke-linejoin="round" d="m28.022 14.806-12.5 12.38-12.5-12.38A8.334 8.334 0 1 1 15.523 3.863 8.33 8.33 0 0 1 21.325.582a8.33 8.33 0 0 1 8.399 4.74 8.35 8.35 0 0 1 .19 6.662 8.3 8.3 0 0 1-1.89 2.831"/><path fill="none" stroke="currentColor" stroke-linecap="round" stroke-linejoin="round" d="m15.522 3.853-5.488 5.488a1.67 1.67 0 0 0 0 2.356l.905.905a2.95 2.95 0 0 0 4.167 0l1.667-1.667a5.307 5.307 0 0 1 7.5 0l3.75 3.75m-11.668 5.001 3.333 3.333m.834-7.5 3.333 3.333"/></svg>