<svg xmlns="http://www.w3.org/2000/svg" width="26.991" height="26.991" viewBox="0 0 26.991 26.991"><path fill="none" stroke="currentColor" stroke-linecap="round" stroke-linejoin="round" stroke-width="2.991" d="M1.571 14.953A11.96 11.96 0 0 1 12.038 25.42a8.97 8.97 0 0 0 4.486-7.476 13.46 13.46 0 0 0 8.972-11.962 4.486 4.486 0 0 0-4.486-4.486 13.46 13.46 0 0 0-11.962 8.972 8.97 8.97 0 0 0-7.476 4.486"/><path fill="none" stroke="currentColor" stroke-linecap="round" stroke-linejoin="round" stroke-width="2.991" d="M6.057 16.448a8.97 8.97 0 0 0-4.486 8.972 8.97 8.97 0 0 0 8.972-4.486m5.981-11.962a1.495 1.495 0 1 0 2.99 0 1.495 1.495 0 0 0-2.99 0"/></svg>