<svg xmlns="http://www.w3.org/2000/svg" width="31.006" height="31" viewBox="0 0 31.006 31"><path fill="none" d="M-4.494-4.498h40v40h-40z"/><path fill="none" stroke="currentColor" stroke-linecap="round" stroke-linejoin="round" d="M13.839 15.502a1.667 1.667 0 1 0 3.334 0 1.667 1.667 0 0 0-3.334 0"/><path fill="none" stroke="currentColor" stroke-linecap="round" stroke-linejoin="round" d="M15.506 7.168a8.331 8.331 0 0 0-5.892 14.226 8.34 8.34 0 0 0 9.082 1.807 8.34 8.34 0 0 0 5.144-7.699"/><path fill="none" stroke="currentColor" stroke-linecap="round" stroke-linejoin="round" d="M17.172.594A15 15 0 0 0 1.984 8.993a15 15 0 0 0 2.907 17.111 15 15 0 0 0 25.517-12.268"/><path fill="none" stroke="currentColor" stroke-linecap="round" stroke-linejoin="round" d="M20.506 5.502v5h5l5-5h-5v-5zm0 5-5 5"/></svg>