<svg xmlns="http://www.w3.org/2000/svg" width="59.636" height="100" viewBox="0 0 59.636 100">
  <style>
    @media (prefers-color-scheme: light) {
      path, circle { fill: #000000; }
    }
    @media (prefers-color-scheme: dark) {
      path, circle { fill: #ffffff; }
    }
  </style>
  <circle cx="51.958" cy="7.678" r="7.678"/>
  <path d="M28.143 11.24C12.625 11.24 0 23.917 0 39.498s12.625 28.257 28.143 28.257 28.143-12.676 28.143-28.257-12.625-28.257-28.143-28.257Zm0 44.354c-8.912 0-16.136-7.207-16.136-16.098s7.225-16.098 16.136-16.098 16.136 7.207 16.136 16.098-7.225 16.098-16.136 16.098M44.278 71.785c-.023 8.87-7.238 16.055-16.136 16.055S12.03 80.655 12.006 71.785H0C.023 87.346 12.638 100 28.143 100s28.119-12.653 28.143-28.215H44.279Z"/>
</svg>