<svg xmlns="http://www.w3.org/2000/svg" id="Capa_1" data-name="Capa 1" viewBox="0 0 50 29.32" fill="currentColor"><path d="M7.11 5.99H4.07V.19H2.65v6.99h4.46zm31.33 2.9c-.83 0-1.5-.67-1.5-1.49h-1.11c0 1.44 1.17 2.62 2.61 2.62s2.61-1.17 2.61-2.62h-1.11c0 .82-.67 1.49-1.5 1.49M18.81 7.28c.35 0 .68-.07 1.01-.2.32-.13.6-.32.82-.57.34-.38.37-.55.43-.91H19.8c-.07.24-.2.4-.38.51q-.27.15-.63.15c-.36 0-.42-.05-.58-.15-.24-.15-.28-.25-.37-.43-.08-.19-.13-.41-.13-.66h3.36v-.38q0-.75-.27-1.32c-.27-.57-.44-.68-.78-.89s-.77-.32-1.28-.32-.95.12-1.31.35c-.54.35-.64.55-.83.95s-.29.85-.29 1.35.1.96.31 1.34.5.67.88.88.81.31 1.31.31m-.98-3.64c.08-.16.2-.31.35-.41s.34-.16.55-.16.41.05.56.15.26.23.34.4c.11.25.11.35.11.55H17.7c0-.18.04-.36.12-.53m-4.66 3.54c.18-.06.34-.15.46-.26.12-.1.22-.22.31-.36.08-.13.14-.27.19-.41l.16 1.02h1.02V0h-1.42v2.86q-.09-.165-.24-.3c-.1-.1-.22-.18-.34-.25-.14-.07-.28-.13-.43-.17-.17-.04-.33-.06-.51-.06-.43 0-.79.11-1.09.32-.44.32-.52.51-.67.89s-.23.84-.23 1.36c0 .82.19 1.47.56 1.93s.9.69 1.57.69c.24 0 .46-.03.64-.1zm-1.1-1.31c-.19-.26-.29-.68-.29-1.23s.1-.94.3-1.17.46-.35.76-.35c.24 0 .43.06.58.17s.27.28.35.51c.12.34.12.51.12.85 0 .59-.09 1.01-.26 1.26-.26.37-.44.37-.8.37-.33 0-.58-.13-.77-.4h.01Zm30.97 1.1c.36.21.79.31 1.28.31s.94-.11 1.3-.33.63-.52.83-.91c.19-.38.29-.83.29-1.33 0-.53-.1-1-.29-1.39-.29-.59-.48-.7-.84-.91s-.79-.32-1.28-.32c-.74 0-.92.11-1.28.33s-.64.53-.84.92-.3.85-.3 1.38c0 .79.1.98.3 1.36s.48.68.84.89zm.35-3.08c.07-.23.18-.42.34-.56.23-.21.35-.21.6-.21s.47.07.62.22.26.34.32.57c.06.24.09.48.09.75s-.03.54-.1.78-.18.43-.33.57c-.16.15-.38.23-.6.22-.26 0-.47-.08-.62-.23s-.26-.35-.32-.59c-.07-.25-.1-.5-.1-.75 0-.28.04-.54.11-.78M35.31 6.2h-2.48l2.47-3.22v-.79h-4.05v.99h2.34L31.13 6.4v.79h4.19V6.2ZM9.43.2H8.06v1.27h1.37zm0 6.98v-5H8.08v5zm14.08-2.74c0-.17.03-.32.08-.45.04-.14.14-.26.27-.34.12-.09.28-.16.48-.2s.43-.05.71-.02h.11c.06 0 .08 0 .1.02V2.11s-.06-.02-.09-.02h-.13c-.26 0-.5.05-.71.16s-.39.26-.53.45c-.15.19-.26.42-.34.67V2.19H22.1v5h1.41V4.45Zm5.91-2.17c-.31-.13-.72-.19-1.23-.19-.42 0-.79.06-1.12.17s-.58.29-.78.52c-.29.35-.3.53-.32.89h1.17c.06-.21.19-.38.38-.49.18-.09.38-.14.58-.15q.42 0 .63.18c.13.12.2.3.2.53v.3h-.63c-.88.02-1.53.17-1.94.45-.61.43-.61.7-.61 1.25 0 .33.07.6.22.83s.35.4.61.52.54.18.86.18c.35 0 .65-.07.91-.21s.47-.39.64-.75l.12.86h1.18V3.65q0-.495-.21-.84c-.21-.36-.37-.42-.67-.55h.01Zm-.47 3.24c0 .11-.03.22-.09.31-.06.1-.13.19-.23.27-.15.12-.21.14-.33.19s-.24.07-.37.07c-.23 0-.43-.07-.59-.2a.66.66 0 0 1-.24-.54c0-.2.06-.36.19-.48s.29-.21.49-.26c.21-.05.44-.08.66-.08h.51v.73Zm9.5-3.74c-1.45 0-2.62 1.17-2.62 2.62S37 7.01 38.45 7.01s2.62-1.17 2.62-2.62-1.17-2.62-2.62-2.62m0 4.12c-.83 0-1.5-.67-1.5-1.49s.67-1.49 1.5-1.49 1.5.67 1.5 1.49-.67 1.49-1.5 1.49M40.66.73c-.39 0-.71.32-.71.71s.32.71.71.71.71-.32.71-.71-.32-.71-.71-.71M29.1 10.05c.07-.09.19-.13.37-.13h.66v-.94h-1.16c-.43 0-.77.11-1.01.33s-.36.53-.36.94v.72h-.92v.98h.92v4.02h1.42v-4.02h1.05v-.98h-1.08v-.48c0-.2.03-.35.1-.44zM0 15.97h1.41V8.98H0zm38.59-4.02c.19 0 .35.04.48.13s.23.19.3.32c.11.2.12.26.14.39h1.17c-.03-.36-.13-.68-.3-.97-.26-.43-.42-.52-.72-.69s-.67-.26-1.09-.26c-.48 0-.91.11-1.27.33s-.64.53-.84.92c-.3.59-.3.85-.3 1.36s.1.99.31 1.38.49.68.86.89c.36.21.78.31 1.24.31.41 0 .77-.08 1.07-.24s.55-.38.72-.66c.18-.28.28-.59.3-.94h-1.15c-.02.11-.06.23-.14.36-.11.2-.17.24-.3.34-.13.09-.29.14-.48.14-.36 0-.64-.14-.84-.43s-.3-.67-.3-1.16c0-.52.1-.9.31-1.15.2-.25.47-.38.8-.38h.03Zm-4.25-.75c-.34-.21-.77-.32-1.28-.32s-.95.12-1.31.35c-.54.35-.64.55-.83.95s-.29.85-.29 1.35.1.96.31 1.34.5.67.88.88.81.31 1.31.31c.35 0 .68-.07 1.01-.2.32-.13.6-.32.82-.58.34-.38.37-.55.43-.91h-1.27c-.07.24-.2.4-.38.51q-.27.15-.63.15c-.36 0-.42-.05-.58-.15-.24-.15-.28-.25-.37-.43-.08-.19-.13-.41-.13-.66h3.36v-.38q0-.75-.27-1.32c-.27-.57-.44-.68-.78-.89m-2.31 1.76c0-.18.04-.36.12-.53.08-.16.2-.31.35-.41s.34-.16.55-.16.41.05.56.14c.15.1.26.23.34.4.11.25.11.35.11.55h-2.04.01Zm17.67-.85c-.2-.39-.48-.7-.84-.91s-.79-.32-1.28-.32c-.74 0-.92.11-1.28.33s-.64.53-.84.92q-.3.585-.3 1.38c0 .79.1.98.3 1.36s.48.68.84.89.79.31 1.28.31.94-.11 1.3-.33.63-.52.83-.91c.19-.38.29-.83.29-1.33 0-.53-.1-1-.29-1.39zm-1.19 2.12q-.105.36-.33.57c-.16.15-.38.23-.6.22-.26 0-.47-.08-.62-.23s-.26-.35-.32-.59c-.07-.25-.1-.5-.1-.75 0-.28.04-.54.11-.78.11-.35.18-.42.34-.56q.225-.21.6-.21c.375 0 .47.07.62.22s.26.34.32.57c.06.24.09.5.09.75 0 .28-.03.54-.1.78h-.01Zm-4.87.78a.26.26 0 0 1-.15-.12.6.6 0 0 1-.05-.27v-2.66h1.1v-.99h-1.11v-1.5h-1.01l-.36 1.51h-.86v.98h.81v2.72c0 .27.05.5.14.71.09.2.26.36.5.47s.58.17 1.02.17c.24 0 .44-.01.57-.04s.24-.05.3-.08v-.87h-.67c-.1 0-.19 0-.25-.03m-28.24-3.86q-.435-.27-.99-.27c-.17 0-.33.02-.49.06-.23.06-.3.1-.43.17s-.25.16-.36.26q-.165.15-.27.33v-.72h-1.42v6.55h1.41v-2.31c.07.12.15.23.25.33.14.15.2.19.32.27q.18.12.39.18c.15.04.3.07.45.07.37 0 .74-.09 1.06-.28.31-.19.56-.47.74-.86.27-.58.27-.89.27-1.49s-.08-1.06-.25-1.44-.39-.66-.68-.84Zm-.7 3.5c-.21.25-.46.38-.77.38-.25 0-.45-.07-.61-.22s-.28-.34-.36-.58-.12-.5-.12-.78c0-.44.09-.8.27-1.1.18-.29.45-.44.81-.44.33 0 .59.14.79.41s.3.65.3 1.13c0 .55-.1.95-.31 1.21Zm6.04-3.42c-.36-.23-.8-.35-1.31-.35s-.94.11-1.28.32-.61.51-.78.89q-.27.57-.27 1.32v.38h3.36c0 .25-.04.48-.13.66s-.21.33-.37.43c-.24.15-.35.15-.58.15q-.36 0-.63-.15c-.18-.1-.31-.27-.38-.51h-1.27c.06.35.2.66.43.91.34.38.5.44.82.58.32.13.66.2 1.01.2.5 0 .93-.1 1.31-.31s.67-.5.88-.88.31-.83.31-1.34-.1-.95-.29-1.35-.47-.72-.83-.95m-2.32 1.73c0-.2.04-.38.11-.55.11-.25.19-.3.34-.4s.34-.14.56-.14.4.05.55.16a1 1 0 0 1 .35.41c.08.16.12.34.12.53h-2.04Zm-8.67-1.69a1.3 1.3 0 0 0-.53-.3c-.29-.09-.38-.09-.57-.09-.32 0-.61.08-.88.23-.26.15-.47.34-.64.57-.09-.17-.22-.32-.38-.44-.15-.12-.32-.21-.5-.27-.27-.09-.35-.09-.52-.09-.39 0-.71.08-.97.24s-.46.35-.61.57v-.71H2.75v5h1.41v-3.2c0-.17.04-.31.13-.42a.85.85 0 0 1 .71-.33c.13 0 .25.03.37.08s.22.13.3.23c.12.15.12.23.12.38v3.25H7.2v-3.2c0-.18.05-.32.14-.43.14-.16.2-.19.33-.24.12-.05.25-.07.38-.08.14 0 .26.03.38.08s.22.14.3.26c.12.18.12.28.12.48v3.12h1.41v-3.3c0-.34-.05-.62-.15-.85-.15-.35-.23-.41-.39-.55Zm16.06-.39c-.26 0-.5.05-.71.16s-.39.26-.53.45c-.15.19-.26.41-.34.67v-1.18h-1.36v5h1.41v-2.74c0-.17.03-.32.08-.45.04-.14.14-.26.27-.34.12-.09.28-.16.48-.2s.43-.05.71-.02h.11c.06 0 .08.01.1.02v-1.34s-.06-.02-.09-.02h-.13M6.11 18.95c0 .62-.5 1.12-1.12 1.12s-1.12-.5-1.12-1.12.5-1.12 1.12-1.12 1.12.5 1.12 1.12m1.54 3.04h-.72l.45 1.81c.17.66-.22 1.34-.88 1.54l-1.92.58.99 2.22c.14.32 0 .7-.32.85s-.7 0-.85-.32l-1.13-2.55c-.23-.53.05-1.15.6-1.31l1.51-.45-.41-1.41-.2.34c-.23.39-.65.64-1.11.64H2.43c-.35 0-.64-.29-.64-.64s.29-.64.64-.64h1.23l.66-1.13c.29-.49.81-.8 1.38-.8h1.95c.59 0 1.12.36 1.34.91l.44 1.1c.13.33-.03.7-.36.83s-.7-.03-.83-.36l-.44-1.1a.15.15 0 0 0-.15-.1Zm.39 4.26c.04.11.11.2.2.28l1.65 1.36c.27.22.31.63.09.9s-.63.31-.9.09l-1.65-1.36c-.27-.22-.47-.51-.59-.84l-.14-.39.09-.03c.41-.12.76-.35 1.03-.65l.22.63Zm11.34.22H17.1v2.12h2.54v.64h-3.3v-5.87h3.17V24H17.1v1.86h2.28v.63Zm1.22-.32c0-.44 0-.79-.04-1.14h.68l.04.7h.02c.21-.4.7-.79 1.39-.79.58 0 1.49.35 1.49 1.79v2.52h-.77V26.8c0-.68-.25-1.25-.98-1.25-.5 0-.9.36-1.03.78-.03.1-.05.23-.05.36v2.53h-.77v-3.07Zm9.02 3.08-.06-.53h-.03c-.23.33-.69.63-1.29.63-.85 0-1.29-.6-1.29-1.21 0-1.02.91-1.58 2.53-1.57v-.09c0-.35-.1-.98-.96-.98-.39 0-.8.12-1.1.31l-.17-.5c.35-.23.85-.37 1.38-.37 1.29 0 1.6.88 1.6 1.72v1.58c0 .37.02.72.07 1.01h-.7Zm-.11-2.15c-.84-.02-1.79.13-1.79.95 0 .5.33.73.72.73.55 0 .9-.35 1.02-.71a.7.7 0 0 0 .04-.24v-.73Zm4.98 1.99c-.2.1-.64.24-1.21.24-1.27 0-2.1-.86-2.1-2.15s.89-2.24 2.26-2.24c.45 0 .85.11 1.06.22l-.17.59c-.18-.1-.47-.2-.89-.2-.97 0-1.49.71-1.49 1.59 0 .98.63 1.58 1.46 1.58.44 0 .72-.11.94-.21l.13.57Zm3.85 0c-.2.1-.64.24-1.21.24-1.27 0-2.1-.86-2.1-2.15s.89-2.24 2.26-2.24c.45 0 .85.11 1.06.22l-.17.59c-.18-.1-.47-.2-.89-.2-.97 0-1.49.71-1.49 1.59 0 .98.63 1.58 1.46 1.58.44 0 .72-.11.94-.21l.13.57Zm1.75-5.24c0 .26-.18.47-.49.47-.27 0-.46-.21-.46-.47s.2-.48.48-.48.47.21.47.48m-.85 5.4v-4.22h.77v4.22zm5.85-2.15c0 1.56-1.08 2.24-2.1 2.24-1.14 0-2.02-.84-2.02-2.17 0-1.41.92-2.24 2.09-2.24s2.03.88 2.03 2.17m-3.34.04c0 .92.53 1.62 1.28 1.62s1.28-.69 1.28-1.64c0-.71-.36-1.62-1.26-1.62s-1.3.84-1.3 1.64m2.43-3.94-1.06 1.25h-.55l.77-1.25zm1.88 2.97c0-.44 0-.79-.04-1.14h.68l.04.7h.02c.21-.4.7-.79 1.39-.79.58 0 1.49.35 1.49 1.79v2.52h-.77V26.8c0-.68-.25-1.25-.98-1.25-.5 0-.9.36-1.03.78-.03.1-.05.23-.05.36v2.53h-.77v-3.07Z"/></svg>