<svg xmlns="http://www.w3.org/2000/svg" width="24" height="23.982" fill="currentColor" viewBox="0 0 24 23.982"><path d="M12.001 0C8.742 0 8.333.014 7.053.072 5.776.131 4.904.333 4.14.629a5.9 5.9 0 0 0-2.126 1.383A5.9 5.9 0 0 0 .629 4.136c-.298.763-.5 1.634-.557 2.91C.015 8.325 0 8.734 0 11.991s.015 3.664.072 4.943c.059 1.277.261 2.148.557 2.91a5.9 5.9 0 0 0 1.384 2.124 5.9 5.9 0 0 0 2.125 1.384c.764.297 1.636.499 2.913.557 1.28.058 1.689.072 4.948.072s3.667-.014 4.947-.072c1.277-.059 2.151-.261 2.914-.557a5.9 5.9 0 0 0 2.124-1.384 5.9 5.9 0 0 0 1.385-2.124c.295-.763.498-1.634.557-2.91.058-1.279.073-1.687.073-4.943s-.015-3.665-.072-4.944c-.06-1.277-.263-2.148-.557-2.91a5.9 5.9 0 0 0-1.385-2.124A5.9 5.9 0 0 0 19.86.63c-.765-.297-1.638-.499-2.915-.557-1.28-.058-1.688-.072-4.947-.072h.004Zm-1.077 2.161h1.077c3.204 0 3.584.011 4.849.069 1.17.053 1.805.249 2.228.413.56.217.959.477 1.379.897s.68.819.898 1.379c.164.422.36 1.057.413 2.226.057 1.264.07 1.644.07 4.844s-.012 3.58-.07 4.844c-.054 1.169-.249 1.804-.413 2.226-.217.56-.478.958-.898 1.377s-.819.679-1.379.897c-.422.165-1.058.36-2.228.413-1.265.057-1.645.07-4.849.07s-3.584-.012-4.849-.07c-1.17-.054-1.805-.249-2.228-.414a3.7 3.7 0 0 1-1.38-.897c-.42-.42-.68-.818-.898-1.378-.164-.422-.36-1.057-.413-2.226-.058-1.264-.069-1.644-.069-4.846s.011-3.58.069-4.844c.053-1.169.249-1.804.413-2.226.217-.56.478-.959.898-1.379s.82-.679 1.38-.897c.423-.165 1.058-.36 2.228-.413 1.107-.05 1.536-.065 3.772-.067zm7.482 1.991a1.44 1.44 0 1 0-.001 2.88 1.44 1.44 0 0 0 .001-2.881ZM12 5.833c-3.403 0-6.163 2.757-6.163 6.158S8.596 18.148 12 18.148a6.158 6.158 0 1 0-.001-12.315Zm0 2.161c2.209 0 4 1.79 4 3.997s-1.791 3.997-4 3.997-4-1.79-4-3.997 1.791-3.997 4-3.997"/></svg>