<svg xmlns="http://www.w3.org/2000/svg" width="24" height="24" viewBox="0 0 24 24" fill="currentColor"><path d="M20.449 20.449h-3.556V14.88c0-1.328-.024-3.038-1.849-3.038-1.852 0-2.136 1.447-2.136 2.941v5.665H9.352V8.996h3.414v1.565h.048a3.74 3.74 0 0 1 3.368-1.85c3.604 0 4.269 2.371 4.269 5.455l-.002 6.282ZM5.34 7.432a2.064 2.064 0 1 1 0-4.127 2.064 2.064 0 0 1 0 4.127M7.118 20.45h-3.56V8.997h3.56zM22.222.002H1.771A1.75 1.75 0 0 0 0 1.732v20.536A1.753 1.753 0 0 0 1.771 24h20.451A1.756 1.756 0 0 0 24 22.268V1.73A1.756 1.756 0 0 0 22.222 0"/></svg>