<svg xmlns="http://www.w3.org/2000/svg" fill="currentColor" width="31.54mm" height="199.888" data-name="Capa 2" viewBox="0 0 89.404 149.915"><g data-name="Capa 2"><circle cx="77.893" cy="11.511" r="11.511"/><path d="M42.191 16.851C18.927 16.851 0 35.855 0 59.213s18.927 42.362 42.191 42.362 42.191-19.003 42.191-42.362-18.927-42.361-42.191-42.361Zm0 66.494C28.83 83.345 18 72.54 18 59.212s10.831-24.133 24.191-24.133 24.191 10.805 24.191 24.133-10.831 24.133-24.191 24.133M66.38 107.617c-.035 13.298-10.851 24.069-24.19 24.069S18.035 120.915 18 107.617H0c.035 23.329 18.947 42.298 42.19 42.298s42.155-18.969 42.19-42.298z"/></g></svg>