<svg xmlns="http://www.w3.org/2000/svg" width="250" height="87.613" data-name="Capa 1" viewBox="0 0 250 87.613" fill="currentColor"><path d="M35.53 29.939H20.355V.967H13.25v34.941h22.28V29.94ZM192.181 44.42c-4.129 0-7.478-3.335-7.489-7.451h-5.573c.011 7.222 5.866 13.095 13.061 13.095s13.05-5.872 13.061-13.095h-5.572c-.011 4.117-3.359 7.451-7.489 7.451Zm-98.126-8.029q2.61 0 5.026-.991 2.416-.99 4.108-2.875c1.692-1.885 1.836-2.771 2.126-4.543H98.96q-.555 1.764-1.909 2.537-1.353.774-3.165.773-1.691 0-2.888-.761c-1.197-.761-1.406-1.232-1.825-2.174q-.628-1.414-.628-3.322h16.794v-1.91q0-3.745-1.329-6.609t-3.915-4.471-6.403-1.606q-3.843 0-6.549 1.752c-2.706 1.752-3.185 2.754-4.144 4.761q-1.437 3.008-1.438 6.753 0 3.867 1.571 6.718t4.386 4.41q2.814 1.558 6.537 1.558m-4.918-18.196a5.2 5.2 0 0 1 1.764-2.042q1.147-.785 2.767-.785 1.691 0 2.815.725t1.692 1.982c.568 1.257.567 1.756.567 2.754H88.545a5.7 5.7 0 0 1 .592-2.634M65.819 35.908q1.365-.483 2.308-1.293a7.3 7.3 0 0 0 1.535-1.8q.592-.99.954-2.03l.798 5.123h5.123V0h-7.08v14.305a6.8 6.8 0 0 0-1.184-1.499 7.9 7.9 0 0 0-1.691-1.232 9.2 9.2 0 0 0-2.138-.834 10 10 0 0 0-2.526-.302q-3.214 0-5.437 1.583c-2.223 1.583-2.602 2.541-3.359 4.458q-1.136 2.877-1.136 6.79 0 6.186 2.803 9.653t7.829 3.468q1.837 0 3.201-.483Zm-5.521-6.573q-1.426-1.982-1.426-6.162 0-4.108 1.522-5.86t3.818-1.752q1.764 0 2.912.833 1.148.834 1.727 2.526c.579 1.692.588 2.546.604 4.253q0 4.422-1.317 6.283c-1.317 1.861-2.203 1.861-3.975 1.861q-2.441 0-3.866-1.982ZM215.13 34.82q2.718 1.572 6.391 1.571 3.818 0 6.512-1.643 2.694-1.642 4.132-4.531 1.438-2.887 1.438-6.657 0-4.011-1.474-6.959c-1.474-2.948-2.377-3.483-4.181-4.555q-2.707-1.606-6.403-1.606c-3.696 0-4.603.547-6.415 1.643q-2.719 1.644-4.205 4.591t-1.486 6.887c0 3.939.495 4.897 1.486 6.814q1.486 2.876 4.205 4.446Zm1.727-15.38q.531-1.752 1.679-2.779c1.148-1.027 1.768-1.027 3.009-1.027q1.956 0 3.093 1.088 1.135 1.088 1.594 2.851.459 1.765.459 3.745 0 2.103-.507 3.879-.508 1.775-1.643 2.864-1.136 1.087-2.996 1.087-1.982 0-3.117-1.136-1.137-1.135-1.619-2.936a14.4 14.4 0 0 1-.483-3.758q0-2.126.531-3.878m-40.379 11.538h-12.42l12.348-16.117v-3.939h-20.249v4.929h11.695l-12.324 16.117v3.939h20.95zM47.129.99h-6.863v6.356h6.863zm-.049 34.917V10.922h-6.742v24.985zm70.414-13.677q0-1.256.41-2.272c.41-1.016.717-1.248 1.33-1.715q.918-.701 2.392-.991t3.552-.121q.241.024.544.049c.303.025.375.057.519.121v-6.718a1.4 1.4 0 0 0-.447-.108 5 5 0 0 0-.64-.036q-1.981 0-3.552.809a7.9 7.9 0 0 0-2.67 2.247q-1.1 1.439-1.704 3.347v-5.92h-6.79v24.985h7.056zm29.552-10.838q-2.32-.954-6.137-.954-3.142 0-5.582.857-2.441.858-3.879 2.61c-1.438 1.752-1.486 2.655-1.583 4.459h5.872q.532-1.74 1.921-2.441a6.6 6.6 0 0 1 2.912-.725q2.126-.023 3.13.906 1.002.931 1.003 2.647v1.498l-3.142.049q-6.621.072-9.69 2.211c-3.069 2.139-3.069 3.508-3.069 6.247q0 2.441 1.112 4.144t3.033 2.597 4.289.894q2.634 0 4.555-1.039 1.921-1.04 3.202-3.745l.58 4.301h5.896V18.341q0-2.44-1.051-4.217c-1.051-1.777-1.825-2.094-3.371-2.731Zm-2.343 16.178a3.3 3.3 0 0 1-.447 1.547q-.423.75-1.148 1.341c-.725.591-1.027.709-1.631.942q-.906.35-1.849.35-1.74 0-2.936-.978-1.196-.98-1.196-2.719 0-1.522.93-2.416t2.453-1.293a13.7 13.7 0 0 1 3.286-.423l2.537-.048zm47.479-18.701c-7.202 0-13.062 5.883-13.062 13.114s5.859 13.114 13.062 13.114 13.062-5.883 13.062-13.114-5.86-13.114-13.062-13.114m0 20.585c-4.136 0-7.489-3.345-7.489-7.471s3.353-7.471 7.489-7.471 7.489 3.345 7.489 7.471-3.353 7.471-7.489 7.471m11.053-25.802a3.564 3.564 0 1 0 0 7.128 3.564 3.564 0 0 0 0-7.128m-57.816 46.591q.507-.665 1.836-.665h3.31l-.048-4.687h-5.727q-3.238 0-5.026 1.667t-1.788 4.688v3.601h-4.616v4.905h4.616v20.08h7.08v-20.08h5.268v-4.905h-5.413v-2.416q0-1.522.508-2.187ZM0 79.833h7.032V44.892H0zm192.973-20.105q1.45 0 2.416.64t1.498 1.619c.532.979.588 1.309.701 1.969h5.872q-.193-2.682-1.51-4.856c-1.317-2.174-2.078-2.602-3.6-3.456q-2.284-1.28-5.425-1.28-3.624 0-6.343 1.655t-4.217 4.603c-1.499 2.947-1.498 4.237-1.498 6.814q0 4.013 1.558 6.899 1.56 2.889 4.289 4.434 2.73 1.547 6.21 1.547 3.069 0 5.352-1.22t3.612-3.311q1.33-2.089 1.499-4.676h-5.727q-.145.846-.677 1.825c-.532.979-.85 1.212-1.486 1.679q-.955.701-2.38.701-2.682 0-4.181-2.139-1.498-2.138-1.498-5.787 0-3.866 1.535-5.763t3.999-1.897Zm-21.264-3.758q-2.586-1.606-6.403-1.606-3.843 0-6.549 1.752c-2.706 1.752-3.185 2.754-4.144 4.761q-1.437 3.008-1.438 6.753 0 3.867 1.571 6.718t4.386 4.41q2.814 1.558 6.537 1.558 2.61 0 5.026-.991 2.416-.99 4.108-2.875c1.692-1.885 1.836-2.771 2.126-4.543h-6.355q-.556 1.764-1.909 2.537-1.353.774-3.165.773-1.692 0-2.888-.761c-1.196-.761-1.406-1.232-1.825-2.174q-.628-1.414-.628-3.322h16.794v-1.91q0-3.746-1.329-6.609t-3.915-4.471m-11.55 8.784a5.7 5.7 0 0 1 .592-2.634 5.2 5.2 0 0 1 1.764-2.042q1.147-.785 2.767-.785 1.691 0 2.815.725T169.789 62c.568 1.257.567 1.756.567 2.754zm88.367-4.229q-1.474-2.948-4.181-4.555t-6.403-1.606c-3.697 0-4.603.547-6.415 1.643q-2.72 1.644-4.206 4.591-1.486 2.949-1.486 6.887c0 3.938.496 4.897 1.486 6.814q1.487 2.876 4.206 4.446 2.718 1.572 6.391 1.571 3.816 0 6.512-1.643 2.694-1.642 4.132-4.531 1.437-2.887 1.437-6.657 0-4.011-1.474-6.959Zm-5.944 10.596q-.507 1.775-1.642 2.864-1.136 1.087-2.997 1.087-1.982 0-3.117-1.136T233.207 71a14.4 14.4 0 0 1-.484-3.758q0-2.126.531-3.878c.531-1.752.915-2.094 1.679-2.779q1.148-1.027 3.009-1.027 1.957 0 3.093 1.088t1.595 2.851a14.9 14.9 0 0 1 .459 3.745q0 2.103-.508 3.879Zm-24.345 3.89a1.1 1.1 0 0 1-.725-.58q-.23-.446-.229-1.365l-.049-13.314h5.559v-4.929h-5.559v-7.515h-5.026l-1.788 7.539h-4.277v4.905h4.06v13.604q0 2.006.688 3.528.69 1.522 2.489 2.368 1.8.846 5.11.846 1.837 0 2.852-.193t1.523-.41v-4.35h-3.359q-.774 0-1.269-.134M77.059 55.728q-2.176-1.365-4.954-1.365-1.281 0-2.441.302c-1.16.302-1.49.488-2.151.858s-1.26.801-1.8 1.293a7.7 7.7 0 0 0-1.366 1.631l-.024-3.6h-7.08v32.766h7.056V76.087q.531.894 1.244 1.655c.713.761 1.015.955 1.62 1.341q.906.58 1.969.906a7.7 7.7 0 0 0 2.271.326q2.948 0 5.292-1.401t3.685-4.313c1.341-2.912 1.341-4.426 1.341-7.455q0-4.373-1.244-7.213-1.245-2.84-3.419-4.204Zm-3.492 17.507q-1.558 1.91-3.854 1.91-1.838 0-3.033-1.112-1.197-1.111-1.789-2.924t-.592-3.914q0-3.286 1.341-5.498 1.34-2.211 4.072-2.211 2.44 0 3.927 2.042 1.486 2.041 1.486 5.667 0 4.132-1.559 6.041Zm30.194-17.12q-2.706-1.752-6.549-1.752-3.817 0-6.403 1.606-2.586 1.608-3.915 4.471-1.328 2.864-1.329 6.609v1.91h16.794q0 1.91-.628 3.322t-1.825 2.174c-1.197.761-1.76.761-2.888.761q-1.812 0-3.165-.773-1.353-.774-1.909-2.537h-6.355q.435 2.658 2.126 4.543c1.691 1.885 2.497 2.215 4.108 2.875q2.416.99 5.026.991 3.721 0 6.537-1.558 2.815-1.56 4.386-4.41t1.571-6.718q0-3.746-1.438-6.753-1.437-3.009-4.144-4.761m-11.599 8.639q0-1.498.567-2.754c.567-1.256.942-1.499 1.692-1.982q1.123-.725 2.815-.725 1.619 0 2.767.785a5.2 5.2 0 0 1 1.764 2.042 5.7 5.7 0 0 1 .592 2.634zm-43.326-8.433q-1.208-1.039-2.646-1.498c-1.438-.459-1.905-.459-2.839-.459q-2.416 0-4.386 1.147t-3.178 2.864a6.8 6.8 0 0 0-1.897-2.211q-1.172-.88-2.501-1.341c-1.329-.461-1.756-.459-2.61-.459q-2.924 0-4.845 1.183t-3.057 2.827v-3.528h-6.911v24.985h7.056V63.835q0-1.256.652-2.09a3.93 3.93 0 0 1 1.619-1.233 5 5 0 0 1 1.933-.398 4.6 4.6 0 0 1 1.849.398q.906.4 1.51 1.172c.604.772.604 1.152.604 1.909v16.238h7.032V63.835q0-1.329.677-2.151c.677-.822.999-.947 1.643-1.196a5.3 5.3 0 0 1 1.91-.375q1.015 0 1.921.398.906.399 1.499 1.305c.593.906.592 1.406.592 2.405v15.61h7.056v-16.48q0-2.538-.737-4.265c-.737-1.727-1.14-2.074-1.945-2.767Zm80.32-1.957q-1.981 0-3.552.809a7.9 7.9 0 0 0-2.67 2.247q-1.1 1.439-1.704 3.347v-5.92h-6.79v24.985h7.056V66.155q0-1.256.41-2.272c.41-1.016.717-1.248 1.33-1.715q.918-.701 2.392-.991t3.552-.121q.241.024.544.049c.303.025.375.057.519.121v-6.718a1.4 1.4 0 0 0-.447-.108 5 5 0 0 0-.64-.036"/></svg>